NunitoSans-M0ExpandedExtraLightSlanted.ufo
<glyph name="numbersign" format="2">
  <advance width="722"/>
  <unicode hex="0023"/>
  <outline>
    <contour>
      <point x="77" y="0" type="line"/>
      <point x="126" y="0" type="line"/>
      <point x="202" y="190" type="line"/>
      <point x="421" y="190" type="line"/>
      <point x="345" y="0" type="line"/>
      <point x="394" y="0" type="line"/>
      <point x="470" y="190" type="line"/>
      <point x="662" y="190" type="line"/>
      <point x="669" y="232" type="line"/>
      <point x="487" y="232" type="line"/>
      <point x="587" y="481" type="line"/>
      <point x="732" y="481" type="line"/>
      <point x="739" y="523" type="line"/>
      <point x="604" y="523" type="line"/>
      <point x="677" y="705" type="line"/>
      <point x="628" y="705" type="line"/>
      <point x="555" y="523" type="line"/>
      <point x="336" y="523" type="line"/>
      <point x="409" y="705" type="line"/>
      <point x="360" y="705" type="line"/>
      <point x="287" y="523" type="line"/>
      <point x="97" y="523" type="line"/>
      <point x="90" y="481" type="line"/>
      <point x="270" y="481" type="line"/>
      <point x="170" y="232" type="line"/>
      <point x="27" y="232" type="line"/>
      <point x="20" y="190" type="line"/>
      <point x="153" y="190" type="line"/>
    </contour>
    <contour>
      <point x="219" y="232" type="line"/>
      <point x="319" y="481" type="line"/>
      <point x="538" y="481" type="line"/>
      <point x="438" y="232" type="line"/>
    </contour>
  </outline>
</glyph>
<glyph name="dollar" format="2">
  <advance width="748"/>
  <unicode hex="0024"/>
  <outline>
    <contour>
      <point x="307" y="-115" type="line"/>
      <point x="353" y="-115" type="line"/>
      <point x="373" y="10" type="line"/>
      <point x="353" y="-4" type="line"/>
      <point x="528" y="-2"/>
      <point x="640" y="60"/>
      <point x="658" y="172" type="curve" smooth="yes"/>
      <point x="676" y="282"/>
      <point x="617" y="334"/>
      <point x="469" y="355" type="curve" smooth="yes"/>
      <point x="327" y="375" type="line" smooth="yes"/>
      <point x="212" y="391"/>
      <point x="169" y="432"/>
      <point x="183" y="515" type="curve" smooth="yes"/>
      <point x="197" y="608"/>
      <point x="297" y="665"/>
      <point x="447" y="665" type="curve" smooth="yes"/>
      <point x="546" y="665"/>
      <point x="613" y="639"/>
      <point x="678" y="575" type="curve"/>
      <point x="704" y="614" type="line"/>
      <point x="650" y="674"/>
      <point x="567" y="706"/>
      <point x="470" y="709" type="curve"/>
      <point x="481" y="696" type="line"/>
      <point x="501" y="820" type="line"/>
      <point x="455" y="820" type="line"/>
      <point x="435" y="696" type="line"/>
      <point x="454" y="709" type="line"/>
      <point x="278" y="709"/>
      <point x="154" y="638"/>
      <point x="135" y="518" type="curve" smooth="yes"/>
      <point x="117" y="407"/>
      <point x="178" y="350"/>
      <point x="319" y="330" type="curve" smooth="yes"/>
      <point x="463" y="310" type="line" smooth="yes"/>
      <point x="583" y="293"/>
      <point x="624" y="256"/>
      <point x="611" y="174" type="curve" smooth="yes"/>
      <point x="597" y="88"/>
      <point x="504" y="40"/>
      <point x="351" y="40" type="curve" smooth="yes"/>
      <point x="231" y="40"/>
      <point x="154" y="64"/>
      <point x="78" y="125" type="curve"/>
      <point x="52" y="86" type="line"/>
      <point x="119" y="28"/>
      <point x="218" y="-3"/>
      <point x="338" y="-4" type="curve"/>
      <point x="326" y="9" type="line"/>
    </contour>
  </outline>
</glyph>
<glyph name="percent" format="2">
  <advance width="1133"/>
  <unicode hex="0025"/>
  <outline>
    <contour>
      <point x="284" y="-23" type="line"/>
      <point x="916" y="703" type="line"/>
      <point x="884" y="727" type="line"/>
      <point x="252" y="1" type="line"/>
    </contour>
    <contour>
      <point x="294" y="282" type="curve" smooth="yes"/>
      <point x="413" y="282"/>
      <point x="500" y="357"/>
      <point x="521" y="487" type="curve" smooth="yes"/>
      <point x="543" y="627"/>
      <point x="481" y="712"/>
      <point x="352" y="712" type="curve" smooth="yes"/>
      <point x="233" y="712"/>
      <point x="145" y="637"/>
      <point x="124" y="507" type="curve" smooth="yes"/>
      <point x="102" y="367"/>
      <point x="165" y="282"/>
    </contour>
    <contour>
      <point x="295" y="320" type="curve" smooth="yes"/>
      <point x="199" y="320"/>
      <point x="151" y="384"/>
      <point x="169" y="497" type="curve" smooth="yes"/>
      <point x="187" y="610"/>
      <point x="255" y="674"/>
      <point x="351" y="674" type="curve" smooth="yes"/>
      <point x="447" y="674"/>
      <point x="495" y="610"/>
      <point x="477" y="497" type="curve" smooth="yes"/>
      <point x="459" y="384"/>
      <point x="391" y="320"/>
    </contour>
    <contour>
      <point x="817" y="-8" type="curve" smooth="yes"/>
      <point x="936" y="-8"/>
      <point x="1023" y="67"/>
      <point x="1044" y="197" type="curve" smooth="yes"/>
      <point x="1066" y="337"/>
      <point x="1004" y="422"/>
      <point x="875" y="422" type="curve" smooth="yes"/>
      <point x="756" y="422"/>
      <point x="668" y="347"/>
      <point x="647" y="217" type="curve" smooth="yes"/>
      <point x="625" y="77"/>
      <point x="688" y="-8"/>
    </contour>
    <contour>
      <point x="818" y="30" type="curve" smooth="yes"/>
      <point x="722" y="30"/>
      <point x="674" y="94"/>
      <point x="692" y="207" type="curve" smooth="yes"/>
      <point x="710" y="320"/>
      <point x="778" y="384"/>
      <point x="874" y="384" type="curve" smooth="yes"/>
      <point x="970" y="384"/>
      <point x="1018" y="320"/>
      <point x="1000" y="207" type="curve" smooth="yes"/>
      <point x="982" y="94"/>
      <point x="914" y="30"/>
    </contour>
  </outline>
</glyph>
<glyph name="ampersand" format="2">
  <advance width="817"/>
  <unicode hex="0026"/>
  <outline>
    <contour>
      <point x="290" y="-8" type="curve" smooth="yes"/>
      <point x="410" y="-8"/>
      <point x="515" y="34"/>
      <point x="596" y="112" type="curve"/>
      <point x="585" y="112" type="line"/>
      <point x="686" y="0" type="line"/>
      <point x="742" y="0" type="line"/>
      <point x="612" y="143" type="line"/>
      <point x="612" y="129" type="line"/>
      <point x="675" y="198"/>
      <point x="721" y="292"/>
      <point x="745" y="405" type="curve"/>
      <point x="699" y="405" type="line"/>
      <point x="679" y="302"/>
      <point x="641" y="218"/>
      <point x="586" y="157" type="curve"/>
      <point x="599" y="157" type="line"/>
      <point x="381" y="395" type="line"/>
      <point x="378" y="383" type="line"/>
      <point x="506" y="440"/>
      <point x="576" y="502"/>
      <point x="587" y="573" type="curve" smooth="yes"/>
      <point x="599" y="654"/>
      <point x="542" y="713"/>
      <point x="436" y="713" type="curve" smooth="yes"/>
      <point x="337" y="713"/>
      <point x="258" y="661"/>
      <point x="244" y="578" type="curve" smooth="yes"/>
      <point x="232" y="501"/>
      <point x="280" y="447"/>
      <point x="330" y="392" type="curve"/>
      <point x="335" y="403" type="line"/>
      <point x="293" y="383" type="line" smooth="yes"/>
      <point x="190" y="334"/>
      <point x="84" y="274"/>
      <point x="68" y="173" type="curve" smooth="yes"/>
      <point x="51" y="61"/>
      <point x="132" y="-8"/>
    </contour>
    <contour>
      <point x="290" y="32" type="curve" smooth="yes"/>
      <point x="161" y="32"/>
      <point x="100" y="79"/>
      <point x="113" y="163" type="curve" smooth="yes"/>
      <point x="128" y="260"/>
      <point x="222" y="307"/>
      <point x="318" y="353" type="curve" smooth="yes"/>
      <point x="362" y="374" type="line"/>
      <point x="345" y="376" type="line"/>
      <point x="569" y="128" type="line"/>
      <point x="569" y="139" type="line"/>
      <point x="499" y="69"/>
      <point x="404" y="32"/>
    </contour>
    <contour>
      <point x="435" y="675" type="curve" smooth="yes"/>
      <point x="511" y="675"/>
      <point x="553" y="635"/>
      <point x="543" y="576" type="curve" smooth="yes"/>
      <point x="534" y="513"/>
      <point x="491" y="478"/>
      <point x="359" y="415" type="curve"/>
      <point x="365" y="413" type="line"/>
      <point x="310" y="473"/>
      <point x="279" y="514"/>
      <point x="288" y="569" type="curve" smooth="yes"/>
      <point x="298" y="633"/>
      <point x="357" y="675"/>
    </contour>
  </outline>
</glyph>
<glyph name="quotesingle" format="2">
  <advance width="242"/>
  <unicode hex="0027"/>
  <outline>
    <contour>
      <point x="138" y="439" type="line"/>
      <point x="168" y="439" type="line"/>
      <point x="224" y="705" type="line"/>
      <point x="166" y="705" type="line"/>
    </contour>
  </outline>
</glyph>
<glyph name="asterisk" format="2">
  <advance width="489"/>
  <unicode hex="002A"/>
  <outline>
    <contour>
      <point x="205" y="340" type="line"/>
      <point x="293" y="498" type="line"/>
      <point x="286" y="498" type="line"/>
      <point x="373" y="341" type="line"/>
      <point x="409" y="361" type="line"/>
      <point x="314" y="517" type="line"/>
      <point x="308" y="510" type="line"/>
      <point x="493" y="505" type="line"/>
      <point x="493" y="546" type="line"/>
      <point x="308" y="542" type="line"/>
      <point x="314" y="536" type="line"/>
      <point x="409" y="691" type="line"/>
      <point x="373" y="712" type="line"/>
      <point x="286" y="554" type="line"/>
      <point x="293" y="554" type="line"/>
      <point x="205" y="712" type="line"/>
      <point x="169" y="691" type="line"/>
      <point x="265" y="536" type="line"/>
      <point x="270" y="542" type="line"/>
      <point x="86" y="546" type="line"/>
      <point x="86" y="505" type="line"/>
      <point x="270" y="510" type="line"/>
      <point x="265" y="517" type="line"/>
      <point x="169" y="361" type="line"/>
    </contour>
  </outline>
</glyph>
<glyph name="hyphen" format="2">
  <advance width="511"/>
  <unicode hex="002D"/>
  <outline>
    <contour>
      <point x="93" y="245" type="line"/>
      <point x="420" y="245" type="line"/>
      <point x="426" y="286" type="line"/>
      <point x="99" y="286" type="line"/>
    </contour>
  </outline>
</glyph>
<glyph name="slash" format="2">
  <advance width="308"/>
  <unicode hex="002F"/>
  <outline>
    <contour>
      <point x="-30" y="-55" type="line"/>
      <point x="408" y="728" type="line"/>
      <point x="371" y="744" type="line"/>
      <point x="-67" y="-39" type="line"/>
    </contour>
  </outline>
</glyph>
<glyph name="zero" format="2">
  <advance width="748"/>
  <unicode hex="0030"/>
  <outline>
    <contour>
      <point x="340" y="-8" type="curve" smooth="yes"/>
      <point x="527" y="-8"/>
      <point x="649" y="109"/>
      <point x="687" y="343" type="curve" smooth="yes"/>
      <point x="723" y="576"/>
      <point x="641" y="713"/>
      <point x="444" y="713" type="curve" smooth="yes"/>
      <point x="257" y="713"/>
      <point x="135" y="596"/>
      <point x="97" y="362" type="curve" smooth="yes"/>
      <point x="61" y="129"/>
      <point x="143" y="-8"/>
    </contour>
    <contour>
      <point x="342" y="35" type="curve" smooth="yes"/>
      <point x="177" y="35"/>
      <point x="111" y="140"/>
      <point x="145" y="352" type="curve" smooth="yes"/>
      <point x="178" y="564"/>
      <point x="277" y="670"/>
      <point x="442" y="670" type="curve" smooth="yes"/>
      <point x="607" y="670"/>
      <point x="672" y="565"/>
      <point x="639" y="353" type="curve" smooth="yes"/>
      <point x="605" y="141"/>
      <point x="507" y="35"/>
    </contour>
  </outline>
</glyph>
<glyph name="one" format="2">
  <advance width="748"/>
  <unicode hex="0031"/>
  <outline>
    <contour>
      <point x="127" y="0" type="line"/>
      <point x="586" y="0" type="line"/>
      <point x="593" y="42" type="line"/>
      <point x="392" y="42" type="line"/>
      <point x="497" y="705" type="line"/>
      <point x="463" y="705" type="line"/>
      <point x="221" y="572" type="line"/>
      <point x="236" y="538" type="line"/>
      <point x="472" y="665" type="line"/>
      <point x="444" y="665" type="line"/>
      <point x="346" y="42" type="line"/>
      <point x="134" y="42" type="line"/>
    </contour>
  </outline>
</glyph>
<glyph name="two" format="2">
  <advance width="748"/>
  <unicode hex="0032"/>
  <outline>
    <contour>
      <point x="85" y="0" type="line"/>
      <point x="623" y="0" type="line"/>
      <point x="630" y="42" type="line"/>
      <point x="149" y="42" type="line"/>
      <point x="151" y="30" type="line"/>
      <point x="494" y="281" type="line" smooth="yes"/>
      <point x="583" y="346"/>
      <point x="652" y="420"/>
      <point x="667" y="513" type="curve" smooth="yes"/>
      <point x="687" y="642"/>
      <point x="608" y="713"/>
      <point x="447" y="713" type="curve" smooth="yes"/>
      <point x="331" y="713"/>
      <point x="227" y="677"/>
      <point x="150" y="612" type="curve"/>
      <point x="174" y="573" type="line"/>
      <point x="255" y="638"/>
      <point x="338" y="669"/>
      <point x="442" y="669" type="curve" smooth="yes"/>
      <point x="571" y="669"/>
      <point x="636" y="622"/>
      <point x="619" y="519" type="curve" smooth="yes"/>
      <point x="605" y="429"/>
      <point x="540" y="368"/>
      <point x="470" y="316" type="curve" smooth="yes"/>
      <point x="91" y="35" type="line"/>
    </contour>
  </outline>
</glyph>
<glyph name="four" format="2">
  <advance width="748"/>
  <unicode hex="0034"/>
  <outline>
    <contour>
      <point x="468" y="0" type="line"/>
      <point x="514" y="0" type="line"/>
      <point x="540" y="165" type="line"/>
      <point x="679" y="165" type="line"/>
      <point x="686" y="207" type="line"/>
      <point x="547" y="207" type="line"/>
      <point x="626" y="705" type="line"/>
      <point x="587" y="705" type="line"/>
      <point x="69" y="201" type="line"/>
      <point x="63" y="165" type="line"/>
      <point x="494" y="165" type="line"/>
    </contour>
    <contour>
      <point x="501" y="207" type="line"/>
      <point x="115" y="207" type="line"/>
      <point x="117" y="193" type="line"/>
      <point x="600" y="660" type="line"/>
      <point x="573" y="660" type="line"/>
    </contour>
  </outline>
</glyph>
<glyph name="five" format="2">
  <advance width="748"/>
  <unicode hex="0035"/>
  <outline>
    <contour>
      <point x="365" y="-8" type="curve" smooth="yes"/>
      <point x="531" y="-8"/>
      <point x="651" y="67"/>
      <point x="674" y="207" type="curve" smooth="yes"/>
      <point x="695" y="341"/>
      <point x="611" y="436"/>
      <point x="449" y="436" type="curve" smooth="yes"/>
      <point x="343" y="436"/>
      <point x="249" y="400"/>
      <point x="194" y="338" type="curve"/>
      <point x="210" y="338" type="line"/>
      <point x="261" y="663" type="line"/>
      <point x="695" y="663" type="line"/>
      <point x="702" y="705" type="line"/>
      <point x="222" y="705" type="line"/>
      <point x="156" y="293" type="line"/>
      <point x="198" y="293" type="line"/>
      <point x="261" y="360"/>
      <point x="339" y="392"/>
      <point x="433" y="392" type="curve" smooth="yes"/>
      <point x="573" y="392"/>
      <point x="643" y="322"/>
      <point x="626" y="213" type="curve" smooth="yes"/>
      <point x="608" y="99"/>
      <point x="510" y="36"/>
      <point x="367" y="36" type="curve" smooth="yes"/>
      <point x="271" y="36"/>
      <point x="194" y="64"/>
      <point x="123" y="125" type="curve"/>
      <point x="98" y="86" type="line"/>
      <point x="159" y="26"/>
      <point x="257" y="-8"/>
    </contour>
  </outline>
</glyph>
<glyph name="seven" format="2">
  <advance width="748"/>
  <unicode hex="0037"/>
  <outline>
    <contour>
      <point x="129" y="0" type="line"/>
      <point x="185" y="0" type="line"/>
      <point x="719" y="671" type="line"/>
      <point x="725" y="705" type="line"/>
      <point x="169" y="705" type="line"/>
      <point x="162" y="663" type="line"/>
      <point x="681" y="663" type="line"/>
      <point x="680" y="691" type="line"/>
    </contour>
  </outline>
</glyph>
<glyph name="eight" format="2">
  <advance width="748"/>
  <unicode hex="0038"/>
  <outline>
    <contour>
      <point x="335" y="-8" type="curve" smooth="yes"/>
      <point x="529" y="-8"/>
      <point x="647" y="63"/>
      <point x="666" y="183" type="curve" smooth="yes"/>
      <point x="682" y="283"/>
      <point x="618" y="347"/>
      <point x="494" y="361" type="curve"/>
      <point x="493" y="352" type="line"/>
      <point x="608" y="371"/>
      <point x="686" y="438"/>
      <point x="699" y="519" type="curve" smooth="yes"/>
      <point x="719" y="643"/>
      <point x="625" y="713"/>
      <point x="449" y="713" type="curve" smooth="yes"/>
      <point x="273" y="713"/>
      <point x="157" y="643"/>
      <point x="139" y="529" type="curve" smooth="yes"/>
      <point x="124" y="438"/>
      <point x="182" y="375"/>
      <point x="291" y="356" type="curve"/>
      <point x="292" y="365" type="line"/>
      <point x="164" y="351"/>
      <point x="80" y="283"/>
      <point x="66" y="193" type="curve" smooth="yes"/>
      <point x="45" y="63"/>
      <point x="141" y="-8"/>
    </contour>
    <contour>
      <point x="342" y="35" type="curve" smooth="yes"/>
      <point x="173" y="35"/>
      <point x="98" y="87"/>
      <point x="114" y="188" type="curve" smooth="yes"/>
      <point x="130" y="288"/>
      <point x="219" y="335"/>
      <point x="389" y="335" type="curve" smooth="yes"/>
      <point x="559" y="335"/>
      <point x="634" y="288"/>
      <point x="618" y="188" type="curve" smooth="yes"/>
      <point x="602" y="87"/>
      <point x="511" y="35"/>
    </contour>
    <contour>
      <point x="396" y="379" type="curve" smooth="yes"/>
      <point x="248" y="379"/>
      <point x="172" y="432"/>
      <point x="187" y="525" type="curve" smooth="yes"/>
      <point x="202" y="618"/>
      <point x="293" y="670"/>
      <point x="442" y="670" type="curve" smooth="yes"/>
      <point x="591" y="670"/>
      <point x="666" y="618"/>
      <point x="651" y="525" type="curve" smooth="yes"/>
      <point x="636" y="432"/>
      <point x="544" y="379"/>
    </contour>
  </outline>
</glyph>
<glyph name="nine" format="2">
  <advance width="748"/>
  <unicode hex="0039"/>
  <outline>
    <contour>
      <point x="287" y="-8" type="curve" smooth="yes"/>
      <point x="492" y="-8"/>
      <point x="635" y="117"/>
      <point x="675" y="364" type="curve" smooth="yes"/>
      <point x="708" y="578"/>
      <point x="619" y="713"/>
      <point x="410" y="713" type="curve" smooth="yes"/>
      <point x="266" y="713"/>
      <point x="139" y="630"/>
      <point x="118" y="500" type="curve" smooth="yes"/>
      <point x="98" y="371"/>
      <point x="192" y="270"/>
      <point x="357" y="270" type="curve" smooth="yes"/>
      <point x="497" y="270"/>
      <point x="621" y="348"/>
      <point x="653" y="472" type="curve"/>
      <point x="644" y="472" type="line"/>
      <point x="627" y="364" type="line" smooth="yes"/>
      <point x="592" y="147"/>
      <point x="471" y="36"/>
      <point x="290" y="36" type="curve" smooth="yes"/>
      <point x="211" y="36"/>
      <point x="137" y="64"/>
      <point x="85" y="120" type="curve"/>
      <point x="61" y="81" type="line"/>
      <point x="105" y="28"/>
      <point x="200" y="-8"/>
    </contour>
    <contour>
      <point x="362" y="314" type="curve" smooth="yes"/>
      <point x="230" y="314"/>
      <point x="149" y="387"/>
      <point x="166" y="492" type="curve" smooth="yes"/>
      <point x="184" y="603"/>
      <point x="286" y="669"/>
      <point x="418" y="669" type="curve" smooth="yes"/>
      <point x="551" y="669"/>
      <point x="631" y="596"/>
      <point x="615" y="492" type="curve" smooth="yes"/>
      <point x="598" y="387"/>
      <point x="495" y="314"/>
    </contour>
  </outline>
</glyph>
<glyph name="colon" format="2">
  <advance width="252"/>
  <unicode hex="003A"/>
  <outline>
    <contour>
      <point x="115" y="410" type="line"/>
      <point x="191" y="410" type="line"/>
      <point x="203" y="484" type="line"/>
      <point x="127" y="484" type="line"/>
    </contour>
    <contour>
      <point x="50" y="0" type="line"/>
      <point x="126" y="0" type="line"/>
      <point x="138" y="74" type="line"/>
      <point x="62" y="74" type="line"/>
    </contour>
  </outline>
</glyph>
<glyph name="semicolon" format="2">
  <advance width="252"/>
  <unicode hex="003B"/>
  <outline>
    <contour>
      <point x="59" y="-100" type="line"/>
      <point x="98" y="-70"/>
      <point x="120" y="-35"/>
      <point x="129" y="17" type="curve" smooth="yes"/>
      <point x="138" y="74" type="line"/>
      <point x="62" y="74" type="line"/>
      <point x="50" y="0" type="line"/>
      <point x="97" y="0" type="line"/>
      <point x="83" y="7" type="line"/>
      <point x="77" y="-29"/>
      <point x="64" y="-50"/>
      <point x="35" y="-77" type="curve"/>
    </contour>
    <contour>
      <point x="115" y="410" type="line"/>
      <point x="191" y="410" type="line"/>
      <point x="203" y="484" type="line"/>
      <point x="127" y="484" type="line"/>
    </contour>
  </outline>
</glyph>
<glyph name="less" format="2">
  <advance width="748"/>
  <unicode hex="003C"/>
  <outline>
    <contour>
      <point x="606" y="33" type="line"/>
      <point x="614" y="79" type="line"/>
      <point x="146" y="297" type="line"/>
      <point x="143" y="273" type="line"/>
      <point x="679" y="491" type="line"/>
      <point x="687" y="541" type="line"/>
      <point x="114" y="307" type="line"/>
      <point x="107" y="267" type="line"/>
    </contour>
  </outline>
</glyph>
<glyph name="equal" format="2">
  <advance width="748"/>
  <unicode hex="003D"/>
  <outline>
    <contour>
      <point x="123" y="367" type="line"/>
      <point x="665" y="367" type="line"/>
      <point x="671" y="407" type="line"/>
      <point x="129" y="407" type="line"/>
    </contour>
    <contour>
      <point x="91" y="167" type="line"/>
      <point x="633" y="167" type="line"/>
      <point x="640" y="207" type="line"/>
      <point x="98" y="207" type="line"/>
    </contour>
  </outline>
</glyph>
<glyph name="greater" format="2">
  <advance width="748"/>
  <unicode hex="003E"/>
  <outline>
    <contour>
      <point x="70" y="33" type="line"/>
      <point x="643" y="267" type="line"/>
      <point x="650" y="307" type="line"/>
      <point x="151" y="541" type="line"/>
      <point x="143" y="495" type="line"/>
      <point x="611" y="277" type="line"/>
      <point x="614" y="301" type="line"/>
      <point x="78" y="83" type="line"/>
    </contour>
  </outline>
</glyph>
<glyph name="A" format="2">
  <advance width="882"/>
  <unicode hex="0041"/>
  <anchor x="403" y="0" name="bottom"/>
  <anchor x="807" y="0" name="ogonek"/>
  <anchor x="515" y="705" name="top"/>
  <outline>
    <contour>
      <point x="2" y="0" type="line"/>
      <point x="57" y="0" type="line"/>
      <point x="200" y="204" type="line"/>
      <point x="159" y="193" type="line"/>
      <point x="705" y="193" type="line"/>
      <point x="678" y="204" type="line"/>
      <point x="757" y="0" type="line"/>
      <point x="804" y="0" type="line"/>
      <point x="538" y="705" type="line"/>
      <point x="492" y="705" type="line"/>
    </contour>
    <contour>
      <point x="510" y="654" type="line"/>
      <point x="512" y="654" type="line"/>
      <point x="669" y="228" type="line"/>
      <point x="692" y="236" type="line"/>
      <point x="184" y="236" type="line"/>
      <point x="217" y="228" type="line"/>
    </contour>
  </outline>
</glyph>
<glyph name="B" format="2">
  <advance width="823"/>
  <unicode hex="0042"/>
  <anchor x="378" y="0" name="bottom"/>
  <anchor x="490" y="705" name="top"/>
  <outline>
    <contour>
      <point x="80" y="0" type="line"/>
      <point x="430" y="0" type="line" smooth="yes"/>
      <point x="609" y="0"/>
      <point x="708" y="57"/>
      <point x="727" y="178" type="curve" smooth="yes"/>
      <point x="746" y="298"/>
      <point x="681" y="354"/>
      <point x="551" y="363" type="curve"/>
      <point x="549" y="349" type="line"/>
      <point x="673" y="367"/>
      <point x="747" y="427"/>
      <point x="761" y="514" type="curve" smooth="yes"/>
      <point x="780" y="640"/>
      <point x="701" y="705"/>
      <point x="526" y="705" type="curve" smooth="yes"/>
      <point x="192" y="705" type="line"/>
    </contour>
    <contour>
      <point x="133" y="42" type="line"/>
      <point x="179" y="336" type="line"/>
      <point x="485" y="336" type="line" smooth="yes"/>
      <point x="586" y="336"/>
      <point x="700" y="319"/>
      <point x="680" y="190" type="curve" smooth="yes"/>
      <point x="657" y="42"/>
      <point x="499" y="42"/>
      <point x="436" y="42" type="curve" smooth="yes"/>
    </contour>
    <contour>
      <point x="186" y="378" type="line"/>
      <point x="231" y="663" type="line"/>
      <point x="517" y="663" type="line" smooth="yes"/>
      <point x="664" y="663"/>
      <point x="728" y="616"/>
      <point x="712" y="520" type="curve" smooth="yes"/>
      <point x="697" y="424"/>
      <point x="620" y="378"/>
      <point x="474" y="378" type="curve" smooth="yes"/>
    </contour>
  </outline>
</glyph>
<glyph name="D" format="2">
  <advance width="896"/>
  <unicode hex="0044"/>
  <anchor x="409" y="0" name="bottom"/>
  <anchor x="230" y="358" name="center"/>
  <anchor x="521" y="705" name="top"/>
  <outline>
    <contour>
      <point x="80" y="0" type="line"/>
      <point x="363" y="0" type="line" smooth="yes"/>
      <point x="637" y="0"/>
      <point x="795" y="114"/>
      <point x="832" y="343" type="curve" smooth="yes"/>
      <point x="869" y="581"/>
      <point x="750" y="705"/>
      <point x="475" y="705" type="curve" smooth="yes"/>
      <point x="192" y="705" type="line"/>
    </contour>
    <contour>
      <point x="133" y="42" type="line"/>
      <point x="231" y="663" type="line"/>
      <point x="464" y="663" type="line" smooth="yes"/>
      <point x="716" y="663"/>
      <point x="817" y="565"/>
      <point x="784" y="353" type="curve" smooth="yes"/>
      <point x="750" y="140"/>
      <point x="618" y="42"/>
      <point x="366" y="42" type="curve" smooth="yes"/>
    </contour>
  </outline>
</glyph>
<glyph name="F" format="2">
  <advance width="660"/>
  <unicode hex="0046"/>
  <anchor x="324" y="0" name="bottom"/>
  <anchor x="436" y="705" name="top"/>
  <outline>
    <contour>
      <point x="80" y="0" type="line"/>
      <point x="126" y="0" type="line"/>
      <point x="179" y="337" type="line"/>
      <point x="621" y="337" type="line"/>
      <point x="628" y="379" type="line"/>
      <point x="186" y="379" type="line"/>
      <point x="231" y="663" type="line"/>
      <point x="698" y="663" type="line"/>
      <point x="705" y="705" type="line"/>
      <point x="192" y="705" type="line"/>
    </contour>
  </outline>
</glyph>
<glyph name="G" format="2">
  <advance width="888"/>
  <unicode hex="0047"/>
  <anchor x="444" y="0" name="bottom"/>
  <anchor x="547" y="705" name="top"/>
  <outline>
    <contour>
      <point x="453" y="-8" type="curve" smooth="yes"/>
      <point x="559" y="-8"/>
      <point x="678" y="13"/>
      <point x="747" y="44" type="curve"/>
      <point x="796" y="356" type="line"/>
      <point x="506" y="356" type="line"/>
      <point x="500" y="314" type="line"/>
      <point x="744" y="314" type="line"/>
      <point x="703" y="57" type="line"/>
      <point x="718" y="80" type="line"/>
      <point x="640" y="51"/>
      <point x="553" y="36"/>
      <point x="464" y="36" type="curve" smooth="yes"/>
      <point x="224" y="36"/>
      <point x="115" y="144"/>
      <point x="147" y="349" type="curve" smooth="yes"/>
      <point x="180" y="553"/>
      <point x="321" y="669"/>
      <point x="537" y="669" type="curve" smooth="yes"/>
      <point x="647" y="669"/>
      <point x="726" y="639"/>
      <point x="793" y="572" type="curve"/>
      <point x="821" y="610" type="line"/>
      <point x="759" y="677"/>
      <point x="662" y="713"/>
      <point x="540" y="713" type="curve" smooth="yes"/>
      <point x="302" y="713"/>
      <point x="136" y="583"/>
      <point x="100" y="361" type="curve" smooth="yes"/>
      <point x="63" y="127"/>
      <point x="190" y="-8"/>
    </contour>
  </outline>
</glyph>
<glyph name="H" format="2">
  <advance width="928"/>
  <unicode hex="0048"/>
  <anchor x="426" y="0" name="bottom"/>
  <anchor x="513" y="547" name="center"/>
  <anchor x="538" y="705" name="top"/>
  <anchor x="104" y="705" name="topleft"/>
  <outline>
    <contour>
      <point x="80" y="0" type="line"/>
      <point x="126" y="0" type="line"/>
      <point x="179" y="337" type="line"/>
      <point x="779" y="337" type="line"/>
      <point x="726" y="0" type="line"/>
      <point x="772" y="0" type="line"/>
      <point x="884" y="705" type="line"/>
      <point x="838" y="705" type="line"/>
      <point x="786" y="379" type="line"/>
      <point x="186" y="379" type="line"/>
      <point x="238" y="705" type="line"/>
      <point x="192" y="705" type="line"/>
    </contour>
  </outline>
</glyph>
<glyph name="L" format="2">
  <advance width="648"/>
  <unicode hex="004C"/>
  <anchor x="339" y="0" name="bottom"/>
  <anchor x="218" y="387" name="center"/>
  <anchor x="496" y="386" name="dot"/>
  <anchor x="215" y="705" name="top"/>
  <anchor x="391" y="705" name="topright"/>
  <outline>
    <contour>
      <point x="80" y="0" type="line"/>
      <point x="598" y="0" type="line"/>
      <point x="605" y="42" type="line"/>
      <point x="133" y="42" type="line"/>
      <point x="238" y="705" type="line"/>
      <point x="192" y="705" type="line"/>
    </contour>
  </outline>
</glyph>
<glyph name="M" format="2">
  <advance width="1044"/>
  <unicode hex="004D"/>
  <anchor x="485" y="0" name="bottom"/>
  <anchor x="597" y="705" name="top"/>
  <outline>
    <contour>
      <point x="82" y="0" type="line"/>
      <point x="127" y="0" type="line"/>
      <point x="231" y="656" type="line"/>
      <point x="213" y="656" type="line"/>
      <point x="486" y="110" type="line"/>
      <point x="523" y="110" type="line"/>
      <point x="972" y="655" type="line"/>
      <point x="945" y="655" type="line"/>
      <point x="841" y="0" type="line"/>
      <point x="886" y="0" type="line"/>
      <point x="998" y="705" type="line"/>
      <point x="957" y="705" type="line"/>
      <point x="489" y="132" type="line"/>
      <point x="522" y="132" type="line"/>
      <point x="236" y="705" type="line"/>
      <point x="194" y="705" type="line"/>
    </contour>
  </outline>
</glyph>
<glyph name="N" format="2">
  <advance width="906"/>
  <unicode hex="004E"/>
  <anchor x="415" y="0" name="bottom"/>
  <anchor x="527" y="705" name="top"/>
  <outline>
    <contour>
      <point x="80" y="0" type="line"/>
      <point x="124" y="0" type="line"/>
      <point x="228" y="659" type="line"/>
      <point x="216" y="659" type="line"/>
      <point x="708" y="0" type="line"/>
      <point x="750" y="0" type="line"/>
      <point x="862" y="705" type="line"/>
      <point x="818" y="705" type="line"/>
      <point x="713" y="46" type="line"/>
      <point x="726" y="46" type="line"/>
      <point x="234" y="705" type="line"/>
      <point x="192" y="705" type="line"/>
    </contour>
  </outline>
</glyph>
<glyph name="O" format="2">
  <advance width="926"/>
  <unicode hex="004F"/>
  <anchor x="424" y="-8" name="Qtail"/>
  <anchor x="425" y="0" name="bottom"/>
  <anchor x="483" y="353" name="center"/>
  <anchor x="494" y="0" name="ogonek"/>
  <anchor x="537" y="705" name="top"/>
  <anchor x="103" y="705" name="topleft"/>
  <anchor x="629" y="705" name="topright"/>
  <outline>
    <contour>
      <point x="429" y="-8" type="curve" smooth="yes"/>
      <point x="660" y="-8"/>
      <point x="827" y="125"/>
      <point x="861" y="343" type="curve" smooth="yes"/>
      <point x="897" y="571"/>
      <point x="774" y="713"/>
      <point x="533" y="713" type="curve" smooth="yes"/>
      <point x="302" y="713"/>
      <point x="135" y="580"/>
      <point x="100" y="362" type="curve" smooth="yes"/>
      <point x="64" y="134"/>
      <point x="188" y="-8"/>
    </contour>
    <contour>
      <point x="431" y="36" type="curve" smooth="yes"/>
      <point x="222" y="36"/>
      <point x="116" y="154"/>
      <point x="148" y="352" type="curve" smooth="yes"/>
      <point x="179" y="550"/>
      <point x="323" y="669"/>
      <point x="531" y="669" type="curve" smooth="yes"/>
      <point x="740" y="669"/>
      <point x="845" y="551"/>
      <point x="814" y="353" type="curve" smooth="yes"/>
      <point x="783" y="155"/>
      <point x="639" y="36"/>
    </contour>
  </outline>
</glyph>
<glyph name="P" format="2">
  <advance width="759"/>
  <unicode hex="0050"/>
  <anchor x="352" y="0" name="bottom"/>
  <anchor x="464" y="705" name="top"/>
  <outline>
    <contour>
      <point x="80" y="0" type="line"/>
      <point x="126" y="0" type="line"/>
      <point x="173" y="295" type="line"/>
      <point x="453" y="295" type="line" smooth="yes"/>
      <point x="635" y="295"/>
      <point x="735" y="358"/>
      <point x="757" y="495" type="curve" smooth="yes"/>
      <point x="780" y="638"/>
      <point x="700" y="705"/>
      <point x="518" y="705" type="curve" smooth="yes"/>
      <point x="192" y="705" type="line"/>
    </contour>
    <contour>
      <point x="179" y="337" type="line"/>
      <point x="231" y="663" type="line"/>
      <point x="512" y="663" type="line" smooth="yes"/>
      <point x="666" y="663"/>
      <point x="727" y="613"/>
      <point x="709" y="500" type="curve" smooth="yes"/>
      <point x="691" y="387"/>
      <point x="613" y="337"/>
      <point x="460" y="337" type="curve" smooth="yes"/>
    </contour>
  </outline>
</glyph>
<glyph name="R" format="2">
  <advance width="807"/>
  <unicode hex="0052"/>
  <anchor x="366" y="0" name="bottom"/>
  <anchor x="478" y="705" name="top"/>
  <outline>
    <contour>
      <point x="80" y="0" type="line"/>
      <point x="126" y="0" type="line"/>
      <point x="175" y="310" type="line"/>
      <point x="391" y="310" type="line" smooth="yes"/>
      <point x="491" y="310"/>
      <point x="524" y="293"/>
      <point x="560" y="226" type="curve" smooth="yes"/>
      <point x="677" y="0" type="line"/>
      <point x="731" y="0" type="line"/>
      <point x="604" y="241" type="line" smooth="yes"/>
      <point x="574" y="300"/>
      <point x="532" y="326"/>
      <point x="468" y="326" type="curve" smooth="yes"/>
      <point x="460" y="326" type="line"/>
      <point x="454" y="313" type="line"/>
      <point x="628" y="313"/>
      <point x="739" y="379"/>
      <point x="759" y="504" type="curve" smooth="yes"/>
      <point x="780" y="638"/>
      <point x="696" y="705"/>
      <point x="518" y="705" type="curve" smooth="yes"/>
      <point x="192" y="705" type="line"/>
    </contour>
    <contour>
      <point x="182" y="352" type="line"/>
      <point x="231" y="663" type="line"/>
      <point x="508" y="663" type="line" smooth="yes"/>
      <point x="663" y="663"/>
      <point x="727" y="613"/>
      <point x="710" y="508" type="curve" smooth="yes"/>
      <point x="694" y="402"/>
      <point x="614" y="352"/>
      <point x="459" y="352" type="curve" smooth="yes"/>
    </contour>
  </outline>
</glyph>
<glyph name="S" format="2">
  <advance width="740"/>
  <unicode hex="0053"/>
  <anchor x="345" y="0" name="bottom"/>
  <anchor x="448" y="705" name="top"/>
  <outline>
    <contour>
      <point x="346" y="-8" type="curve" smooth="yes"/>
      <point x="533" y="-8"/>
      <point x="656" y="51"/>
      <point x="675" y="172" type="curve" smooth="yes"/>
      <point x="693" y="287"/>
      <point x="622" y="333"/>
      <point x="466" y="355" type="curve" smooth="yes"/>
      <point x="324" y="375" type="line" smooth="yes"/>
      <point x="204" y="392"/>
      <point x="160" y="432"/>
      <point x="174" y="515" type="curve" smooth="yes"/>
      <point x="189" y="611"/>
      <point x="291" y="669"/>
      <point x="445" y="669" type="curve" smooth="yes"/>
      <point x="554" y="669"/>
      <point x="628" y="641"/>
      <point x="695" y="575" type="curve"/>
      <point x="721" y="614" type="line"/>
      <point x="661" y="679"/>
      <point x="566" y="713"/>
      <point x="446" y="713" type="curve" smooth="yes"/>
      <point x="271" y="713"/>
      <point x="147" y="645"/>
      <point x="126" y="518" type="curve" smooth="yes"/>
      <point x="109" y="408"/>
      <point x="168" y="351"/>
      <point x="316" y="330" type="curve" smooth="yes"/>
      <point x="460" y="310" type="line" smooth="yes"/>
      <point x="578" y="293"/>
      <point x="642" y="266"/>
      <point x="628" y="174" type="curve" smooth="yes"/>
      <point x="613" y="85"/>
      <point x="514" y="36"/>
      <point x="347" y="36" type="curve" smooth="yes"/>
      <point x="227" y="36"/>
      <point x="149" y="61"/>
      <point x="69" y="125" type="curve"/>
      <point x="43" y="86" type="line"/>
      <point x="113" y="24"/>
      <point x="216" y="-8"/>
    </contour>
  </outline>
</glyph>
<glyph name="U" format="2">
  <advance width="891"/>
  <unicode hex="0055"/>
  <anchor x="407" y="0" name="bottom"/>
  <anchor x="478" y="0" name="ogonek"/>
  <anchor x="519" y="705" name="top"/>
  <anchor x="806" y="705" name="topright"/>
  <outline>
    <contour>
      <point x="411" y="-8" type="curve" smooth="yes"/>
      <point x="628" y="-8"/>
      <point x="753" y="80"/>
      <point x="783" y="268" type="curve" smooth="yes"/>
      <point x="853" y="705" type="line"/>
      <point x="807" y="705" type="line"/>
      <point x="738" y="274" type="line" smooth="yes"/>
      <point x="713" y="114"/>
      <point x="607" y="36"/>
      <point x="413" y="36" type="curve" smooth="yes"/>
      <point x="220" y="36"/>
      <point x="137" y="114"/>
      <point x="162" y="274" type="curve" smooth="yes"/>
      <point x="231" y="705" type="line"/>
      <point x="185" y="705" type="line"/>
      <point x="117" y="278" type="line" smooth="yes"/>
      <point x="87" y="90"/>
      <point x="184" y="-8"/>
    </contour>
  </outline>
</glyph>
<glyph name="V" format="2">
  <advance width="822"/>
  <unicode hex="0056"/>
  <anchor x="373" y="0" name="bottom"/>
  <anchor x="485" y="705" name="top"/>
  <outline>
    <contour>
      <point x="347" y="0" type="line"/>
      <point x="399" y="0" type="line"/>
      <point x="889" y="705" type="line"/>
      <point x="836" y="705" type="line"/>
      <point x="364" y="27" type="line"/>
      <point x="386" y="27" type="line"/>
      <point x="130" y="705" type="line"/>
      <point x="81" y="705" type="line"/>
    </contour>
  </outline>
</glyph>
<glyph name="W" format="2">
  <advance width="1354"/>
  <unicode hex="0057"/>
  <anchor x="641" y="0" name="bottom"/>
  <anchor x="751" y="705" name="top"/>
  <outline>
    <contour>
      <point x="311" y="0" type="line"/>
      <point x="358" y="0" type="line"/>
      <point x="754" y="670" type="line"/>
      <point x="733" y="670" type="line"/>
      <point x="918" y="0" type="line"/>
      <point x="967" y="0" type="line"/>
      <point x="1383" y="705" type="line"/>
      <point x="1330" y="705" type="line"/>
      <point x="928" y="23" type="line"/>
      <point x="956" y="23" type="line"/>
      <point x="769" y="705" type="line"/>
      <point x="724" y="705" type="line"/>
      <point x="321" y="23" type="line"/>
      <point x="353" y="23" type="line"/>
      <point x="168" y="705" type="line"/>
      <point x="119" y="705" type="line"/>
    </contour>
  </outline>
</glyph>
<glyph name="X" format="2">
  <advance width="778"/>
  <unicode hex="0058"/>
  <anchor x="352" y="0" name="bottom"/>
  <anchor x="464" y="705" name="top"/>
  <outline>
    <contour>
      <point x="-12" y="0" type="line"/>
      <point x="52" y="0" type="line"/>
      <point x="417" y="339" type="line"/>
      <point x="397" y="342" type="line"/>
      <point x="653" y="0" type="line"/>
      <point x="709" y="0" type="line"/>
      <point x="430" y="371" type="line"/>
      <point x="432" y="356" type="line"/>
      <point x="807" y="705" type="line"/>
      <point x="743" y="705" type="line"/>
      <point x="408" y="389" type="line"/>
      <point x="419" y="389" type="line"/>
      <point x="178" y="705" type="line"/>
      <point x="122" y="705" type="line"/>
      <point x="386" y="356" type="line"/>
      <point x="384" y="368" type="line"/>
    </contour>
  </outline>
</glyph>
<glyph name="Y" format="2">
  <advance width="710"/>
  <unicode hex="0059"/>
  <anchor x="316" y="0" name="bottom"/>
  <anchor x="428" y="705" name="top"/>
  <anchor x="91" y="705" name="topleft"/>
  <outline>
    <contour>
      <point x="293" y="0" type="line"/>
      <point x="339" y="0" type="line"/>
      <point x="396" y="357" type="line"/>
      <point x="380" y="326" type="line"/>
      <point x="787" y="705" type="line"/>
      <point x="731" y="705" type="line"/>
      <point x="364" y="365" type="line"/>
      <point x="381" y="365" type="line"/>
      <point x="125" y="705" type="line"/>
      <point x="71" y="705" type="line"/>
      <point x="358" y="326" type="line"/>
      <point x="350" y="357" type="line"/>
    </contour>
  </outline>
</glyph>
<glyph name="Z" format="2">
  <advance width="708"/>
  <unicode hex="005A"/>
  <anchor x="333" y="0" name="bottom"/>
  <anchor x="445" y="705" name="top"/>
  <outline>
    <contour>
      <point x="19" y="0" type="line"/>
      <point x="645" y="0" type="line"/>
      <point x="652" y="42" type="line"/>
      <point x="76" y="42" type="line"/>
      <point x="72" y="19" type="line"/>
      <point x="735" y="671" type="line"/>
      <point x="741" y="705" type="line"/>
      <point x="131" y="705" type="line"/>
      <point x="124" y="663" type="line"/>
      <point x="685" y="663" type="line"/>
      <point x="689" y="686" type="line"/>
      <point x="24" y="34" type="line"/>
    </contour>
  </outline>
</glyph>
<glyph name="bracketleft" format="2">
  <advance width="338"/>
  <unicode hex="005B"/>
  <outline>
    <contour>
      <point x="69" y="-180" type="line"/>
      <point x="270" y="-180" type="line"/>
      <point x="277" y="-140" type="line"/>
      <point x="122" y="-140" type="line"/>
      <point x="249" y="665" type="line"/>
      <point x="404" y="665" type="line"/>
      <point x="411" y="705" type="line"/>
      <point x="210" y="705" type="line"/>
    </contour>
  </outline>
</glyph>
<glyph name="backslash" format="2">
  <advance width="308"/>
  <unicode hex="005C"/>
  <outline>
    <contour>
      <point x="244" y="-55" type="line"/>
      <point x="287" y="-39" type="line"/>
      <point x="97" y="744" type="line"/>
      <point x="54" y="728" type="line"/>
    </contour>
  </outline>
</glyph>
<glyph name="bracketright" format="2">
  <advance width="338"/>
  <unicode hex="005D"/>
  <outline>
    <contour>
      <point x="-66" y="-180" type="line"/>
      <point x="135" y="-180" type="line"/>
      <point x="276" y="705" type="line"/>
      <point x="75" y="705" type="line"/>
      <point x="68" y="665" type="line"/>
      <point x="223" y="665" type="line"/>
      <point x="96" y="-140" type="line"/>
      <point x="-59" y="-140" type="line"/>
    </contour>
  </outline>
</glyph>
<glyph name="asciicircum" format="2">
  <advance width="748"/>
  <unicode hex="005E"/>
  <outline>
    <contour>
      <point x="86" y="151" type="line"/>
      <point x="136" y="151" type="line"/>
      <point x="445" y="595" type="line"/>
      <point x="421" y="595" type="line"/>
      <point x="590" y="151" type="line"/>
      <point x="634" y="151" type="line"/>
      <point x="455" y="627" type="line"/>
      <point x="415" y="627" type="line"/>
    </contour>
  </outline>
</glyph>
<glyph name="underscore" format="2">
  <advance width="617"/>
  <unicode hex="005F"/>
  <outline>
    <contour>
      <point x="-23" y="-35" type="line"/>
      <point x="552" y="-35" type="line"/>
      <point x="558" y="0" type="line"/>
      <point x="-17" y="0" type="line"/>
    </contour>
  </outline>
</glyph>
<glyph name="a" format="2">
  <advance width="635"/>
  <unicode hex="0061"/>
  <anchor x="284" y="0" name="bottom"/>
  <anchor x="493" y="0" name="ogonek"/>
  <anchor x="365" y="484" name="top"/>
  <outline>
    <contour>
      <point x="245" y="-8" type="curve" smooth="yes"/>
      <point x="352" y="-8"/>
      <point x="437" y="44"/>
      <point x="482" y="121" type="curve"/>
      <point x="466" y="120" type="line"/>
      <point x="447" y="0" type="line"/>
      <point x="492" y="0" type="line"/>
      <point x="543" y="319" type="line" smooth="yes"/>
      <point x="561" y="435"/>
      <point x="496" y="492"/>
      <point x="363" y="492" type="curve" smooth="yes"/>
      <point x="281" y="492"/>
      <point x="192" y="468"/>
      <point x="131" y="430" type="curve"/>
      <point x="149" y="390" type="line"/>
      <point x="211" y="430"/>
      <point x="284" y="450"/>
      <point x="359" y="450" type="curve" smooth="yes"/>
      <point x="464" y="450"/>
      <point x="511" y="409"/>
      <point x="497" y="320" type="curve" smooth="yes"/>
      <point x="478" y="201" type="line" smooth="yes"/>
      <point x="462" y="102"/>
      <point x="363" y="32"/>
      <point x="249" y="32" type="curve" smooth="yes"/>
      <point x="156" y="32"/>
      <point x="103" y="75"/>
      <point x="113" y="141" type="curve" smooth="yes"/>
      <point x="123" y="205"/>
      <point x="171" y="237"/>
      <point x="383" y="237" type="curve" smooth="yes"/>
      <point x="498" y="237" type="line"/>
      <point x="504" y="276" type="line"/>
      <point x="386" y="276" type="line" smooth="yes"/>
      <point x="151" y="276"/>
      <point x="78" y="231"/>
      <point x="64" y="145" type="curve" smooth="yes"/>
      <point x="51" y="59"/>
      <point x="123" y="-8"/>
    </contour>
  </outline>
</glyph>
<glyph name="c" format="2">
  <advance width="562"/>
  <unicode hex="0063"/>
  <anchor x="301" y="0" name="bottom"/>
  <anchor x="378" y="484" name="top"/>
  <outline>
    <contour>
      <point x="297" y="-8" type="curve" smooth="yes"/>
      <point x="377" y="-8"/>
      <point x="451" y="17"/>
      <point x="509" y="63" type="curve"/>
      <point x="488" y="99" type="line"/>
      <point x="431" y="56"/>
      <point x="367" y="34"/>
      <point x="299" y="34" type="curve" smooth="yes"/>
      <point x="165" y="34"/>
      <point x="94" y="114"/>
      <point x="114" y="242" type="curve" smooth="yes"/>
      <point x="134" y="369"/>
      <point x="231" y="450"/>
      <point x="365" y="450" type="curve" smooth="yes"/>
      <point x="432" y="450"/>
      <point x="488" y="429"/>
      <point x="533" y="386" type="curve"/>
      <point x="560" y="421" type="line"/>
      <point x="517" y="467"/>
      <point x="451" y="492"/>
      <point x="370" y="492" type="curve" smooth="yes"/>
      <point x="212" y="492"/>
      <point x="91" y="398"/>
      <point x="68" y="252" type="curve" smooth="yes"/>
      <point x="43" y="96"/>
      <point x="133" y="-8"/>
    </contour>
  </outline>
</glyph>
<glyph name="d" format="2">
  <advance width="706"/>
  <unicode hex="0064"/>
  <anchor x="317" y="0" name="bottom"/>
  <anchor x="357" y="245" name="center"/>
  <anchor x="566" y="580" name="stroke"/>
  <anchor x="392" y="484" name="top"/>
  <anchor x="737" y="705" name="topright"/>
  <outline>
    <contour>
      <point x="301" y="-8" type="curve" smooth="yes"/>
      <point x="410" y="-8"/>
      <point x="510" y="44"/>
      <point x="550" y="126" type="curve"/>
      <point x="535" y="126" type="line"/>
      <point x="515" y="0" type="line"/>
      <point x="561" y="0" type="line"/>
      <point x="673" y="705" type="line"/>
      <point x="627" y="705" type="line"/>
      <point x="572" y="358" type="line"/>
      <point x="585" y="358" type="line"/>
      <point x="566" y="440"/>
      <point x="484" y="492"/>
      <point x="375" y="492" type="curve" smooth="yes"/>
      <point x="212" y="492"/>
      <point x="91" y="399"/>
      <point x="68" y="252" type="curve" smooth="yes"/>
      <point x="43" y="95"/>
      <point x="133" y="-8"/>
    </contour>
    <contour>
      <point x="301" y="34" type="curve" smooth="yes"/>
      <point x="165" y="34"/>
      <point x="94" y="114"/>
      <point x="114" y="242" type="curve" smooth="yes"/>
      <point x="135" y="370"/>
      <point x="231" y="450"/>
      <point x="367" y="450" type="curve" smooth="yes"/>
      <point x="503" y="450"/>
      <point x="575" y="370"/>
      <point x="554" y="242" type="curve" smooth="yes"/>
      <point x="534" y="114"/>
      <point x="437" y="34"/>
    </contour>
  </outline>
</glyph>
<glyph name="f" format="2">
  <advance width="370"/>
  <unicode hex="0066"/>
  <anchor x="113" y="0" name="bottom"/>
  <anchor x="225" y="705" name="top"/>
  <outline>
    <contour>
      <point x="90" y="0" type="line"/>
      <point x="136" y="0" type="line"/>
      <point x="206" y="445" type="line"/>
      <point x="389" y="445" type="line"/>
      <point x="396" y="484" type="line"/>
      <point x="203" y="484" type="line"/>
      <point x="211" y="474" type="line"/>
      <point x="217" y="512" type="line" smooth="yes"/>
      <point x="233" y="611"/>
      <point x="295" y="659"/>
      <point x="396" y="664" type="curve" smooth="yes"/>
      <point x="454" y="667" type="line"/>
      <point x="454" y="707" type="line"/>
      <point x="417" y="705" type="line" smooth="yes"/>
      <point x="271" y="697"/>
      <point x="191" y="634"/>
      <point x="171" y="511" type="curve" smooth="yes"/>
      <point x="165" y="474" type="line"/>
      <point x="177" y="484" type="line"/>
      <point x="45" y="484" type="line"/>
      <point x="38" y="445" type="line"/>
      <point x="160" y="445" type="line"/>
    </contour>
  </outline>
</glyph>
<glyph name="g" format="2">
  <advance width="706"/>
  <unicode hex="0067"/>
  <anchor x="394" y="484" name="top"/>
  <outline>
    <contour>
      <point x="294" y="-188" type="curve" smooth="yes"/>
      <point x="449" y="-188"/>
      <point x="542" y="-117"/>
      <point x="565" y="23" type="curve" smooth="yes"/>
      <point x="638" y="484" type="line"/>
      <point x="592" y="484" type="line"/>
      <point x="572" y="358" type="line"/>
      <point x="585" y="358" type="line"/>
      <point x="567" y="440"/>
      <point x="485" y="492"/>
      <point x="375" y="492" type="curve" smooth="yes"/>
      <point x="212" y="492"/>
      <point x="92" y="402"/>
      <point x="70" y="262" type="curve" smooth="yes"/>
      <point x="46" y="110"/>
      <point x="136" y="12"/>
      <point x="303" y="12" type="curve" smooth="yes"/>
      <point x="413" y="12"/>
      <point x="513" y="64"/>
      <point x="553" y="146" type="curve"/>
      <point x="538" y="146" type="line"/>
      <point x="518" y="16" type="line" smooth="yes"/>
      <point x="501" y="-89"/>
      <point x="424" y="-146"/>
      <point x="298" y="-146" type="curve" smooth="yes"/>
      <point x="204" y="-146"/>
      <point x="142" y="-132"/>
      <point x="76" y="-76" type="curve"/>
      <point x="52" y="-113" type="line"/>
      <point x="110" y="-167"/>
      <point x="194" y="-188"/>
    </contour>
    <contour>
      <point x="305" y="54" type="curve" smooth="yes"/>
      <point x="169" y="54"/>
      <point x="97" y="130"/>
      <point x="116" y="252" type="curve" smooth="yes"/>
      <point x="135" y="374"/>
      <point x="231" y="450"/>
      <point x="367" y="450" type="curve" smooth="yes"/>
      <point x="503" y="450"/>
      <point x="575" y="374"/>
      <point x="556" y="252" type="curve" smooth="yes"/>
      <point x="537" y="130"/>
      <point x="441" y="54"/>
    </contour>
  </outline>
</glyph>
<glyph name="h" format="2">
  <advance width="687"/>
  <unicode hex="0068"/>
  <anchor x="303" y="0" name="bottom"/>
  <anchor x="342" y="245" name="center"/>
  <anchor x="261" y="353" name="dot"/>
  <anchor x="245" y="580" name="stroke"/>
  <anchor x="416" y="705" name="top"/>
  <anchor x="277" y="705" name="topright"/>
  <outline>
    <contour>
      <point x="69" y="0" type="line"/>
      <point x="115" y="0" type="line"/>
      <point x="156" y="256" type="line" smooth="yes"/>
      <point x="174" y="372"/>
      <point x="266" y="450"/>
      <point x="399" y="450" type="curve" smooth="yes"/>
      <point x="508" y="450"/>
      <point x="562" y="406"/>
      <point x="542" y="279" type="curve" smooth="yes"/>
      <point x="498" y="0" type="line"/>
      <point x="544" y="0" type="line"/>
      <point x="589" y="282" type="line" smooth="yes"/>
      <point x="613" y="432"/>
      <point x="534" y="492"/>
      <point x="405" y="492" type="curve" smooth="yes"/>
      <point x="290" y="492"/>
      <point x="209" y="441"/>
      <point x="160" y="362" type="curve"/>
      <point x="172" y="362" type="line"/>
      <point x="227" y="705" type="line"/>
      <point x="181" y="705" type="line"/>
    </contour>
  </outline>
</glyph>
<glyph name="i" format="2">
  <advance width="260"/>
  <unicode hex="0069"/>
  <anchor x="92" y="0" name="bottom"/>
  <anchor x="115" y="0" name="ogonek"/>
  <outline>
    <contour>
      <point x="152" y="618" type="line"/>
      <point x="227" y="618" type="line"/>
      <point x="237" y="684" type="line"/>
      <point x="162" y="684" type="line"/>
    </contour>
    <contour>
      <point x="69" y="0" type="line"/>
      <point x="115" y="0" type="line"/>
      <point x="192" y="484" type="line"/>
      <point x="146" y="484" type="line"/>
    </contour>
  </outline>
</glyph>
<glyph name="j" format="2">
  <advance width="257"/>
  <unicode hex="006A"/>
  <outline>
    <contour>
      <point x="153" y="618" type="line"/>
      <point x="228" y="618" type="line"/>
      <point x="238" y="684" type="line"/>
      <point x="163" y="684" type="line"/>
    </contour>
    <contour>
      <point x="-143" y="-193" type="line"/>
      <point x="-88" y="-190" type="line" smooth="yes"/>
      <point x="24" y="-184"/>
      <point x="96" y="-122"/>
      <point x="112" y="-19" type="curve" smooth="yes"/>
      <point x="192" y="484" type="line"/>
      <point x="146" y="484" type="line"/>
      <point x="66" y="-21" type="line" smooth="yes"/>
      <point x="53" y="-98"/>
      <point x="0" y="-144"/>
      <point x="-88" y="-149" type="curve" smooth="yes"/>
      <point x="-139" y="-152" type="line"/>
    </contour>
  </outline>
</glyph>
<glyph name="m" format="2">
  <advance width="1044"/>
  <unicode hex="006D"/>
  <anchor x="485" y="0" name="bottom"/>
  <anchor x="562" y="484" name="top"/>
  <outline>
    <contour>
      <point x="71" y="0" type="line"/>
      <point x="117" y="0" type="line"/>
      <point x="158" y="256" type="line" smooth="yes"/>
      <point x="176" y="372"/>
      <point x="261" y="450"/>
      <point x="382" y="450" type="curve" smooth="yes"/>
      <point x="479" y="450"/>
      <point x="526" y="406"/>
      <point x="506" y="279" type="curve" smooth="yes"/>
      <point x="462" y="0" type="line"/>
      <point x="508" y="0" type="line"/>
      <point x="549" y="256" type="line" smooth="yes"/>
      <point x="567" y="372"/>
      <point x="652" y="450"/>
      <point x="773" y="450" type="curve" smooth="yes"/>
      <point x="870" y="450"/>
      <point x="917" y="406"/>
      <point x="897" y="279" type="curve" smooth="yes"/>
      <point x="853" y="0" type="line"/>
      <point x="899" y="0" type="line"/>
      <point x="944" y="282" type="line" smooth="yes"/>
      <point x="968" y="432"/>
      <point x="897" y="492"/>
      <point x="779" y="492" type="curve" smooth="yes"/>
      <point x="670" y="492"/>
      <point x="592" y="441"/>
      <point x="544" y="362" type="curve"/>
      <point x="557" y="362" type="line"/>
      <point x="550" y="451"/>
      <point x="484" y="492"/>
      <point x="388" y="492" type="curve" smooth="yes"/>
      <point x="283" y="492"/>
      <point x="209" y="440"/>
      <point x="161" y="362" type="curve"/>
      <point x="173" y="362" type="line"/>
      <point x="193" y="484" type="line"/>
      <point x="148" y="484" type="line"/>
    </contour>
  </outline>
</glyph>
<glyph name="n" format="2">
  <advance width="687"/>
  <unicode hex="006E"/>
  <anchor x="302" y="0" name="bottom"/>
  <anchor x="379" y="484" name="top"/>
  <outline>
    <contour>
      <point x="69" y="0" type="line"/>
      <point x="115" y="0" type="line"/>
      <point x="156" y="256" type="line" smooth="yes"/>
      <point x="174" y="372"/>
      <point x="266" y="450"/>
      <point x="399" y="450" type="curve" smooth="yes"/>
      <point x="508" y="450"/>
      <point x="562" y="406"/>
      <point x="542" y="279" type="curve" smooth="yes"/>
      <point x="498" y="0" type="line"/>
      <point x="544" y="0" type="line"/>
      <point x="589" y="282" type="line" smooth="yes"/>
      <point x="613" y="432"/>
      <point x="534" y="492"/>
      <point x="405" y="492" type="curve" smooth="yes"/>
      <point x="290" y="492"/>
      <point x="208" y="441"/>
      <point x="159" y="362" type="curve"/>
      <point x="171" y="362" type="line"/>
      <point x="191" y="484" type="line"/>
      <point x="146" y="484" type="line"/>
    </contour>
  </outline>
</glyph>
<glyph name="o" format="2">
  <advance width="668"/>
  <unicode hex="006F"/>
  <anchor x="296" y="0" name="bottom"/>
  <anchor x="330" y="242" name="center"/>
  <anchor x="324" y="0" name="ogonek"/>
  <anchor x="373" y="484" name="top"/>
  <anchor x="429" y="484" name="topright"/>
  <outline>
    <contour>
      <point x="300" y="-8" type="curve" smooth="yes"/>
      <point x="458" y="-8"/>
      <point x="577" y="86"/>
      <point x="600" y="232" type="curve" smooth="yes"/>
      <point x="625" y="388"/>
      <point x="537" y="492"/>
      <point x="369" y="492" type="curve" smooth="yes"/>
      <point x="211" y="492"/>
      <point x="91" y="398"/>
      <point x="68" y="252" type="curve" smooth="yes"/>
      <point x="43" y="96"/>
      <point x="132" y="-8"/>
    </contour>
    <contour>
      <point x="301" y="34" type="curve" smooth="yes"/>
      <point x="164" y="34"/>
      <point x="94" y="114"/>
      <point x="114" y="242" type="curve" smooth="yes"/>
      <point x="135" y="370"/>
      <point x="230" y="450"/>
      <point x="367" y="450" type="curve" smooth="yes"/>
      <point x="504" y="450"/>
      <point x="575" y="370"/>
      <point x="554" y="242" type="curve" smooth="yes"/>
      <point x="534" y="114"/>
      <point x="438" y="34"/>
    </contour>
  </outline>
</glyph>
<glyph name="s" format="2">
  <advance width="585"/>
  <unicode hex="0073"/>
  <anchor x="263" y="0" name="bottom"/>
  <anchor x="339" y="484" name="top"/>
  <outline>
    <contour>
      <point x="267" y="-8" type="curve" smooth="yes"/>
      <point x="391" y="-8"/>
      <point x="482" y="38"/>
      <point x="496" y="124" type="curve" smooth="yes"/>
      <point x="507" y="195"/>
      <point x="463" y="235"/>
      <point x="366" y="250" type="curve" smooth="yes"/>
      <point x="245" y="269" type="line" smooth="yes"/>
      <point x="175" y="280"/>
      <point x="150" y="309"/>
      <point x="157" y="354" type="curve" smooth="yes"/>
      <point x="165" y="407"/>
      <point x="223" y="451"/>
      <point x="333" y="451" type="curve" smooth="yes"/>
      <point x="407" y="451"/>
      <point x="464" y="433"/>
      <point x="504" y="393" type="curve"/>
      <point x="529" y="428" type="line"/>
      <point x="494" y="469"/>
      <point x="424" y="492"/>
      <point x="335" y="492" type="curve" smooth="yes"/>
      <point x="204" y="492"/>
      <point x="120" y="437"/>
      <point x="107" y="357" type="curve" smooth="yes"/>
      <point x="96" y="287"/>
      <point x="136" y="242"/>
      <point x="228" y="227" type="curve" smooth="yes"/>
      <point x="349" y="208" type="line" smooth="yes"/>
      <point x="427" y="196"/>
      <point x="453" y="169"/>
      <point x="446" y="127" type="curve" smooth="yes"/>
      <point x="437" y="70"/>
      <point x="371" y="33"/>
      <point x="268" y="33" type="curve" smooth="yes"/>
      <point x="180" y="33"/>
      <point x="114" y="52"/>
      <point x="69" y="89" type="curve"/>
      <point x="46" y="53" type="line"/>
      <point x="84" y="15"/>
      <point x="165" y="-8"/>
    </contour>
  </outline>
</glyph>
<glyph name="u" format="2">
  <advance width="679"/>
  <unicode hex="0075"/>
  <anchor x="302" y="0" name="bottom"/>
  <anchor x="534" y="0" name="ogonek"/>
  <anchor x="379" y="485" name="top"/>
  <anchor x="564" y="484" name="topright"/>
  <outline>
    <contour>
      <point x="279" y="-8" type="curve" smooth="yes"/>
      <point x="392" y="-8"/>
      <point x="472" y="43"/>
      <point x="520" y="122" type="curve"/>
      <point x="508" y="122" type="line"/>
      <point x="489" y="0" type="line"/>
      <point x="534" y="0" type="line"/>
      <point x="611" y="484" type="line"/>
      <point x="565" y="484" type="line"/>
      <point x="524" y="228" type="line" smooth="yes"/>
      <point x="506" y="112"/>
      <point x="415" y="34"/>
      <point x="284" y="34" type="curve" smooth="yes"/>
      <point x="178" y="34"/>
      <point x="125" y="78"/>
      <point x="145" y="205" type="curve" smooth="yes"/>
      <point x="190" y="484" type="line"/>
      <point x="144" y="484" type="line"/>
      <point x="99" y="202" type="line" smooth="yes"/>
      <point x="75" y="52"/>
      <point x="152" y="-8"/>
    </contour>
  </outline>
</glyph>
<glyph name="v" format="2">
  <advance width="620"/>
  <unicode hex="0076"/>
  <anchor x="272" y="0" name="bottom"/>
  <anchor x="349" y="484" name="top"/>
  <outline>
    <contour>
      <point x="245" y="0" type="line"/>
      <point x="299" y="0" type="line"/>
      <point x="634" y="484" type="line"/>
      <point x="576" y="484" type="line"/>
      <point x="259" y="17" type="line"/>
      <point x="285" y="17" type="line"/>
      <point x="116" y="484" type="line"/>
      <point x="64" y="484" type="line"/>
    </contour>
  </outline>
</glyph>
<glyph name="w" format="2">
  <advance width="1028"/>
  <unicode hex="0077"/>
  <anchor x="476" y="0" name="bottom"/>
  <anchor x="553" y="484" name="top"/>
  <outline>
    <contour>
      <point x="222" y="0" type="line"/>
      <point x="280" y="0" type="line"/>
      <point x="568" y="473" type="line"/>
      <point x="532" y="473" type="line"/>
      <point x="672" y="0" type="line"/>
      <point x="730" y="0" type="line"/>
      <point x="1018" y="484" type="line"/>
      <point x="960" y="484" type="line"/>
      <point x="688" y="18" type="line"/>
      <point x="712" y="18" type="line"/>
      <point x="578" y="484" type="line"/>
      <point x="519" y="484" type="line"/>
      <point x="241" y="18" type="line"/>
      <point x="264" y="18" type="line"/>
      <point x="140" y="484" type="line"/>
      <point x="88" y="484" type="line"/>
    </contour>
  </outline>
</glyph>
<glyph name="x" format="2">
  <advance width="621"/>
  <unicode hex="0078"/>
  <anchor x="273" y="0" name="bottom"/>
  <anchor x="350" y="484" name="top"/>
  <outline>
    <contour>
      <point x="-6" y="0" type="line"/>
      <point x="61" y="0" type="line"/>
      <point x="320" y="225" type="line"/>
      <point x="303" y="225" type="line"/>
      <point x="488" y="0" type="line"/>
      <point x="548" y="0" type="line"/>
      <point x="332" y="260" type="line"/>
      <point x="333" y="239" type="line"/>
      <point x="615" y="484" type="line"/>
      <point x="548" y="484" type="line"/>
      <point x="305" y="272" type="line"/>
      <point x="323" y="272" type="line"/>
      <point x="150" y="484" type="line"/>
      <point x="91" y="484" type="line"/>
      <point x="296" y="236" type="line"/>
      <point x="295" y="264" type="line"/>
    </contour>
  </outline>
</glyph>
<glyph name="y" format="2">
  <advance width="620"/>
  <unicode hex="0079"/>
  <anchor x="419" y="0" name="bottom"/>
  <anchor x="349" y="484" name="top"/>
  <outline>
    <contour>
      <point x="118" y="-180" type="line"/>
      <point x="175" y="-180" type="line"/>
      <point x="634" y="484" type="line"/>
      <point x="576" y="484" type="line"/>
      <point x="261" y="21" type="line"/>
      <point x="283" y="21" type="line"/>
      <point x="116" y="484" type="line"/>
      <point x="64" y="484" type="line"/>
      <point x="254" y="-23" type="line"/>
      <point x="250" y="9" type="line"/>
    </contour>
  </outline>
</glyph>
<glyph name="z" format="2">
  <advance width="558"/>
  <unicode hex="007A"/>
  <anchor x="251" y="0" name="bottom"/>
  <anchor x="328" y="484" name="top"/>
  <outline>
    <contour>
      <point x="34" y="0" type="line"/>
      <point x="482" y="0" type="line"/>
      <point x="488" y="39" type="line"/>
      <point x="90" y="39" type="line"/>
      <point x="87" y="22" type="line"/>
      <point x="540" y="452" type="line"/>
      <point x="545" y="484" type="line"/>
      <point x="111" y="484" type="line"/>
      <point x="104" y="445" type="line"/>
      <point x="488" y="445" type="line"/>
      <point x="491" y="462" type="line"/>
      <point x="39" y="32" type="line"/>
    </contour>
  </outline>
</glyph>
<glyph name="braceleft" format="2">
  <advance width="384"/>
  <unicode hex="007B"/>
  <outline>
    <contour>
      <point x="214" y="-180" type="curve" smooth="yes"/>
      <point x="316" y="-180" type="line"/>
      <point x="323" y="-140" type="line"/>
      <point x="224" y="-140" type="line" smooth="yes"/>
      <point x="189" y="-140"/>
      <point x="171" y="-121"/>
      <point x="176" y="-88" type="curve" smooth="yes"/>
      <point x="216" y="164" type="line" smooth="yes"/>
      <point x="225" y="224"/>
      <point x="188" y="265"/>
      <point x="125" y="265" type="curve"/>
      <point x="124" y="261" type="line"/>
      <point x="187" y="261"/>
      <point x="238" y="302"/>
      <point x="247" y="362" type="curve" smooth="yes"/>
      <point x="287" y="613" type="line" smooth="yes"/>
      <point x="292" y="646"/>
      <point x="316" y="665"/>
      <point x="351" y="665" type="curve" smooth="yes"/>
      <point x="450" y="665" type="line"/>
      <point x="457" y="705" type="line"/>
      <point x="355" y="705" type="line" smooth="yes"/>
      <point x="292" y="705"/>
      <point x="250" y="672"/>
      <point x="241" y="612" type="curve" smooth="yes"/>
      <point x="202" y="365" type="line" smooth="yes"/>
      <point x="192" y="303"/>
      <point x="156" y="286"/>
      <point x="93" y="283" type="curve" smooth="yes"/>
      <point x="70" y="282" type="line"/>
      <point x="64" y="244" type="line"/>
      <point x="86" y="243" type="line" smooth="yes"/>
      <point x="155" y="240"/>
      <point x="178" y="216"/>
      <point x="169" y="161" type="curve" smooth="yes"/>
      <point x="130" y="-87" type="line" smooth="yes"/>
      <point x="121" y="-147"/>
      <point x="151" y="-180"/>
    </contour>
  </outline>
</glyph>
<glyph name="exclamdown" format="2">
  <advance width="252"/>
  <unicode hex="00A1"/>
  <outline>
    <contour>
      <point x="29" y="-180" type="line"/>
      <point x="89" y="-180" type="line"/>
      <point x="154" y="319" type="line"/>
      <point x="124" y="319" type="line"/>
    </contour>
    <contour>
      <point x="115" y="410" type="line"/>
      <point x="191" y="410" type="line"/>
      <point x="203" y="484" type="line"/>
      <point x="127" y="484" type="line"/>
    </contour>
  </outline>
</glyph>
<glyph name="cent" format="2">
  <advance width="748"/>
  <unicode hex="00A2"/>
  <outline>
    <contour>
      <point x="315" y="-115" type="line"/>
      <point x="361" y="-115" type="line"/>
      <point x="380" y="9" type="line"/>
      <point x="364" y="-6" type="line"/>
      <point x="450" y="-5"/>
      <point x="525" y="20"/>
      <point x="582" y="65" type="curve"/>
      <point x="561" y="101" type="line"/>
      <point x="508" y="58"/>
      <point x="440" y="36"/>
      <point x="364" y="36" type="curve" smooth="yes"/>
      <point x="227" y="36"/>
      <point x="152" y="116"/>
      <point x="172" y="242" type="curve" smooth="yes"/>
      <point x="192" y="368"/>
      <point x="292" y="448"/>
      <point x="429" y="448" type="curve" smooth="yes"/>
      <point x="504" y="448"/>
      <point x="564" y="427"/>
      <point x="606" y="384" type="curve"/>
      <point x="631" y="419" type="line"/>
      <point x="589" y="464"/>
      <point x="522" y="489"/>
      <point x="444" y="490" type="curve"/>
      <point x="453" y="468" type="line"/>
      <point x="475" y="604" type="line"/>
      <point x="429" y="604" type="line"/>
      <point x="407" y="468" type="line"/>
      <point x="430" y="490" type="line"/>
      <point x="269" y="487"/>
      <point x="149" y="394"/>
      <point x="126" y="252" type="curve" smooth="yes"/>
      <point x="102" y="100"/>
      <point x="192" y="-3"/>
      <point x="351" y="-6" type="curve"/>
      <point x="334" y="9" type="line"/>
    </contour>
  </outline>
</glyph>
<glyph name="sterling" format="2">
  <advance width="748"/>
  <unicode hex="00A3"/>
  <outline>
    <contour>
      <point x="29" y="0" type="line"/>
      <point x="645" y="0" type="line"/>
      <point x="652" y="42" type="line"/>
      <point x="223" y="42" type="line"/>
      <point x="269" y="334" type="line"/>
      <point x="511" y="334" type="line"/>
      <point x="517" y="372" type="line"/>
      <point x="275" y="372" type="line"/>
      <point x="297" y="513" type="line" smooth="yes"/>
      <point x="315" y="627"/>
      <point x="387" y="669"/>
      <point x="511" y="669" type="curve" smooth="yes"/>
      <point x="607" y="669"/>
      <point x="674" y="642"/>
      <point x="723" y="583" type="curve"/>
      <point x="750" y="623" type="line"/>
      <point x="698" y="681"/>
      <point x="609" y="713"/>
      <point x="518" y="713" type="curve" smooth="yes"/>
      <point x="366" y="713"/>
      <point x="274" y="653"/>
      <point x="253" y="521" type="curve" smooth="yes"/>
      <point x="229" y="372" type="line"/>
      <point x="88" y="372" type="line"/>
      <point x="82" y="334" type="line"/>
      <point x="223" y="334" type="line"/>
      <point x="177" y="42" type="line"/>
      <point x="36" y="42" type="line"/>
    </contour>
  </outline>
</glyph>
<glyph name="currency" format="2">
  <advance width="748"/>
  <unicode hex="00A4"/>
  <outline>
    <contour>
      <point x="128" y="-22" type="line"/>
      <point x="207" y="53" type="line"/>
      <point x="251" y="18"/>
      <point x="309" y="-3"/>
      <point x="375" y="-3" type="curve" smooth="yes"/>
      <point x="442" y="-3"/>
      <point x="500" y="18"/>
      <point x="544" y="53" type="curve"/>
      <point x="622" y="-22" type="line"/>
      <point x="654" y="11" type="line"/>
      <point x="576" y="85" type="line"/>
      <point x="613" y="128"/>
      <point x="634" y="183"/>
      <point x="634" y="245" type="curve" smooth="yes"/>
      <point x="634" y="306"/>
      <point x="613" y="362"/>
      <point x="577" y="405" type="curve"/>
      <point x="654" y="479" type="line"/>
      <point x="622" y="512" type="line"/>
      <point x="543" y="437" type="line"/>
      <point x="499" y="472"/>
      <point x="441" y="493"/>
      <point x="375" y="493" type="curve" smooth="yes"/>
      <point x="308" y="493"/>
      <point x="251" y="472"/>
      <point x="206" y="437" type="curve"/>
      <point x="128" y="512" type="line"/>
      <point x="96" y="479" type="line"/>
      <point x="173" y="405" type="line"/>
      <point x="137" y="362"/>
      <point x="116" y="306"/>
      <point x="116" y="245" type="curve" smooth="yes"/>
      <point x="116" y="184"/>
      <point x="137" y="128"/>
      <point x="173" y="85" type="curve"/>
      <point x="96" y="11" type="line"/>
    </contour>
    <contour>
      <point x="375" y="37" type="curve" smooth="yes"/>
      <point x="249" y="37"/>
      <point x="163" y="127"/>
      <point x="163" y="245" type="curve" smooth="yes"/>
      <point x="163" y="363"/>
      <point x="249" y="453"/>
      <point x="375" y="453" type="curve" smooth="yes"/>
      <point x="502" y="453"/>
      <point x="587" y="363"/>
      <point x="587" y="245" type="curve" smooth="yes"/>
      <point x="587" y="127"/>
      <point x="502" y="37"/>
    </contour>
  </outline>
</glyph>
<glyph name="brokenbar" format="2">
  <advance width="292"/>
  <unicode hex="00A6"/>
  <outline>
    <contour>
      <point x="144" y="372" type="line"/>
      <point x="190" y="372" type="line"/>
      <point x="243" y="705" type="line"/>
      <point x="197" y="705" type="line"/>
    </contour>
    <contour>
      <point x="56" y="-180" type="line"/>
      <point x="102" y="-180" type="line"/>
      <point x="155" y="153" type="line"/>
      <point x="109" y="153" type="line"/>
    </contour>
  </outline>
</glyph>
<glyph name="section" format="2">
  <advance width="642"/>
  <unicode hex="00A7"/>
  <outline>
    <contour>
      <point x="231" y="-188" type="curve" smooth="yes"/>
      <point x="375" y="-188"/>
      <point x="479" y="-127"/>
      <point x="495" y="-14" type="curve" smooth="yes"/>
      <point x="499" y="15"/>
      <point x="497" y="40"/>
      <point x="488" y="66" type="curve"/>
      <point x="480" y="51" type="line"/>
      <point x="534" y="86"/>
      <point x="568" y="135"/>
      <point x="575" y="177" type="curve" smooth="yes"/>
      <point x="588" y="262"/>
      <point x="551" y="303"/>
      <point x="424" y="356" type="curve" smooth="yes"/>
      <point x="288" y="412" type="line" smooth="yes"/>
      <point x="228" y="437"/>
      <point x="194" y="480"/>
      <point x="204" y="541" type="curve" smooth="yes"/>
      <point x="217" y="622"/>
      <point x="294" y="671"/>
      <point x="411" y="671" type="curve" smooth="yes"/>
      <point x="488" y="671"/>
      <point x="563" y="646"/>
      <point x="604" y="607" type="curve"/>
      <point x="630" y="643" type="line"/>
      <point x="589" y="686"/>
      <point x="509" y="712"/>
      <point x="418" y="712" type="curve" smooth="yes"/>
      <point x="274" y="712"/>
      <point x="170" y="651"/>
      <point x="154" y="538" type="curve" smooth="yes"/>
      <point x="150" y="509"/>
      <point x="152" y="484"/>
      <point x="161" y="458" type="curve"/>
      <point x="169" y="473" type="line"/>
      <point x="113" y="437"/>
      <point x="81" y="389"/>
      <point x="74" y="347" type="curve" smooth="yes"/>
      <point x="60" y="262"/>
      <point x="98" y="221"/>
      <point x="225" y="168" type="curve" smooth="yes"/>
      <point x="369" y="108" type="line" smooth="yes"/>
      <point x="421" y="87"/>
      <point x="455" y="44"/>
      <point x="445" y="-17" type="curve" smooth="yes"/>
      <point x="432" y="-98"/>
      <point x="355" y="-147"/>
      <point x="238" y="-147" type="curve" smooth="yes"/>
      <point x="152" y="-147"/>
      <point x="74" y="-123"/>
      <point x="30" y="-83" type="curve"/>
      <point x="4" y="-119" type="line"/>
      <point x="47" y="-163"/>
      <point x="129" y="-188"/>
    </contour>
    <contour>
      <point x="120" y="347" type="curve" smooth="yes"/>
      <point x="126" y="386"/>
      <point x="150" y="418"/>
      <point x="192" y="442" type="curve"/>
      <point x="169" y="443" type="line"/>
      <point x="192" y="409"/>
      <point x="242" y="381"/>
      <point x="306" y="355" type="curve" smooth="yes"/>
      <point x="399" y="317" type="line" smooth="yes"/>
      <point x="509" y="272"/>
      <point x="539" y="239"/>
      <point x="529" y="177" type="curve" smooth="yes"/>
      <point x="523" y="138"/>
      <point x="499" y="106"/>
      <point x="457" y="82" type="curve"/>
      <point x="480" y="81" type="line"/>
      <point x="457" y="115"/>
      <point x="407" y="143"/>
      <point x="343" y="169" type="curve" smooth="yes"/>
      <point x="250" y="207" type="line" smooth="yes"/>
      <point x="141" y="252"/>
      <point x="110" y="285"/>
    </contour>
  </outline>
</glyph>
<glyph name="copyright" format="2">
  <advance width="1011"/>
  <unicode hex="00A9"/>
  <outline>
    <contour>
      <point x="523" y="-8" type="curve" smooth="yes"/>
      <point x="789" y="-8"/>
      <point x="970" y="138"/>
      <point x="970" y="353" type="curve" smooth="yes"/>
      <point x="970" y="567"/>
      <point x="789" y="713"/>
      <point x="523" y="713" type="curve" smooth="yes"/>
      <point x="257" y="713"/>
      <point x="76" y="567"/>
      <point x="76" y="352" type="curve" smooth="yes"/>
      <point x="76" y="138"/>
      <point x="257" y="-8"/>
    </contour>
    <contour>
      <point x="528" y="137" type="curve" smooth="yes"/>
      <point x="603" y="137"/>
      <point x="667" y="157"/>
      <point x="712" y="195" type="curve"/>
      <point x="686" y="227" type="line"/>
      <point x="640" y="191"/>
      <point x="598" y="177"/>
      <point x="533" y="177" type="curve" smooth="yes"/>
      <point x="400" y="177"/>
      <point x="331" y="238"/>
      <point x="331" y="354" type="curve" smooth="yes"/>
      <point x="331" y="469"/>
      <point x="400" y="528"/>
      <point x="535" y="528" type="curve" smooth="yes"/>
      <point x="601" y="528"/>
      <point x="643" y="514"/>
      <point x="686" y="478" type="curve"/>
      <point x="712" y="510" type="line"/>
      <point x="667" y="548"/>
      <point x="603" y="568"/>
      <point x="526" y="568" type="curve" smooth="yes"/>
      <point x="374" y="568"/>
      <point x="285" y="489"/>
      <point x="285" y="355" type="curve" smooth="yes"/>
      <point x="285" y="219"/>
      <point x="377" y="137"/>
    </contour>
    <contour>
      <point x="523" y="29" type="curve" smooth="yes"/>
      <point x="280" y="29"/>
      <point x="117" y="159"/>
      <point x="117" y="352" type="curve" smooth="yes"/>
      <point x="117" y="545"/>
      <point x="281" y="676"/>
      <point x="523" y="676" type="curve" smooth="yes"/>
      <point x="766" y="676"/>
      <point x="929" y="546"/>
      <point x="929" y="353" type="curve" smooth="yes"/>
      <point x="929" y="160"/>
      <point x="765" y="29"/>
    </contour>
  </outline>
</glyph>
<glyph name="ordfeminine" format="2">
  <advance width="391"/>
  <unicode hex="00AA"/>
  <outline>
    <contour>
      <point x="199" y="413" type="curve" smooth="yes"/>
      <point x="253" y="413"/>
      <point x="300" y="433"/>
      <point x="333" y="471" type="curve"/>
      <point x="336" y="471" type="line"/>
      <point x="327" y="418" type="line"/>
      <point x="366" y="418" type="line"/>
      <point x="396" y="603" type="line" smooth="yes"/>
      <point x="407" y="677"/>
      <point x="367" y="713"/>
      <point x="276" y="713" type="curve" smooth="yes"/>
      <point x="217" y="713"/>
      <point x="159" y="699"/>
      <point x="121" y="676" type="curve"/>
      <point x="132" y="647" type="line"/>
      <point x="167" y="669"/>
      <point x="215" y="683"/>
      <point x="267" y="683" type="curve" smooth="yes"/>
      <point x="341" y="683"/>
      <point x="366" y="660"/>
      <point x="357" y="604" type="curve" smooth="yes"/>
      <point x="347" y="543" type="line" smooth="yes"/>
      <point x="338" y="487"/>
      <point x="277" y="445"/>
      <point x="205" y="445" type="curve" smooth="yes"/>
      <point x="151" y="445"/>
      <point x="117" y="468"/>
      <point x="123" y="502" type="curve" smooth="yes"/>
      <point x="129" y="542"/>
      <point x="171" y="556"/>
      <point x="291" y="556" type="curve" smooth="yes"/>
      <point x="358" y="556" type="line"/>
      <point x="362" y="584" type="line"/>
      <point x="293" y="584" type="line" smooth="yes"/>
      <point x="153" y="584"/>
      <point x="91" y="561"/>
      <point x="82" y="504" type="curve" smooth="yes"/>
      <point x="73" y="451"/>
      <point x="126" y="413"/>
    </contour>
  </outline>
</glyph>
<glyph name="logicalnot" format="2">
  <advance width="748"/>
  <unicode hex="00AC"/>
  <outline>
    <contour>
      <point x="585" y="151" type="line"/>
      <point x="631" y="151" type="line"/>
      <point x="672" y="410" type="line"/>
      <point x="130" y="410" type="line"/>
      <point x="124" y="370" type="line"/>
      <point x="620" y="370" type="line"/>
    </contour>
  </outline>
</glyph>
<glyph name="registered" format="2">
  <advance width="1011"/>
  <unicode hex="00AE"/>
  <outline>
    <contour>
      <point x="523" y="-8" type="curve" smooth="yes"/>
      <point x="789" y="-8"/>
      <point x="970" y="138"/>
      <point x="970" y="353" type="curve" smooth="yes"/>
      <point x="970" y="567"/>
      <point x="789" y="713"/>
      <point x="523" y="713" type="curve" smooth="yes"/>
      <point x="257" y="713"/>
      <point x="76" y="567"/>
      <point x="76" y="352" type="curve" smooth="yes"/>
      <point x="76" y="138"/>
      <point x="257" y="-8"/>
    </contour>
    <contour>
      <point x="523" y="29" type="curve" smooth="yes"/>
      <point x="280" y="29"/>
      <point x="117" y="159"/>
      <point x="117" y="352" type="curve" smooth="yes"/>
      <point x="117" y="545"/>
      <point x="281" y="676"/>
      <point x="523" y="676" type="curve" smooth="yes"/>
      <point x="766" y="676"/>
      <point x="929" y="546"/>
      <point x="929" y="353" type="curve" smooth="yes"/>
      <point x="929" y="160"/>
      <point x="765" y="29"/>
    </contour>
    <contour>
      <point x="356" y="142" type="line"/>
      <point x="400" y="142" type="line"/>
      <point x="400" y="337" type="line"/>
      <point x="385" y="322" type="line"/>
      <point x="532" y="322" type="line" smooth="yes"/>
      <point x="576" y="322"/>
      <point x="598" y="309"/>
      <point x="615" y="277" type="curve" smooth="yes"/>
      <point x="687" y="142" type="line"/>
      <point x="736" y="142" type="line"/>
      <point x="658" y="286" type="line" smooth="yes"/>
      <point x="638" y="323"/>
      <point x="614" y="337"/>
      <point x="583" y="337" type="curve" smooth="yes"/>
      <point x="556" y="326" type="line"/>
      <point x="666" y="326"/>
      <point x="726" y="369"/>
      <point x="726" y="448" type="curve" smooth="yes"/>
      <point x="726" y="523"/>
      <point x="669" y="563"/>
      <point x="563" y="563" type="curve" smooth="yes"/>
      <point x="356" y="563" type="line"/>
    </contour>
    <contour>
      <point x="400" y="360" type="line"/>
      <point x="400" y="525" type="line"/>
      <point x="561" y="525" type="line" smooth="yes"/>
      <point x="641" y="525"/>
      <point x="680" y="499"/>
      <point x="680" y="443" type="curve" smooth="yes"/>
      <point x="680" y="387"/>
      <point x="641" y="360"/>
      <point x="561" y="360" type="curve" smooth="yes"/>
    </contour>
  </outline>
</glyph>
<glyph name="degree" format="2">
  <advance width="402"/>
  <unicode hex="00B0"/>
  <outline>
    <contour>
      <point x="251" y="405" type="curve" smooth="yes"/>
      <point x="338" y="405"/>
      <point x="404" y="472"/>
      <point x="404" y="559" type="curve" smooth="yes"/>
      <point x="404" y="646"/>
      <point x="338" y="713"/>
      <point x="251" y="713" type="curve" smooth="yes"/>
      <point x="164" y="713"/>
      <point x="98" y="646"/>
      <point x="98" y="559" type="curve" smooth="yes"/>
      <point x="98" y="472"/>
      <point x="164" y="405"/>
    </contour>
    <contour>
      <point x="251" y="447" type="curve" smooth="yes"/>
      <point x="187" y="447"/>
      <point x="144" y="493"/>
      <point x="144" y="559" type="curve" smooth="yes"/>
      <point x="144" y="625"/>
      <point x="187" y="671"/>
      <point x="251" y="671" type="curve" smooth="yes"/>
      <point x="315" y="671"/>
      <point x="358" y="625"/>
      <point x="358" y="559" type="curve" smooth="yes"/>
      <point x="358" y="493"/>
      <point x="315" y="447"/>
    </contour>
  </outline>
</glyph>
<glyph name="plusminus" format="2">
  <advance width="748"/>
  <unicode hex="00B1"/>
  <outline>
    <contour>
      <point x="331" y="114" type="line"/>
      <point x="377" y="114" type="line"/>
      <point x="407" y="303" type="line"/>
      <point x="655" y="303" type="line"/>
      <point x="661" y="343" type="line"/>
      <point x="413" y="343" type="line"/>
      <point x="443" y="532" type="line"/>
      <point x="397" y="532" type="line"/>
      <point x="367" y="343" type="line"/>
      <point x="119" y="343" type="line"/>
      <point x="113" y="303" type="line"/>
      <point x="361" y="303" type="line"/>
    </contour>
    <contour>
      <point x="65" y="0" type="line"/>
      <point x="607" y="0" type="line"/>
      <point x="613" y="40" type="line"/>
      <point x="71" y="40" type="line"/>
    </contour>
  </outline>
</glyph>
<glyph name="paragraph" format="2">
  <advance width="682"/>
  <unicode hex="00B6"/>
  <outline>
    <contour>
      <point x="227" y="-180" type="line"/>
      <point x="273" y="-180" type="line"/>
      <point x="407" y="664" type="line"/>
      <point x="585" y="664" type="line"/>
      <point x="451" y="-180" type="line"/>
      <point x="497" y="-180" type="line"/>
      <point x="638" y="705" type="line"/>
      <point x="369" y="705" type="line" smooth="yes"/>
      <point x="215" y="705"/>
      <point x="124" y="644"/>
      <point x="108" y="529" type="curve" smooth="yes"/>
      <point x="91" y="404"/>
      <point x="166" y="332"/>
      <point x="309" y="332" type="curve"/>
    </contour>
  </outline>
</glyph>
<glyph name="periodcentered" format="2">
  <advance width="252"/>
  <unicode hex="00B7"/>
  <outline>
    <contour>
      <point x="86" y="228" type="line"/>
      <point x="162" y="228" type="line"/>
      <point x="174" y="302" type="line"/>
      <point x="98" y="302" type="line"/>
    </contour>
  </outline>
</glyph>
<glyph name="ordmasculine" format="2">
  <advance width="402"/>
  <unicode hex="00BA"/>
  <outline>
    <contour>
      <point x="229" y="413" type="curve" smooth="yes"/>
      <point x="329" y="413"/>
      <point x="405" y="469"/>
      <point x="419" y="560" type="curve" smooth="yes"/>
      <point x="433" y="651"/>
      <point x="377" y="713"/>
      <point x="272" y="713" type="curve" smooth="yes"/>
      <point x="173" y="713"/>
      <point x="98" y="657"/>
      <point x="84" y="566" type="curve" smooth="yes"/>
      <point x="70" y="475"/>
      <point x="125" y="413"/>
    </contour>
    <contour>
      <point x="233" y="446" type="curve" smooth="yes"/>
      <point x="152" y="446"/>
      <point x="110" y="487"/>
      <point x="122" y="563" type="curve" smooth="yes"/>
      <point x="134" y="639"/>
      <point x="189" y="680"/>
      <point x="270" y="680" type="curve" smooth="yes"/>
      <point x="351" y="680"/>
      <point x="392" y="639"/>
      <point x="380" y="563" type="curve" smooth="yes"/>
      <point x="368" y="487"/>
      <point x="314" y="446"/>
    </contour>
  </outline>
</glyph>
<glyph name="questiondown" format="2">
  <advance width="526"/>
  <unicode hex="00BF"/>
  <outline>
    <contour>
      <point x="190" y="-187" type="curve" smooth="yes"/>
      <point x="297" y="-187"/>
      <point x="407" y="-149"/>
      <point x="480" y="-86" type="curve"/>
      <point x="457" y="-47" type="line"/>
      <point x="373" y="-112"/>
      <point x="288" y="-143"/>
      <point x="193" y="-143" type="curve" smooth="yes"/>
      <point x="84" y="-143"/>
      <point x="31" y="-107"/>
      <point x="42" y="-40" type="curve" smooth="yes"/>
      <point x="49" y="7"/>
      <point x="85" y="50"/>
      <point x="164" y="107" type="curve" smooth="yes"/>
      <point x="271" y="184"/>
      <point x="302" y="240"/>
      <point x="311" y="299" type="curve" smooth="yes"/>
      <point x="315" y="319" type="line"/>
      <point x="285" y="319" type="line"/>
      <point x="279" y="297" type="line" smooth="yes"/>
      <point x="266" y="247"/>
      <point x="239" y="208"/>
      <point x="134" y="133" type="curve" smooth="yes"/>
      <point x="41" y="66"/>
      <point x="2" y="17"/>
      <point x="-7" y="-36" type="curve" smooth="yes"/>
      <point x="-22" y="-132"/>
      <point x="51" y="-187"/>
    </contour>
    <contour>
      <point x="276" y="410" type="line"/>
      <point x="352" y="410" type="line"/>
      <point x="364" y="484" type="line"/>
      <point x="288" y="484" type="line"/>
    </contour>
  </outline>
</glyph>
<glyph name="AE" format="2">
  <advance width="1204"/>
  <unicode hex="00C6"/>
  <anchor x="567" y="0" name="bottom"/>
  <anchor x="677" y="705" name="top"/>
  <outline>
    <contour>
      <point x="-37" y="0" type="line"/>
      <point x="26" y="0" type="line"/>
      <point x="211" y="206" type="line"/>
      <point x="182" y="193" type="line"/>
      <point x="671" y="193" type="line"/>
      <point x="655" y="208" type="line"/>
      <point x="678" y="0" type="line"/>
      <point x="1108" y="0" type="line"/>
      <point x="1115" y="42" type="line"/>
      <point x="696" y="42" type="line"/>
      <point x="716" y="22" type="line"/>
      <point x="681" y="348" type="line"/>
      <point x="664" y="337" type="line"/>
      <point x="1136" y="337" type="line"/>
      <point x="1143" y="379" type="line"/>
      <point x="662" y="379" type="line"/>
      <point x="679" y="366" type="line"/>
      <point x="644" y="687" type="line"/>
      <point x="633" y="663" type="line"/>
      <point x="1213" y="663" type="line"/>
      <point x="1220" y="705" type="line"/>
      <point x="599" y="705" type="line"/>
    </contour>
    <contour>
      <point x="604" y="646" type="line"/>
      <point x="606" y="646" type="line"/>
      <point x="653" y="226" type="line"/>
      <point x="655" y="236" type="line"/>
      <point x="212" y="236" type="line"/>
      <point x="226" y="224" type="line"/>
    </contour>
  </outline>
</glyph>
<glyph name="multiply" format="2">
  <advance width="748"/>
  <unicode hex="00D7"/>
  <outline>
    <contour>
      <point x="130" y="45" type="line"/>
      <point x="377" y="258" type="line"/>
      <point x="556" y="45" type="line"/>
      <point x="590" y="74" type="line"/>
      <point x="409" y="286" type="line"/>
      <point x="657" y="500" type="line"/>
      <point x="633" y="529" type="line"/>
      <point x="385" y="315" type="line"/>
      <point x="203" y="529" type="line"/>
      <point x="173" y="500" type="line"/>
      <point x="352" y="287" type="line"/>
      <point x="106" y="74" type="line"/>
    </contour>
  </outline>
</glyph>
<glyph name="Thorn" format="2">
  <advance width="759"/>
  <unicode hex="00DE"/>
  <anchor x="352" y="0" name="bottom"/>
  <anchor x="464" y="705" name="top"/>
  <outline>
    <contour>
      <point x="80" y="0" type="line"/>
      <point x="126" y="0" type="line"/>
      <point x="151" y="160" type="line"/>
      <point x="431" y="160" type="line" smooth="yes"/>
      <point x="613" y="160"/>
      <point x="714" y="223"/>
      <point x="736" y="360" type="curve" smooth="yes"/>
      <point x="759" y="503"/>
      <point x="678" y="570"/>
      <point x="496" y="570" type="curve" smooth="yes"/>
      <point x="216" y="570" type="line"/>
      <point x="238" y="705" type="line"/>
      <point x="192" y="705" type="line"/>
    </contour>
    <contour>
      <point x="158" y="202" type="line"/>
      <point x="210" y="528" type="line"/>
      <point x="491" y="528" type="line" smooth="yes"/>
      <point x="645" y="528"/>
      <point x="706" y="478"/>
      <point x="688" y="365" type="curve" smooth="yes"/>
      <point x="670" y="252"/>
      <point x="592" y="202"/>
      <point x="439" y="202" type="curve" smooth="yes"/>
    </contour>
  </outline>
</glyph>
<glyph name="germandbls" format="2">
  <advance width="713"/>
  <unicode hex="00DF"/>
  <outline>
    <contour>
      <point x="431" y="-8" type="curve" smooth="yes"/>
      <point x="547" y="-8"/>
      <point x="639" y="40"/>
      <point x="653" y="128" type="curve" smooth="yes"/>
      <point x="667" y="212"/>
      <point x="606" y="248"/>
      <point x="491" y="269" type="curve" smooth="yes"/>
      <point x="396" y="286"/>
      <point x="350" y="304"/>
      <point x="360" y="364" type="curve" smooth="yes"/>
      <point x="366" y="407"/>
      <point x="405" y="428"/>
      <point x="452" y="453" type="curve" smooth="yes"/>
      <point x="524" y="491"/>
      <point x="572" y="531"/>
      <point x="582" y="592" type="curve" smooth="yes"/>
      <point x="594" y="670"/>
      <point x="534" y="713"/>
      <point x="415" y="713" type="curve" smooth="yes"/>
      <point x="261" y="713"/>
      <point x="169" y="652"/>
      <point x="147" y="511" type="curve" smooth="yes"/>
      <point x="66" y="0" type="line"/>
      <point x="112" y="0" type="line"/>
      <point x="193" y="513" type="line" smooth="yes"/>
      <point x="210" y="619"/>
      <point x="285" y="671"/>
      <point x="413" y="671" type="curve" smooth="yes"/>
      <point x="503" y="671"/>
      <point x="543" y="645"/>
      <point x="534" y="590" type="curve" smooth="yes"/>
      <point x="527" y="541"/>
      <point x="482" y="515"/>
      <point x="431" y="488" type="curve" smooth="yes"/>
      <point x="357" y="449"/>
      <point x="319" y="417"/>
      <point x="310" y="364" type="curve" smooth="yes"/>
      <point x="297" y="280"/>
      <point x="356" y="247"/>
      <point x="472" y="226" type="curve" smooth="yes"/>
      <point x="591" y="204"/>
      <point x="611" y="177"/>
      <point x="604" y="131" type="curve" smooth="yes"/>
      <point x="594" y="70"/>
      <point x="526" y="33"/>
      <point x="429" y="33" type="curve" smooth="yes"/>
      <point x="365" y="33"/>
      <point x="299" y="51"/>
      <point x="245" y="96" type="curve"/>
      <point x="220" y="60" type="line"/>
      <point x="265" y="16"/>
      <point x="347" y="-8"/>
    </contour>
  </outline>
</glyph>
<glyph name="ae" format="2">
  <advance width="1063"/>
  <unicode hex="00E6"/>
  <anchor x="478" y="0" name="bottom"/>
  <anchor x="555" y="484" name="top"/>
  <outline>
    <contour>
      <point x="245" y="-8" type="curve" smooth="yes"/>
      <point x="365" y="-8"/>
      <point x="467" y="53"/>
      <point x="516" y="158" type="curve"/>
      <point x="489" y="158" type="line"/>
      <point x="508" y="53"/>
      <point x="596" y="-8"/>
      <point x="728" y="-8" type="curve" smooth="yes"/>
      <point x="828" y="-8"/>
      <point x="921" y="21"/>
      <point x="972" y="66" type="curve"/>
      <point x="953" y="102" type="line"/>
      <point x="891" y="55"/>
      <point x="824" y="34"/>
      <point x="742" y="34" type="curve" smooth="yes"/>
      <point x="588" y="34"/>
      <point x="517" y="108"/>
      <point x="538" y="240" type="curve" smooth="yes"/>
      <point x="539" y="246" type="line" smooth="yes"/>
      <point x="559" y="372"/>
      <point x="659" y="452"/>
      <point x="794" y="452" type="curve" smooth="yes"/>
      <point x="924" y="452"/>
      <point x="986" y="383"/>
      <point x="966" y="260" type="curve"/>
      <point x="990" y="276" type="line"/>
      <point x="524" y="276" type="line"/>
      <point x="518" y="237" type="line"/>
      <point x="1006" y="237" type="line"/>
      <point x="1009" y="260" type="line" smooth="yes"/>
      <point x="1028" y="402"/>
      <point x="952" y="492"/>
      <point x="798" y="492" type="curve" smooth="yes"/>
      <point x="685" y="492"/>
      <point x="588" y="442"/>
      <point x="533" y="356" type="curve"/>
      <point x="550" y="356" type="line"/>
      <point x="551" y="446"/>
      <point x="486" y="492"/>
      <point x="366" y="492" type="curve" smooth="yes"/>
      <point x="280" y="492"/>
      <point x="192" y="468"/>
      <point x="131" y="430" type="curve"/>
      <point x="149" y="390" type="line"/>
      <point x="210" y="429"/>
      <point x="283" y="450"/>
      <point x="359" y="450" type="curve" smooth="yes"/>
      <point x="470" y="450"/>
      <point x="518" y="408"/>
      <point x="504" y="320" type="curve" smooth="yes"/>
      <point x="485" y="201" type="line" smooth="yes"/>
      <point x="469" y="104"/>
      <point x="369" y="32"/>
      <point x="249" y="32" type="curve" smooth="yes"/>
      <point x="156" y="32"/>
      <point x="103" y="75"/>
      <point x="113" y="141" type="curve" smooth="yes"/>
      <point x="125" y="213"/>
      <point x="192" y="237"/>
      <point x="383" y="237" type="curve" smooth="yes"/>
      <point x="498" y="237" type="line"/>
      <point x="504" y="276" type="line"/>
      <point x="386" y="276" type="line" smooth="yes"/>
      <point x="167" y="276"/>
      <point x="79" y="239"/>
      <point x="64" y="145" type="curve" smooth="yes"/>
      <point x="51" y="59"/>
      <point x="123" y="-8"/>
    </contour>
  </outline>
</glyph>
<glyph name="eth" format="2">
  <advance width="665"/>
  <unicode hex="00F0"/>
  <outline>
    <contour>
      <point x="300" y="-8" type="curve" smooth="yes"/>
      <point x="462" y="-8"/>
      <point x="577" y="82"/>
      <point x="601" y="233" type="curve" smooth="yes"/>
      <point x="631" y="426"/>
      <point x="594" y="550"/>
      <point x="463" y="630" type="curve"/>
      <point x="462" y="622" type="line"/>
      <point x="609" y="679" type="line"/>
      <point x="595" y="713" type="line"/>
      <point x="421" y="646" type="line"/>
      <point x="436" y="645" type="line"/>
      <point x="385" y="672"/>
      <point x="323" y="694"/>
      <point x="248" y="713" type="curve"/>
      <point x="232" y="677" type="line"/>
      <point x="292" y="664"/>
      <point x="344" y="647"/>
      <point x="388" y="626" type="curve"/>
      <point x="387" y="633" type="line"/>
      <point x="206" y="563" type="line"/>
      <point x="220" y="529" type="line"/>
      <point x="435" y="612" type="line"/>
      <point x="413" y="613" type="line"/>
      <point x="538" y="543"/>
      <point x="588" y="435"/>
      <point x="562" y="287" type="curve"/>
      <point x="585" y="287" type="line"/>
      <point x="567" y="399"/>
      <point x="491" y="454"/>
      <point x="366" y="454" type="curve" smooth="yes"/>
      <point x="200" y="454"/>
      <point x="86" y="368"/>
      <point x="65" y="233" type="curve" smooth="yes"/>
      <point x="41" y="83"/>
      <point x="134" y="-8"/>
    </contour>
    <contour>
      <point x="301" y="34" type="curve" smooth="yes"/>
      <point x="165" y="34"/>
      <point x="93" y="106"/>
      <point x="111" y="223" type="curve" smooth="yes"/>
      <point x="130" y="340"/>
      <point x="217" y="412"/>
      <point x="361" y="412" type="curve" smooth="yes"/>
      <point x="497" y="412"/>
      <point x="570" y="340"/>
      <point x="551" y="223" type="curve" smooth="yes"/>
      <point x="533" y="106"/>
      <point x="437" y="34"/>
    </contour>
  </outline>
</glyph>
<glyph name="divide" format="2">
  <advance width="748"/>
  <unicode hex="00F7"/>
  <outline>
    <contour>
      <point x="107" y="267" type="line"/>
      <point x="649" y="267" type="line"/>
      <point x="656" y="307" type="line"/>
      <point x="114" y="307" type="line"/>
    </contour>
    <contour>
      <point x="306" y="49" type="line"/>
      <point x="382" y="49" type="line"/>
      <point x="393" y="123" type="line"/>
      <point x="317" y="123" type="line"/>
    </contour>
    <contour>
      <point x="369" y="451" type="line"/>
      <point x="445" y="451" type="line"/>
      <point x="457" y="525" type="line"/>
      <point x="381" y="525" type="line"/>
    </contour>
  </outline>
</glyph>
<glyph name="thorn" format="2">
  <advance width="706"/>
  <unicode hex="00FE"/>
  <anchor x="311" y="0" name="bottom"/>
  <anchor x="388" y="484" name="top"/>
  <outline>
    <contour>
      <point x="40" y="-180" type="line"/>
      <point x="86" y="-180" type="line"/>
      <point x="135" y="126" type="line"/>
      <point x="122" y="126" type="line"/>
      <point x="141" y="44"/>
      <point x="223" y="-8"/>
      <point x="332" y="-8" type="curve" smooth="yes"/>
      <point x="495" y="-8"/>
      <point x="615" y="85"/>
      <point x="638" y="232" type="curve" smooth="yes"/>
      <point x="663" y="389"/>
      <point x="574" y="492"/>
      <point x="406" y="492" type="curve" smooth="yes"/>
      <point x="297" y="492"/>
      <point x="197" y="440"/>
      <point x="157" y="358" type="curve"/>
      <point x="172" y="358" type="line"/>
      <point x="227" y="705" type="line"/>
      <point x="181" y="705" type="line"/>
    </contour>
    <contour>
      <point x="339" y="34" type="curve" smooth="yes"/>
      <point x="203" y="34"/>
      <point x="132" y="114"/>
      <point x="152" y="242" type="curve" smooth="yes"/>
      <point x="173" y="370"/>
      <point x="269" y="450"/>
      <point x="405" y="450" type="curve" smooth="yes"/>
      <point x="541" y="450"/>
      <point x="613" y="370"/>
      <point x="592" y="242" type="curve" smooth="yes"/>
      <point x="572" y="114"/>
      <point x="475" y="34"/>
    </contour>
  </outline>
</glyph>
<glyph name="dcroat" format="2">
  <advance width="706"/>
  <unicode hex="0111"/>
  <outline>
    <contour>
      <point x="301" y="-8" type="curve" smooth="yes"/>
      <point x="410" y="-8"/>
      <point x="510" y="44"/>
      <point x="550" y="126" type="curve"/>
      <point x="535" y="126" type="line"/>
      <point x="515" y="0" type="line"/>
      <point x="561" y="0" type="line"/>
      <point x="650" y="560" type="line"/>
      <point x="769" y="560" type="line"/>
      <point x="775" y="599" type="line"/>
      <point x="656" y="599" type="line"/>
      <point x="673" y="705" type="line"/>
      <point x="627" y="705" type="line"/>
      <point x="610" y="599" type="line"/>
      <point x="362" y="599" type="line"/>
      <point x="356" y="560" type="line"/>
      <point x="604" y="560" type="line"/>
      <point x="572" y="358" type="line"/>
      <point x="585" y="358" type="line"/>
      <point x="566" y="440"/>
      <point x="484" y="492"/>
      <point x="375" y="492" type="curve" smooth="yes"/>
      <point x="212" y="492"/>
      <point x="91" y="399"/>
      <point x="68" y="252" type="curve" smooth="yes"/>
      <point x="43" y="95"/>
      <point x="133" y="-8"/>
    </contour>
    <contour>
      <point x="301" y="34" type="curve" smooth="yes"/>
      <point x="165" y="34"/>
      <point x="94" y="114"/>
      <point x="114" y="242" type="curve" smooth="yes"/>
      <point x="135" y="370"/>
      <point x="231" y="450"/>
      <point x="367" y="450" type="curve" smooth="yes"/>
      <point x="503" y="450"/>
      <point x="575" y="370"/>
      <point x="554" y="242" type="curve" smooth="yes"/>
      <point x="534" y="114"/>
      <point x="437" y="34"/>
    </contour>
  </outline>
</glyph>
<glyph name="Hbar" format="2">
  <advance width="972"/>
  <unicode hex="0126"/>
  <outline>
    <contour>
      <point x="102" y="0" type="line"/>
      <point x="148" y="0" type="line"/>
      <point x="201" y="337" type="line"/>
      <point x="801" y="337" type="line"/>
      <point x="748" y="0" type="line"/>
      <point x="794" y="0" type="line"/>
      <point x="877" y="527" type="line"/>
      <point x="998" y="527" type="line"/>
      <point x="1005" y="567" type="line"/>
      <point x="884" y="567" type="line"/>
      <point x="906" y="705" type="line"/>
      <point x="860" y="705" type="line"/>
      <point x="838" y="567" type="line"/>
      <point x="238" y="567" type="line"/>
      <point x="260" y="705" type="line"/>
      <point x="214" y="705" type="line"/>
      <point x="192" y="567" type="line"/>
      <point x="71" y="567" type="line"/>
      <point x="64" y="527" type="line"/>
      <point x="185" y="527" type="line"/>
    </contour>
    <contour>
      <point x="208" y="379" type="line"/>
      <point x="231" y="527" type="line"/>
      <point x="831" y="527" type="line"/>
      <point x="808" y="379" type="line"/>
    </contour>
  </outline>
</glyph>
<glyph name="hbar" format="2">
  <advance width="687"/>
  <unicode hex="0127"/>
  <outline>
    <contour>
      <point x="69" y="0" type="line"/>
      <point x="115" y="0" type="line"/>
      <point x="158" y="269" type="line" smooth="yes"/>
      <point x="174" y="375"/>
      <point x="269" y="450"/>
      <point x="405" y="450" type="curve" smooth="yes"/>
      <point x="510" y="450"/>
      <point x="562" y="406"/>
      <point x="545" y="294" type="curve" smooth="yes"/>
      <point x="498" y="0" type="line"/>
      <point x="544" y="0" type="line"/>
      <point x="591" y="298" type="line" smooth="yes"/>
      <point x="609" y="415"/>
      <point x="552" y="492"/>
      <point x="412" y="492" type="curve" smooth="yes"/>
      <point x="294" y="492"/>
      <point x="202" y="444"/>
      <point x="155" y="358" type="curve"/>
      <point x="172" y="358" type="line"/>
      <point x="204" y="560" type="line"/>
      <point x="448" y="560" type="line"/>
      <point x="454" y="599" type="line"/>
      <point x="210" y="599" type="line"/>
      <point x="227" y="705" type="line"/>
      <point x="181" y="705" type="line"/>
      <point x="164" y="599" type="line"/>
      <point x="41" y="599" type="line"/>
      <point x="35" y="560" type="line"/>
      <point x="158" y="560" type="line"/>
    </contour>
  </outline>
</glyph>
<glyph name="idotless" format="2">
  <advance width="260"/>
  <unicode hex="0131"/>
  <anchor x="92" y="0" name="bottom"/>
  <anchor x="117" y="0" name="ogonek"/>
  <anchor x="169" y="484" name="top"/>
  <outline>
    <contour>
      <point x="69" y="0" type="line"/>
      <point x="115" y="0" type="line"/>
      <point x="192" y="484" type="line"/>
      <point x="146" y="484" type="line"/>
    </contour>
  </outline>
</glyph>
<glyph name="kgreenlandic" format="2">
  <advance width="575"/>
  <unicode hex="0138"/>
  <anchor x="251" y="0" name="bottom"/>
  <anchor x="328" y="484" name="top"/>
  <outline>
    <contour>
      <point x="69" y="0" type="line"/>
      <point x="115" y="0" type="line"/>
      <point x="152" y="236" type="line"/>
      <point x="154" y="236" type="line"/>
      <point x="465" y="0" type="line"/>
      <point x="538" y="0" type="line"/>
      <point x="182" y="268" type="line"/>
      <point x="187" y="233" type="line"/>
      <point x="580" y="484" type="line"/>
      <point x="501" y="484" type="line"/>
      <point x="158" y="261" type="line"/>
      <point x="156" y="261" type="line"/>
      <point x="192" y="484" type="line"/>
      <point x="146" y="484" type="line"/>
    </contour>
  </outline>
</glyph>
<glyph name="Eng" format="2">
  <advance width="906"/>
  <unicode hex="014A"/>
  <anchor x="415" y="0" name="bottom"/>
  <anchor x="527" y="705" name="top"/>
  <outline>
    <contour>
      <point x="492" y="-193" type="line"/>
      <point x="547" y="-190" type="line" smooth="yes"/>
      <point x="659" y="-184"/>
      <point x="731" y="-122"/>
      <point x="747" y="-19" type="curve" smooth="yes"/>
      <point x="862" y="705" type="line"/>
      <point x="818" y="705" type="line"/>
      <point x="713" y="46" type="line"/>
      <point x="727" y="46" type="line"/>
      <point x="233" y="705" type="line"/>
      <point x="192" y="705" type="line"/>
      <point x="80" y="0" type="line"/>
      <point x="124" y="0" type="line"/>
      <point x="228" y="659" type="line"/>
      <point x="215" y="659" type="line"/>
      <point x="709" y="0" type="line"/>
      <point x="711" y="31" type="line"/>
      <point x="703" y="-21" type="line" smooth="yes"/>
      <point x="690" y="-98"/>
      <point x="636" y="-144"/>
      <point x="547" y="-149" type="curve" smooth="yes"/>
      <point x="496" y="-152" type="line"/>
    </contour>
  </outline>
</glyph>
<glyph name="eng" format="2">
  <advance width="687"/>
  <unicode hex="014B"/>
  <outline>
    <contour>
      <point x="286" y="-193" type="line"/>
      <point x="341" y="-190" type="line" smooth="yes"/>
      <point x="453" y="-184"/>
      <point x="525" y="-122"/>
      <point x="541" y="-19" type="curve" smooth="yes"/>
      <point x="589" y="282" type="line" smooth="yes"/>
      <point x="613" y="432"/>
      <point x="534" y="492"/>
      <point x="405" y="492" type="curve" smooth="yes"/>
      <point x="290" y="492"/>
      <point x="208" y="441"/>
      <point x="159" y="362" type="curve"/>
      <point x="171" y="362" type="line"/>
      <point x="191" y="484" type="line"/>
      <point x="146" y="484" type="line"/>
      <point x="69" y="0" type="line"/>
      <point x="115" y="0" type="line"/>
      <point x="156" y="256" type="line" smooth="yes"/>
      <point x="174" y="372"/>
      <point x="266" y="450"/>
      <point x="399" y="450" type="curve" smooth="yes"/>
      <point x="508" y="450"/>
      <point x="562" y="406"/>
      <point x="542" y="279" type="curve" smooth="yes"/>
      <point x="495" y="-21" type="line" smooth="yes"/>
      <point x="482" y="-98"/>
      <point x="429" y="-144"/>
      <point x="341" y="-149" type="curve" smooth="yes"/>
      <point x="290" y="-152" type="line"/>
    </contour>
  </outline>
</glyph>
<glyph name="OE" format="2">
  <advance width="1288"/>
  <unicode hex="0152"/>
  <anchor x="689" y="0" name="bottom"/>
  <anchor x="801" y="705" name="top"/>
  <outline>
    <contour>
      <point x="473" y="0" type="curve" smooth="yes"/>
      <point x="1192" y="0" type="line"/>
      <point x="1199" y="42" type="line"/>
      <point x="719" y="42" type="line"/>
      <point x="765" y="337" type="line"/>
      <point x="1220" y="337" type="line"/>
      <point x="1227" y="379" type="line"/>
      <point x="772" y="379" type="line"/>
      <point x="817" y="663" type="line"/>
      <point x="1297" y="663" type="line"/>
      <point x="1304" y="705" type="line"/>
      <point x="585" y="705" type="line" smooth="yes"/>
      <point x="311" y="705"/>
      <point x="137" y="591"/>
      <point x="100" y="362" type="curve" smooth="yes"/>
      <point x="63" y="124"/>
      <point x="198" y="0"/>
    </contour>
    <contour>
      <point x="484" y="42" type="line" smooth="yes"/>
      <point x="232" y="42"/>
      <point x="114" y="140"/>
      <point x="148" y="352" type="curve" smooth="yes"/>
      <point x="181" y="565"/>
      <point x="330" y="663"/>
      <point x="582" y="663" type="curve" smooth="yes"/>
      <point x="771" y="663" type="line"/>
      <point x="673" y="42" type="line"/>
    </contour>
  </outline>
</glyph>
<glyph name="oe" format="2">
  <advance width="1127"/>
  <unicode hex="0153"/>
  <anchor x="540" y="0" name="bottom"/>
  <anchor x="617" y="484" name="top"/>
  <outline>
    <contour>
      <point x="300" y="-8" type="curve" smooth="yes"/>
      <point x="424" y="-8"/>
      <point x="527" y="53"/>
      <point x="577" y="158" type="curve"/>
      <point x="552" y="158" type="line"/>
      <point x="567" y="53"/>
      <point x="661" y="-8"/>
      <point x="797" y="-8" type="curve" smooth="yes"/>
      <point x="893" y="-8"/>
      <point x="986" y="21"/>
      <point x="1037" y="66" type="curve"/>
      <point x="1017" y="102" type="line"/>
      <point x="955" y="55"/>
      <point x="888" y="34"/>
      <point x="806" y="34" type="curve" smooth="yes"/>
      <point x="652" y="34"/>
      <point x="580" y="108"/>
      <point x="602" y="240" type="curve" smooth="yes"/>
      <point x="603" y="246" type="line" smooth="yes"/>
      <point x="624" y="372"/>
      <point x="723" y="452"/>
      <point x="858" y="452" type="curve" smooth="yes"/>
      <point x="988" y="452"/>
      <point x="1050" y="383"/>
      <point x="1030" y="260" type="curve"/>
      <point x="1053" y="272" type="line"/>
      <point x="587" y="272" type="line"/>
      <point x="581" y="233" type="line"/>
      <point x="1069" y="233" type="line"/>
      <point x="1073" y="260" type="line" smooth="yes"/>
      <point x="1094" y="401"/>
      <point x="1019" y="492"/>
      <point x="860" y="492" type="curve" smooth="yes"/>
      <point x="738" y="492"/>
      <point x="629" y="429"/>
      <point x="578" y="324" type="curve"/>
      <point x="601" y="324" type="line"/>
      <point x="582" y="429"/>
      <point x="498" y="492"/>
      <point x="369" y="492" type="curve" smooth="yes"/>
      <point x="212" y="492"/>
      <point x="91" y="399"/>
      <point x="68" y="252" type="curve" smooth="yes"/>
      <point x="43" y="95"/>
      <point x="133" y="-8"/>
    </contour>
    <contour>
      <point x="301" y="34" type="curve" smooth="yes"/>
      <point x="165" y="34"/>
      <point x="94" y="113"/>
      <point x="114" y="242" type="curve" smooth="yes"/>
      <point x="134" y="371"/>
      <point x="231" y="450"/>
      <point x="367" y="450" type="curve" smooth="yes"/>
      <point x="503" y="450"/>
      <point x="575" y="371"/>
      <point x="554" y="242" type="curve" smooth="yes"/>
      <point x="533" y="113"/>
      <point x="437" y="34"/>
    </contour>
  </outline>
</glyph>
<glyph name="Bhook" format="2">
  <advance width="949"/>
  <unicode hex="0181"/>
  <outline>
    <contour>
      <point x="206" y="0" type="line"/>
      <point x="556" y="0" type="line" smooth="yes"/>
      <point x="735" y="0"/>
      <point x="834" y="57"/>
      <point x="853" y="178" type="curve" smooth="yes"/>
      <point x="872" y="298"/>
      <point x="807" y="354"/>
      <point x="677" y="363" type="curve"/>
      <point x="675" y="349" type="line"/>
      <point x="800" y="367"/>
      <point x="873" y="427"/>
      <point x="887" y="514" type="curve" smooth="yes"/>
      <point x="907" y="640"/>
      <point x="827" y="705"/>
      <point x="652" y="705" type="curve" smooth="yes"/>
      <point x="283" y="705" type="line" smooth="yes"/>
      <point x="138" y="705"/>
      <point x="66" y="658"/>
      <point x="49" y="552" type="curve" smooth="yes"/>
      <point x="42" y="504" type="line"/>
      <point x="86" y="504" type="line"/>
      <point x="93" y="552" type="line" smooth="yes"/>
      <point x="106" y="630"/>
      <point x="157" y="663"/>
      <point x="268" y="663" type="curve" smooth="yes"/>
      <point x="311" y="663" type="line"/>
    </contour>
    <contour>
      <point x="259" y="42" type="line"/>
      <point x="305" y="336" type="line"/>
      <point x="611" y="336" type="line" smooth="yes"/>
      <point x="712" y="336"/>
      <point x="826" y="319"/>
      <point x="806" y="190" type="curve" smooth="yes"/>
      <point x="791" y="95"/>
      <point x="721" y="42"/>
      <point x="569" y="42" type="curve" smooth="yes"/>
    </contour>
    <contour>
      <point x="312" y="378" type="line"/>
      <point x="357" y="663" type="line"/>
      <point x="643" y="663" type="line" smooth="yes"/>
      <point x="790" y="663"/>
      <point x="854" y="616"/>
      <point x="838" y="520" type="curve" smooth="yes"/>
      <point x="823" y="424"/>
      <point x="746" y="378"/>
      <point x="600" y="378" type="curve" smooth="yes"/>
    </contour>
  </outline>
</glyph>
<glyph name="Dhook" format="2">
  <advance width="1022"/>
  <unicode hex="018A"/>
  <outline>
    <contour>
      <point x="206" y="0" type="line"/>
      <point x="489" y="0" type="line" smooth="yes"/>
      <point x="763" y="0"/>
      <point x="921" y="114"/>
      <point x="958" y="343" type="curve" smooth="yes"/>
      <point x="996" y="581"/>
      <point x="876" y="705"/>
      <point x="601" y="705" type="curve" smooth="yes"/>
      <point x="283" y="705" type="line" smooth="yes"/>
      <point x="138" y="705"/>
      <point x="66" y="658"/>
      <point x="49" y="552" type="curve" smooth="yes"/>
      <point x="42" y="504" type="line"/>
      <point x="86" y="504" type="line"/>
      <point x="93" y="552" type="line" smooth="yes"/>
      <point x="106" y="630"/>
      <point x="157" y="663"/>
      <point x="268" y="663" type="curve" smooth="yes"/>
      <point x="311" y="663" type="line"/>
    </contour>
    <contour>
      <point x="259" y="42" type="line"/>
      <point x="357" y="663" type="line"/>
      <point x="590" y="663" type="line" smooth="yes"/>
      <point x="842" y="663"/>
      <point x="943" y="565"/>
      <point x="910" y="353" type="curve" smooth="yes"/>
      <point x="876" y="140"/>
      <point x="744" y="42"/>
      <point x="492" y="42" type="curve" smooth="yes"/>
    </contour>
  </outline>
</glyph>
<glyph name="Schwa" format="2">
  <advance width="926"/>
  <unicode hex="018F"/>
  <anchor x="420" y="0" name="bottom"/>
  <anchor x="532" y="705" name="top"/>
  <outline>
    <contour>
      <point x="429" y="-8" type="curve" smooth="yes"/>
      <point x="656" y="-8"/>
      <point x="826" y="121"/>
      <point x="862" y="348" type="curve" smooth="yes"/>
      <point x="898" y="579"/>
      <point x="777" y="713"/>
      <point x="513" y="713" type="curve" smooth="yes"/>
      <point x="380" y="713"/>
      <point x="258" y="678"/>
      <point x="167" y="610" type="curve"/>
      <point x="192" y="572" type="line"/>
      <point x="287" y="640"/>
      <point x="386" y="669"/>
      <point x="505" y="669" type="curve" smooth="yes"/>
      <point x="742" y="669"/>
      <point x="847" y="559"/>
      <point x="815" y="358" type="curve" smooth="yes"/>
      <point x="783" y="155"/>
      <point x="640" y="36"/>
      <point x="430" y="36" type="curve" smooth="yes"/>
      <point x="221" y="36"/>
      <point x="115" y="149"/>
      <point x="147" y="353" type="curve"/>
      <point x="131" y="335" type="line"/>
      <point x="815" y="335" type="line"/>
      <point x="822" y="377" type="line"/>
      <point x="103" y="377" type="line"/>
      <point x="98" y="349" type="line" smooth="yes"/>
      <point x="60" y="139"/>
      <point x="189" y="-8"/>
    </contour>
  </outline>
</glyph>
<glyph name="Yhook" format="2">
  <advance width="710"/>
  <unicode hex="01B3"/>
  <outline>
    <contour>
      <point x="293" y="0" type="line"/>
      <point x="339" y="0" type="line"/>
      <point x="396" y="357" type="line"/>
      <point x="380" y="326" type="line"/>
      <point x="689" y="620" type="line" smooth="yes"/>
      <point x="729" y="658"/>
      <point x="764" y="673"/>
      <point x="810" y="673" type="curve" smooth="yes"/>
      <point x="828" y="673"/>
      <point x="843" y="670"/>
      <point x="866" y="664" type="curve"/>
      <point x="873" y="704" type="line"/>
      <point x="848" y="711"/>
      <point x="835" y="713"/>
      <point x="818" y="713" type="curve" smooth="yes"/>
      <point x="759" y="713"/>
      <point x="714" y="694"/>
      <point x="662" y="645" type="curve" smooth="yes"/>
      <point x="368" y="365" type="line"/>
      <point x="385" y="365" type="line"/>
      <point x="129" y="705" type="line"/>
      <point x="71" y="705" type="line"/>
      <point x="358" y="326" type="line"/>
      <point x="350" y="357" type="line"/>
    </contour>
  </outline>
</glyph>
<glyph name="yhook" format="2">
  <advance width="680"/>
  <unicode hex="01B4"/>
  <outline>
    <contour>
      <point x="464" y="319" type="curve" smooth="yes"/>
      <point x="261" y="21" type="line"/>
      <point x="283" y="21" type="line"/>
      <point x="116" y="484" type="line"/>
      <point x="64" y="484" type="line"/>
      <point x="250" y="-13" type="line"/>
      <point x="250" y="9" type="line"/>
      <point x="118" y="-180" type="line"/>
      <point x="175" y="-180" type="line"/>
      <point x="521" y="321" type="line" smooth="yes"/>
      <point x="595" y="428"/>
      <point x="628" y="451"/>
      <point x="690" y="451" type="curve" smooth="yes"/>
      <point x="706" y="451"/>
      <point x="720" y="449"/>
      <point x="733" y="445" type="curve"/>
      <point x="742" y="485" type="line"/>
      <point x="725" y="490"/>
      <point x="708" y="492"/>
      <point x="686" y="492" type="curve" smooth="yes"/>
      <point x="594" y="492"/>
      <point x="551" y="447"/>
    </contour>
  </outline>
</glyph>
<glyph name="gstroke" format="2">
  <advance width="706"/>
  <unicode hex="01E5"/>
  <outline>
    <contour>
      <point x="291" y="-188" type="curve" smooth="yes"/>
      <point x="415" y="-188"/>
      <point x="499" y="-144"/>
      <point x="541" y="-57" type="curve"/>
      <point x="532" y="-62" type="line"/>
      <point x="644" y="-62" type="line"/>
      <point x="650" y="-25" type="line"/>
      <point x="548" y="-25" type="line"/>
      <point x="553" y="-28" type="line"/>
      <point x="558" y="-12"/>
      <point x="562" y="5"/>
      <point x="565" y="23" type="curve" smooth="yes"/>
      <point x="638" y="484" type="line"/>
      <point x="592" y="484" type="line"/>
      <point x="572" y="358" type="line"/>
      <point x="585" y="358" type="line"/>
      <point x="566" y="440"/>
      <point x="484" y="492"/>
      <point x="375" y="492" type="curve" smooth="yes"/>
      <point x="212" y="492"/>
      <point x="93" y="407"/>
      <point x="71" y="272" type="curve" smooth="yes"/>
      <point x="48" y="127"/>
      <point x="139" y="32"/>
      <point x="307" y="32" type="curve" smooth="yes"/>
      <point x="416" y="32"/>
      <point x="516" y="84"/>
      <point x="556" y="166" type="curve"/>
      <point x="541" y="166" type="line"/>
      <point x="518" y="16" type="line" smooth="yes"/>
      <point x="515" y="-1"/>
      <point x="510" y="-16"/>
      <point x="505" y="-30" type="curve"/>
      <point x="513" y="-25" type="line"/>
      <point x="348" y="-25" type="line"/>
      <point x="342" y="-62" type="line"/>
      <point x="494" y="-62" type="line"/>
      <point x="492" y="-57" type="line"/>
      <point x="457" y="-115"/>
      <point x="391" y="-146"/>
      <point x="298" y="-146" type="curve" smooth="yes"/>
      <point x="206" y="-146"/>
      <point x="142" y="-132"/>
      <point x="76" y="-76" type="curve"/>
      <point x="54" y="-113" type="line"/>
      <point x="112" y="-167"/>
      <point x="196" y="-188"/>
    </contour>
    <contour>
      <point x="308" y="74" type="curve" smooth="yes"/>
      <point x="172" y="74"/>
      <point x="99" y="146"/>
      <point x="117" y="262" type="curve" smooth="yes"/>
      <point x="136" y="378"/>
      <point x="231" y="450"/>
      <point x="367" y="450" type="curve" smooth="yes"/>
      <point x="503" y="450"/>
      <point x="576" y="378"/>
      <point x="557" y="262" type="curve" smooth="yes"/>
      <point x="539" y="146"/>
      <point x="444" y="74"/>
    </contour>
  </outline>
</glyph>
<glyph name="bhook" format="2">
  <advance width="706"/>
  <unicode hex="0253"/>
  <outline>
    <contour>
      <point x="335" y="-8" type="curve" smooth="yes"/>
      <point x="493" y="-8"/>
      <point x="615" y="85"/>
      <point x="638" y="232" type="curve" smooth="yes"/>
      <point x="663" y="389"/>
      <point x="572" y="492"/>
      <point x="409" y="492" type="curve" smooth="yes"/>
      <point x="299" y="492"/>
      <point x="200" y="438"/>
      <point x="157" y="355" type="curve"/>
      <point x="171" y="355" type="line"/>
      <point x="204" y="559" type="line" smooth="yes"/>
      <point x="215" y="632"/>
      <point x="265" y="672"/>
      <point x="353" y="672" type="curve" smooth="yes"/>
      <point x="368" y="672"/>
      <point x="378" y="671"/>
      <point x="398" y="666" type="curve"/>
      <point x="411" y="706" type="line"/>
      <point x="394" y="711"/>
      <point x="377" y="713"/>
      <point x="355" y="713" type="curve" smooth="yes"/>
      <point x="244" y="713"/>
      <point x="173" y="657"/>
      <point x="157" y="557" type="curve" smooth="yes"/>
      <point x="69" y="0" type="line"/>
      <point x="115" y="0" type="line"/>
      <point x="135" y="129" type="line"/>
      <point x="123" y="129" type="line"/>
      <point x="145" y="46"/>
      <point x="225" y="-8"/>
    </contour>
    <contour>
      <point x="339" y="34" type="curve" smooth="yes"/>
      <point x="203" y="34"/>
      <point x="132" y="114"/>
      <point x="152" y="242" type="curve" smooth="yes"/>
      <point x="173" y="370"/>
      <point x="269" y="450"/>
      <point x="405" y="450" type="curve" smooth="yes"/>
      <point x="541" y="450"/>
      <point x="613" y="370"/>
      <point x="592" y="242" type="curve" smooth="yes"/>
      <point x="572" y="114"/>
      <point x="475" y="34"/>
    </contour>
  </outline>
</glyph>
<glyph name="dhook" format="2">
  <advance width="706"/>
  <unicode hex="0257"/>
  <outline>
    <contour>
      <point x="301" y="-8" type="curve" smooth="yes"/>
      <point x="410" y="-8"/>
      <point x="510" y="44"/>
      <point x="550" y="126" type="curve"/>
      <point x="535" y="126" type="line"/>
      <point x="515" y="0" type="line"/>
      <point x="561" y="0" type="line"/>
      <point x="650" y="559" type="line" smooth="yes"/>
      <point x="661" y="632"/>
      <point x="711" y="672"/>
      <point x="799" y="672" type="curve" smooth="yes"/>
      <point x="814" y="672"/>
      <point x="824" y="671"/>
      <point x="844" y="666" type="curve"/>
      <point x="857" y="706" type="line"/>
      <point x="840" y="711"/>
      <point x="823" y="713"/>
      <point x="801" y="713" type="curve" smooth="yes"/>
      <point x="690" y="713"/>
      <point x="619" y="657"/>
      <point x="603" y="557" type="curve" smooth="yes"/>
      <point x="572" y="358" type="line"/>
      <point x="585" y="358" type="line"/>
      <point x="566" y="440"/>
      <point x="484" y="492"/>
      <point x="375" y="492" type="curve" smooth="yes"/>
      <point x="212" y="492"/>
      <point x="91" y="399"/>
      <point x="68" y="252" type="curve" smooth="yes"/>
      <point x="43" y="95"/>
      <point x="133" y="-8"/>
    </contour>
    <contour>
      <point x="301" y="34" type="curve" smooth="yes"/>
      <point x="165" y="34"/>
      <point x="94" y="114"/>
      <point x="114" y="242" type="curve" smooth="yes"/>
      <point x="135" y="370"/>
      <point x="231" y="450"/>
      <point x="367" y="450" type="curve" smooth="yes"/>
      <point x="503" y="450"/>
      <point x="575" y="370"/>
      <point x="554" y="242" type="curve" smooth="yes"/>
      <point x="534" y="114"/>
      <point x="437" y="34"/>
    </contour>
  </outline>
</glyph>
<glyph name="schwa" format="2">
  <advance width="647"/>
  <unicode hex="0259"/>
  <outline>
    <contour>
      <point x="268" y="-8" type="curve" smooth="yes"/>
      <point x="434" y="-8"/>
      <point x="557" y="88"/>
      <point x="580" y="236" type="curve" smooth="yes"/>
      <point x="605" y="394"/>
      <point x="509" y="492"/>
      <point x="331" y="492" type="curve" smooth="yes"/>
      <point x="234" y="492"/>
      <point x="141" y="463"/>
      <point x="90" y="418" type="curve"/>
      <point x="111" y="382" type="line"/>
      <point x="173" y="429"/>
      <point x="240" y="450"/>
      <point x="324" y="450" type="curve" smooth="yes"/>
      <point x="479" y="450"/>
      <point x="556" y="376"/>
      <point x="534" y="244" type="curve" smooth="yes"/>
      <point x="533" y="238" type="line" smooth="yes"/>
      <point x="512" y="114"/>
      <point x="412" y="32"/>
      <point x="270" y="32" type="curve" smooth="yes"/>
      <point x="141" y="32"/>
      <point x="78" y="100"/>
      <point x="97" y="224" type="curve"/>
      <point x="75" y="212" type="line"/>
      <point x="549" y="212" type="line"/>
      <point x="555" y="251" type="line"/>
      <point x="59" y="251" type="line"/>
      <point x="54" y="224" type="line" smooth="yes"/>
      <point x="28" y="84"/>
      <point x="115" y="-8"/>
    </contour>
  </outline>
</glyph>
<glyph name="commaturnedmod" format="2">
  <advance width="500"/>
  <unicode hex="02BB"/>
  <anchor x="290" y="484" name="_top"/>
  <anchor x="321" y="685" name="top"/>
  <outline>
    <contour>
      <point x="263" y="570" type="line"/>
      <point x="339" y="570" type="line"/>
      <point x="351" y="644" type="line"/>
      <point x="304" y="644" type="line"/>
      <point x="318" y="637" type="line"/>
      <point x="324" y="673"/>
      <point x="337" y="694"/>
      <point x="366" y="721" type="curve"/>
      <point x="342" y="744" type="line"/>
      <point x="303" y="714"/>
      <point x="281" y="679"/>
      <point x="272" y="627" type="curve" smooth="yes"/>
    </contour>
  </outline>
</glyph>
<glyph name="apostrophemod" format="2">
  <advance width="300"/>
  <unicode hex="02BC"/>
  <outline>
    <contour>
      <point x="191" y="569" type="line"/>
      <point x="230" y="599"/>
      <point x="252" y="634"/>
      <point x="261" y="686" type="curve" smooth="yes"/>
      <point x="270" y="743" type="line"/>
      <point x="194" y="743" type="line"/>
      <point x="182" y="669" type="line"/>
      <point x="229" y="669" type="line"/>
      <point x="215" y="676" type="line"/>
      <point x="209" y="640"/>
      <point x="196" y="619"/>
      <point x="167" y="592" type="curve"/>
    </contour>
  </outline>
</glyph>
<glyph name="ringhalfright" format="2">
  <advance width="500"/>
  <unicode hex="02BE"/>
  <anchor x="289" y="484" name="_top"/>
  <anchor x="320" y="685" name="top"/>
  <outline>
    <contour>
      <point x="300" y="554" type="line"/>
      <point x="361" y="554"/>
      <point x="413" y="593"/>
      <point x="422" y="650" type="curve" smooth="yes"/>
      <point x="431" y="708"/>
      <point x="392" y="747"/>
      <point x="330" y="747" type="curve"/>
      <point x="324" y="710" type="line"/>
      <point x="361" y="710"/>
      <point x="387" y="687"/>
      <point x="381" y="650" type="curve" smooth="yes"/>
      <point x="375" y="614"/>
      <point x="340" y="590"/>
      <point x="305" y="590" type="curve"/>
    </contour>
  </outline>
</glyph>
<glyph name="secondtonechinese" format="2">
  <advance width="500"/>
  <unicode hex="02CA"/>
  <anchor x="289" y="484" name="_top"/>
  <anchor x="250" y="242" name="top"/>
  <outline>
    <contour>
      <point x="278" y="549" type="line"/>
      <point x="319" y="549" type="line"/>
      <point x="503" y="757" type="line"/>
      <point x="441" y="757" type="line"/>
    </contour>
  </outline>
</glyph>
<glyph name="fourthtofinechinese" format="2">
  <advance width="500"/>
  <unicode hex="02CB"/>
  <anchor x="289" y="484" name="_top"/>
  <anchor x="320" y="685" name="top"/>
  <outline>
    <contour>
      <point x="279" y="549" type="line"/>
      <point x="320" y="549" type="line"/>
      <point x="223" y="757" type="line"/>
      <point x="161" y="757" type="line"/>
    </contour>
  </outline>
</glyph>
<glyph name="verticallinelowmod" format="2">
  <advance width="500"/>
  <unicode hex="02CC"/>
  <outline>
    <contour>
      <point x="145" y="-270" type="line"/>
      <point x="194" y="-270" type="line"/>
      <point x="226" y="-72" type="line"/>
      <point x="177" y="-72" type="line"/>
    </contour>
  </outline>
</glyph>
<glyph name="gravecomb" format="2">
  <unicode hex="0300"/>
  <anchor x="39" y="484" name="_top"/>
  <anchor x="70" y="685" name="top"/>
  <outline>
    <contour>
      <point x="29" y="549" type="line"/>
      <point x="70" y="549" type="line"/>
      <point x="-27" y="757" type="line"/>
      <point x="-89" y="757" type="line"/>
    </contour>
  </outline>
</glyph>
<glyph name="acutecomb" format="2">
  <unicode hex="0301"/>
  <anchor x="39" y="484" name="_top"/>
  <anchor x="70" y="685" name="top"/>
  <outline>
    <contour>
      <point x="28" y="549" type="line"/>
      <point x="69" y="549" type="line"/>
      <point x="253" y="757" type="line"/>
      <point x="191" y="757" type="line"/>
    </contour>
  </outline>
</glyph>
<glyph name="circumflexcomb" format="2">
  <unicode hex="0302"/>
  <anchor x="39" y="484" name="_top"/>
  <anchor x="70" y="685" name="top"/>
  <outline>
    <contour>
      <point x="-115" y="549" type="line"/>
      <point x="-75" y="549" type="line"/>
      <point x="76" y="717" type="line"/>
      <point x="172" y="549" type="line"/>
      <point x="212" y="549" type="line"/>
      <point x="109" y="757" type="line"/>
      <point x="54" y="757" type="line"/>
    </contour>
  </outline>
</glyph>
<glyph name="macroncomb" format="2">
  <unicode hex="0304"/>
  <anchor x="39" y="484" name="_top"/>
  <anchor x="70" y="685" name="top"/>
  <outline>
    <contour>
      <point x="-112" y="630" type="line"/>
      <point x="236" y="630" type="line"/>
      <point x="242" y="672" type="line"/>
      <point x="-106" y="672" type="line"/>
    </contour>
  </outline>
</glyph>
<glyph name="brevecomb" format="2">
  <unicode hex="0306"/>
  <anchor x="39" y="484" name="_top"/>
  <anchor x="70" y="685" name="top"/>
  <outline>
    <contour>
      <point x="48" y="547" type="curve" smooth="yes"/>
      <point x="154" y="547"/>
      <point x="225" y="611"/>
      <point x="257" y="741" type="curve"/>
      <point x="219" y="746" type="line"/>
      <point x="193" y="636"/>
      <point x="141" y="585"/>
      <point x="54" y="585" type="curve" smooth="yes"/>
      <point x="-33" y="585"/>
      <point x="-69" y="636"/>
      <point x="-61" y="746" type="curve"/>
      <point x="-101" y="741" type="line"/>
      <point x="-109" y="611"/>
      <point x="-58" y="547"/>
    </contour>
  </outline>
</glyph>
<glyph name="dotaccentcomb" format="2">
  <unicode hex="0307"/>
  <anchor x="39" y="484" name="_top"/>
  <anchor x="70" y="685" name="top"/>
  <outline>
    <contour>
      <point x="23" y="616" type="line"/>
      <point x="97" y="616" type="line"/>
      <point x="108" y="686" type="line"/>
      <point x="34" y="686" type="line"/>
    </contour>
  </outline>
</glyph>
<glyph name="hookabovecomb" format="2">
  <unicode hex="0309"/>
  <anchor x="39" y="484" name="_top"/>
  <anchor x="70" y="685" name="top"/>
  <outline>
    <contour>
      <point x="28" y="549" type="line"/>
      <point x="69" y="549" type="line"/>
      <point x="71" y="564" type="line" smooth="yes"/>
      <point x="81" y="623"/>
      <point x="174" y="622"/>
      <point x="184" y="688" type="curve" smooth="yes"/>
      <point x="191" y="731"/>
      <point x="155" y="754"/>
      <point x="83" y="754" type="curve" smooth="yes"/>
      <point x="45" y="754"/>
      <point x="11" y="747"/>
      <point x="-15" y="734" type="curve"/>
      <point x="-9" y="702" type="line"/>
      <point x="22" y="713"/>
      <point x="47" y="718"/>
      <point x="74" y="718" type="curve" smooth="yes"/>
      <point x="121" y="718"/>
      <point x="141" y="707"/>
      <point x="137" y="685" type="curve" smooth="yes"/>
      <point x="131" y="642"/>
      <point x="42" y="635"/>
      <point x="31" y="569" type="curve" smooth="yes"/>
    </contour>
  </outline>
</glyph>
<glyph name="ringcomb" format="2">
  <unicode hex="030A"/>
  <anchor x="39" y="484" name="_top"/>
  <anchor x="70" y="685" name="top"/>
  <outline>
    <contour>
      <point x="67" y="547" type="curve" smooth="yes"/>
      <point x="138" y="547"/>
      <point x="192" y="597"/>
      <point x="192" y="665" type="curve" smooth="yes"/>
      <point x="192" y="733"/>
      <point x="138" y="783"/>
      <point x="67" y="783" type="curve" smooth="yes"/>
      <point x="-4" y="783"/>
      <point x="-58" y="733"/>
      <point x="-58" y="665" type="curve" smooth="yes"/>
      <point x="-58" y="597"/>
      <point x="-4" y="547"/>
    </contour>
    <contour>
      <point x="67" y="580" type="curve" smooth="yes"/>
      <point x="17" y="580"/>
      <point x="-19" y="615"/>
      <point x="-19" y="665" type="curve" smooth="yes"/>
      <point x="-19" y="715"/>
      <point x="17" y="750"/>
      <point x="67" y="750" type="curve" smooth="yes"/>
      <point x="117" y="750"/>
      <point x="153" y="715"/>
      <point x="153" y="665" type="curve" smooth="yes"/>
      <point x="153" y="615"/>
      <point x="117" y="580"/>
    </contour>
  </outline>
</glyph>
<glyph name="caroncomb" format="2">
  <unicode hex="030C"/>
  <anchor x="39" y="484" name="_top"/>
  <anchor x="70" y="685" name="top"/>
  <outline>
    <contour>
      <point x="21" y="549" type="line"/>
      <point x="76" y="549" type="line"/>
      <point x="245" y="757" type="line"/>
      <point x="205" y="757" type="line"/>
      <point x="55" y="590" type="line"/>
      <point x="-42" y="757" type="line"/>
      <point x="-82" y="757" type="line"/>
    </contour>
  </outline>
</glyph>
<glyph name="dblgravecomb" format="2">
  <unicode hex="030F"/>
  <anchor x="39" y="484" name="_top"/>
  <anchor x="70" y="685" name="top"/>
  <outline>
    <contour>
      <point x="100" y="549" type="line"/>
      <point x="130" y="549" type="line"/>
      <point x="90" y="757" type="line"/>
      <point x="35" y="757" type="line"/>
    </contour>
    <contour>
      <point x="-34" y="549" type="line"/>
      <point x="-3" y="549" type="line"/>
      <point x="-43" y="757" type="line"/>
      <point x="-99" y="757" type="line"/>
    </contour>
  </outline>
</glyph>
<glyph name="breveinvertedcomb" format="2">
  <unicode hex="0311"/>
  <anchor x="38" y="484" name="_top"/>
  <anchor x="70" y="685" name="top"/>
  <outline>
    <contour>
      <point x="-92" y="547" type="line"/>
      <point x="-66" y="657"/>
      <point x="-14" y="708"/>
      <point x="73" y="708" type="curve" smooth="yes"/>
      <point x="160" y="708"/>
      <point x="196" y="657"/>
      <point x="188" y="547" type="curve"/>
      <point x="227" y="552" type="line"/>
      <point x="236" y="682"/>
      <point x="185" y="746"/>
      <point x="79" y="746" type="curve" smooth="yes"/>
      <point x="-27" y="746"/>
      <point x="-98" y="682"/>
      <point x="-131" y="552" type="curve"/>
    </contour>
  </outline>
</glyph>
<glyph name="commaturnedabovecomb" format="2">
  <unicode hex="0312"/>
  <anchor x="39" y="484" name="_top"/>
  <anchor x="70" y="685" name="top"/>
  <outline>
    <contour>
      <point x="12" y="570" type="line"/>
      <point x="88" y="570" type="line"/>
      <point x="100" y="644" type="line"/>
      <point x="53" y="644" type="line"/>
      <point x="67" y="637" type="line"/>
      <point x="73" y="673"/>
      <point x="86" y="694"/>
      <point x="115" y="721" type="curve"/>
      <point x="91" y="744" type="line"/>
      <point x="52" y="714"/>
      <point x="30" y="679"/>
      <point x="21" y="627" type="curve" smooth="yes"/>
    </contour>
  </outline>
</glyph>
<glyph name="horncomb" format="2">
  <unicode hex="031B"/>
  <anchor x="39" y="484" name="_topright"/>
  <outline>
    <contour>
      <point x="48" y="451" type="line"/>
      <point x="171" y="452"/>
      <point x="238" y="496"/>
      <point x="253" y="595" type="curve" smooth="yes"/>
      <point x="257" y="616" type="line"/>
      <point x="212" y="616" type="line"/>
      <point x="210" y="604" type="line" smooth="yes"/>
      <point x="196" y="515"/>
      <point x="153" y="485"/>
      <point x="39" y="484" type="curve"/>
      <point x="36" y="466" type="line"/>
    </contour>
  </outline>
</glyph>
<glyph name="dotbelowcomb" format="2">
  <unicode hex="0323"/>
  <anchor x="-38" y="0" name="_bottom"/>
  <anchor x="-65" y="-170" name="bottom"/>
  <outline>
    <contour>
      <point x="-103" y="-177" type="line"/>
      <point x="-29" y="-177" type="line"/>
      <point x="-18" y="-107" type="line"/>
      <point x="-92" y="-107" type="line"/>
    </contour>
  </outline>
</glyph>
<glyph name="dieresisbelowcomb" format="2">
  <unicode hex="0324"/>
  <anchor x="-38" y="0" name="_bottom"/>
  <anchor x="-65" y="-170" name="bottom"/>
  <outline>
    <contour>
      <point x="0" y="-175" type="line"/>
      <point x="70" y="-175" type="line"/>
      <point x="81" y="-109" type="line"/>
      <point x="11" y="-109" type="line"/>
    </contour>
    <contour>
      <point x="-202" y="-175" type="line"/>
      <point x="-132" y="-175" type="line"/>
      <point x="-121" y="-109" type="line"/>
      <point x="-191" y="-109" type="line"/>
    </contour>
  </outline>
</glyph>
<glyph name="commaaccentcomb" format="2">
  <unicode hex="0326"/>
  <anchor x="-38" y="0" name="_bottom"/>
  <anchor x="-65" y="-170" name="bottom"/>
  <outline>
    <contour>
      <point x="-92" y="-264" type="line"/>
      <point x="-52" y="-233"/>
      <point x="-30" y="-196"/>
      <point x="-21" y="-142" type="curve" smooth="yes"/>
      <point x="-12" y="-85" type="line"/>
      <point x="-88" y="-85" type="line"/>
      <point x="-100" y="-159" type="line"/>
      <point x="-53" y="-159" type="line"/>
      <point x="-67" y="-152" type="line"/>
      <point x="-73" y="-190"/>
      <point x="-86" y="-213"/>
      <point x="-116" y="-241" type="curve"/>
    </contour>
  </outline>
</glyph>
<glyph name="cedillacomb" format="2">
  <unicode hex="0327"/>
  <anchor x="-38" y="0" name="_bottom"/>
  <outline>
    <contour>
      <point x="-57" y="-190" type="curve" smooth="yes"/>
      <point x="27" y="-190"/>
      <point x="81" y="-161"/>
      <point x="88" y="-111" type="curve" smooth="yes"/>
      <point x="95" y="-69"/>
      <point x="65" y="-46"/>
      <point x="4" y="-46" type="curve" smooth="yes"/>
      <point x="-10" y="-46"/>
      <point x="-27" y="-48"/>
      <point x="-56" y="-54" type="curve"/>
      <point x="-36" y="-55" type="line"/>
      <point x="-11" y="20" type="line"/>
      <point x="-54" y="20" type="line"/>
      <point x="-84" y="-75" type="line"/>
      <point x="-70" y="-89" type="line"/>
      <point x="-46" y="-81"/>
      <point x="-24" y="-79"/>
      <point x="-3" y="-79" type="curve" smooth="yes"/>
      <point x="32" y="-79"/>
      <point x="47" y="-89"/>
      <point x="44" y="-110" type="curve" smooth="yes"/>
      <point x="39" y="-138"/>
      <point x="10" y="-153"/>
      <point x="-49" y="-153" type="curve" smooth="yes"/>
      <point x="-80" y="-153"/>
      <point x="-101" y="-149"/>
      <point x="-132" y="-136" type="curve"/>
      <point x="-148" y="-171" type="line"/>
      <point x="-129" y="-183"/>
      <point x="-95" y="-190"/>
    </contour>
  </outline>
</glyph>
<glyph name="macronbelowcomb" format="2">
  <unicode hex="0331"/>
  <anchor x="-38" y="0" name="_bottom"/>
  <anchor x="-65" y="-170" name="bottom"/>
  <outline>
    <contour>
      <point x="-236" y="-151" type="line"/>
      <point x="112" y="-151" type="line"/>
      <point x="119" y="-109" type="line"/>
      <point x="-229" y="-109" type="line"/>
    </contour>
  </outline>
</glyph>
<glyph name="strokeshortcomb" format="2">
  <unicode hex="0335"/>
  <anchor x="48" y="542" name="_stroke"/>
  <outline>
    <contour>
      <point x="-161" y="522" type="line"/>
      <point x="251" y="522" type="line"/>
      <point x="257" y="561" type="line"/>
      <point x="-155" y="561" type="line"/>
    </contour>
  </outline>
</glyph>
<glyph name="slashlongcomb" format="2">
  <unicode hex="0338"/>
  <anchor x="1" y="245" name="_center"/>
  <outline>
    <contour>
      <point x="-222" y="-36" type="line"/>
      <point x="257" y="498" type="line"/>
      <point x="223" y="525" type="line"/>
      <point x="-255" y="-9" type="line"/>
    </contour>
  </outline>
</glyph>
<glyph name="Delta" format="2">
  <advance width="884"/>
  <unicode hex="0394"/>
  <outline>
    <contour>
      <point x="18" y="0" type="line"/>
      <point x="790" y="0" type="line"/>
      <point x="795" y="32" type="line"/>
      <point x="541" y="705" type="line"/>
      <point x="495" y="705" type="line"/>
      <point x="23" y="32" type="line"/>
    </contour>
    <contour>
      <point x="514" y="660" type="line"/>
      <point x="516" y="660" type="line"/>
      <point x="760" y="11" type="line"/>
      <point x="761" y="42" type="line"/>
      <point x="61" y="42" type="line"/>
      <point x="60" y="11" type="line"/>
    </contour>
  </outline>
</glyph>
<glyph name="Sigma" format="2">
  <advance width="748"/>
  <unicode hex="03A3"/>
  <outline>
    <contour>
      <point x="2" y="-180" type="line"/>
      <point x="612" y="-180" type="line"/>
      <point x="619" y="-138" type="line"/>
      <point x="58" y="-138" type="line"/>
      <point x="56" y="-158" type="line"/>
      <point x="468" y="245" type="line"/>
      <point x="473" y="280" type="line"/>
      <point x="187" y="678" type="line"/>
      <point x="185" y="663" type="line"/>
      <point x="746" y="663" type="line"/>
      <point x="753" y="705" type="line"/>
      <point x="143" y="705" type="line"/>
      <point x="137" y="671" type="line"/>
      <point x="436" y="256" type="line"/>
      <point x="439" y="278" type="line"/>
      <point x="8" y="-146" type="line"/>
    </contour>
  </outline>
</glyph>
<glyph name="Omega" format="2">
  <advance width="938"/>
  <unicode hex="03A9"/>
  <outline>
    <contour>
      <point x="14" y="0" type="line"/>
      <point x="354" y="0" type="line"/>
      <point x="360" y="39" type="line"/>
      <point x="187" y="137"/>
      <point x="120" y="248"/>
      <point x="143" y="394" type="curve" smooth="yes"/>
      <point x="171" y="568"/>
      <point x="305" y="669"/>
      <point x="537" y="669" type="curve" smooth="yes"/>
      <point x="770" y="669"/>
      <point x="871" y="567"/>
      <point x="843" y="394" type="curve" smooth="yes"/>
      <point x="820" y="248"/>
      <point x="719" y="137"/>
      <point x="514" y="39" type="curve"/>
      <point x="508" y="0" type="line"/>
      <point x="848" y="0" type="line"/>
      <point x="854" y="41" type="line"/>
      <point x="548" y="41" type="line"/>
      <point x="546" y="25" type="line"/>
      <point x="742" y="105"/>
      <point x="866" y="227"/>
      <point x="891" y="383" type="curve" smooth="yes"/>
      <point x="924" y="593"/>
      <point x="798" y="713"/>
      <point x="544" y="713" type="curve" smooth="yes"/>
      <point x="290" y="713"/>
      <point x="127" y="599"/>
      <point x="96" y="403" type="curve" smooth="yes"/>
      <point x="68" y="227"/>
      <point x="154" y="105"/>
      <point x="329" y="25" type="curve"/>
      <point x="331" y="41" type="line"/>
      <point x="20" y="41" type="line"/>
    </contour>
  </outline>
</glyph>
<glyph name="mu" format="2">
  <advance width="679"/>
  <unicode hex="03BC"/>
  <outline>
    <contour>
      <point x="38" y="-180" type="line"/>
      <point x="84" y="-180" type="line"/>
      <point x="122" y="79" type="line"/>
      <point x="112" y="79" type="line"/>
      <point x="133" y="15"/>
      <point x="196" y="-8"/>
      <point x="284" y="-8" type="curve" smooth="yes"/>
      <point x="392" y="-8"/>
      <point x="472" y="43"/>
      <point x="520" y="122" type="curve"/>
      <point x="508" y="122" type="line"/>
      <point x="489" y="0" type="line"/>
      <point x="534" y="0" type="line"/>
      <point x="611" y="484" type="line"/>
      <point x="565" y="484" type="line"/>
      <point x="524" y="228" type="line" smooth="yes"/>
      <point x="506" y="112"/>
      <point x="415" y="34"/>
      <point x="284" y="34" type="curve" smooth="yes"/>
      <point x="178" y="34"/>
      <point x="125" y="78"/>
      <point x="145" y="205" type="curve" smooth="yes"/>
      <point x="190" y="484" type="line"/>
      <point x="144" y="484" type="line"/>
    </contour>
  </outline>
</glyph>
<glyph name="pi" format="2">
  <advance width="687"/>
  <unicode hex="03C0"/>
  <outline>
    <contour>
      <point x="566" y="-3" type="curve" smooth="yes"/>
      <point x="587" y="-3"/>
      <point x="611" y="-1"/>
      <point x="637" y="3" type="curve"/>
      <point x="644" y="44" type="line"/>
      <point x="619" y="40"/>
      <point x="596" y="39"/>
      <point x="576" y="39" type="curve" smooth="yes"/>
      <point x="485" y="39"/>
      <point x="450" y="78"/>
      <point x="464" y="165" type="curve" smooth="yes"/>
      <point x="508" y="445" type="line"/>
      <point x="668" y="445" type="line"/>
      <point x="675" y="484" type="line"/>
      <point x="61" y="484" type="line"/>
      <point x="54" y="445" type="line"/>
      <point x="186" y="445" type="line"/>
      <point x="156" y="274"/>
      <point x="101" y="121"/>
      <point x="24" y="0" type="curve"/>
      <point x="76" y="0" type="line"/>
      <point x="149" y="119"/>
      <point x="200" y="264"/>
      <point x="232" y="445" type="curve"/>
      <point x="462" y="445" type="line"/>
      <point x="418" y="166" type="line" smooth="yes"/>
      <point x="400" y="53"/>
      <point x="449" y="-3"/>
    </contour>
  </outline>
</glyph>
<glyph name="E-cy" format="2">
  <advance width="825"/>
  <unicode hex="0404"/>
  <anchor x="432" y="0" name="bottom"/>
  <anchor x="547" y="705" name="top"/>
  <outline>
    <contour>
      <point x="429" y="-8" type="curve" smooth="yes"/>
      <point x="558" y="-8"/>
      <point x="667" y="28"/>
      <point x="749" y="95" type="curve"/>
      <point x="723" y="133" type="line"/>
      <point x="634" y="65"/>
      <point x="548" y="36"/>
      <point x="437" y="36" type="curve" smooth="yes"/>
      <point x="223" y="36"/>
      <point x="117" y="148"/>
      <point x="147" y="346" type="curve"/>
      <point x="127" y="337" type="line"/>
      <point x="630" y="337" type="line"/>
      <point x="637" y="379" type="line"/>
      <point x="134" y="379" type="line"/>
      <point x="148" y="356" type="line"/>
      <point x="182" y="554"/>
      <point x="324" y="669"/>
      <point x="537" y="669" type="curve" smooth="yes"/>
      <point x="648" y="669"/>
      <point x="726" y="639"/>
      <point x="793" y="572" type="curve"/>
      <point x="821" y="610" type="line"/>
      <point x="760" y="677"/>
      <point x="663" y="713"/>
      <point x="540" y="713" type="curve" smooth="yes"/>
      <point x="302" y="713"/>
      <point x="136" y="584"/>
      <point x="100" y="362" type="curve" smooth="yes"/>
      <point x="65" y="137"/>
      <point x="187" y="-8"/>
    </contour>
  </outline>
</glyph>
<glyph name="Lje-cy" format="2">
  <advance width="1398"/>
  <unicode hex="0409"/>
  <outline>
    <contour>
      <point x="-1" y="-13" type="line"/>
      <point x="188" y="58"/>
      <point x="279" y="197"/>
      <point x="325" y="484" type="curve" smooth="yes"/>
      <point x="353" y="663" type="line"/>
      <point x="782" y="663" type="line"/>
      <point x="677" y="0" type="line"/>
      <point x="1024" y="0" type="line" smooth="yes"/>
      <point x="1206" y="0"/>
      <point x="1304" y="54"/>
      <point x="1325" y="182" type="curve" smooth="yes"/>
      <point x="1347" y="319"/>
      <point x="1266" y="380"/>
      <point x="1074" y="380" type="curve" smooth="yes"/>
      <point x="783" y="380" type="line"/>
      <point x="835" y="705" type="line"/>
      <point x="314" y="705" type="line"/>
      <point x="280" y="495" type="line" smooth="yes"/>
      <point x="237" y="218"/>
      <point x="159" y="94"/>
      <point x="-13" y="28" type="curve"/>
    </contour>
    <contour>
      <point x="730" y="42" type="line"/>
      <point x="777" y="338" type="line"/>
      <point x="1078" y="338" type="line" smooth="yes"/>
      <point x="1232" y="338"/>
      <point x="1293" y="293"/>
      <point x="1277" y="191" type="curve" smooth="yes"/>
      <point x="1261" y="88"/>
      <point x="1185" y="42"/>
      <point x="1031" y="42" type="curve" smooth="yes"/>
    </contour>
  </outline>
</glyph>
<glyph name="Tshe-cy" format="2">
  <advance width="1031"/>
  <unicode hex="040B"/>
  <outline>
    <contour>
      <point x="300" y="0" type="line"/>
      <point x="346" y="0" type="line"/>
      <point x="400" y="341" type="line"/>
      <point x="471" y="371"/>
      <point x="556" y="387"/>
      <point x="646" y="387" type="curve" smooth="yes"/>
      <point x="846" y="387"/>
      <point x="923" y="317"/>
      <point x="898" y="157" type="curve" smooth="yes"/>
      <point x="873" y="0" type="line"/>
      <point x="919" y="0" type="line"/>
      <point x="945" y="163" type="line" smooth="yes"/>
      <point x="973" y="344"/>
      <point x="870" y="431"/>
      <point x="662" y="431" type="curve" smooth="yes"/>
      <point x="565" y="431"/>
      <point x="471" y="414"/>
      <point x="407" y="387" type="curve"/>
      <point x="451" y="663" type="line"/>
      <point x="789" y="663" type="line"/>
      <point x="796" y="705" type="line"/>
      <point x="74" y="705" type="line"/>
      <point x="67" y="663" type="line"/>
      <point x="405" y="663" type="line"/>
    </contour>
  </outline>
</glyph>
<glyph name="Dzhe-cy" format="2">
  <advance width="923"/>
  <unicode hex="040F"/>
  <outline>
    <contour>
      <point x="378" y="-151" type="line"/>
      <point x="422" y="-151" type="line"/>
      <point x="446" y="0" type="line"/>
      <point x="767" y="0" type="line"/>
      <point x="879" y="705" type="line"/>
      <point x="833" y="705" type="line"/>
      <point x="728" y="42" type="line"/>
      <point x="133" y="42" type="line"/>
      <point x="238" y="705" type="line"/>
      <point x="192" y="705" type="line"/>
      <point x="80" y="0" type="line"/>
      <point x="402" y="0" type="line"/>
    </contour>
  </outline>
</glyph>
<glyph name="Be-cy" format="2">
  <advance width="801"/>
  <unicode hex="0411"/>
  <outline>
    <contour>
      <point x="80" y="0" type="line"/>
      <point x="427" y="0" type="line" smooth="yes"/>
      <point x="609" y="0"/>
      <point x="708" y="59"/>
      <point x="728" y="182" type="curve" smooth="yes"/>
      <point x="750" y="319"/>
      <point x="669" y="380"/>
      <point x="487" y="380" type="curve" smooth="yes"/>
      <point x="186" y="380" type="line"/>
      <point x="231" y="663" type="line"/>
      <point x="724" y="663" type="line"/>
      <point x="731" y="705" type="line"/>
      <point x="192" y="705" type="line"/>
    </contour>
    <contour>
      <point x="133" y="42" type="line"/>
      <point x="180" y="338" type="line"/>
      <point x="481" y="338" type="line" smooth="yes"/>
      <point x="635" y="338"/>
      <point x="696" y="293"/>
      <point x="680" y="191" type="curve" smooth="yes"/>
      <point x="664" y="88"/>
      <point x="588" y="42"/>
      <point x="434" y="42" type="curve" smooth="yes"/>
    </contour>
  </outline>
</glyph>
<glyph name="Ge-cy" format="2">
  <advance width="648"/>
  <unicode hex="0413"/>
  <anchor x="79" y="0" name="bottomright"/>
  <anchor x="198" y="353" name="stroke"/>
  <anchor x="413" y="705" name="top"/>
  <outline>
    <contour>
      <point x="80" y="0" type="line"/>
      <point x="126" y="0" type="line"/>
      <point x="231" y="663" type="line"/>
      <point x="703" y="663" type="line"/>
      <point x="710" y="705" type="line"/>
      <point x="192" y="705" type="line"/>
    </contour>
  </outline>
</glyph>
<glyph name="De-cy" format="2">
  <advance width="939"/>
  <unicode hex="0414"/>
  <outline>
    <contour>
      <point x="-42" y="-151" type="line"/>
      <point x="2" y="-151" type="line"/>
      <point x="26" y="0" type="line"/>
      <point x="832" y="0" type="line"/>
      <point x="808" y="-151" type="line"/>
      <point x="852" y="-151" type="line"/>
      <point x="883" y="42" type="line"/>
      <point x="758" y="42" type="line"/>
      <point x="863" y="705" type="line"/>
      <point x="318" y="705" type="line"/>
      <point x="289" y="525" type="line" smooth="yes"/>
      <point x="252" y="289"/>
      <point x="184" y="136"/>
      <point x="74" y="42" type="curve"/>
      <point x="-11" y="42" type="line"/>
    </contour>
    <contour>
      <point x="126" y="42" type="line"/>
      <point x="233" y="144"/>
      <point x="296" y="290"/>
      <point x="333" y="524" type="curve" smooth="yes"/>
      <point x="355" y="663" type="line"/>
      <point x="810" y="663" type="line"/>
      <point x="712" y="42" type="line"/>
    </contour>
  </outline>
</glyph>
<glyph name="Zhe-cy" format="2">
  <advance width="1148"/>
  <unicode hex="0416"/>
  <anchor x="1040" y="0" name="bottomright"/>
  <anchor x="648" y="705" name="top"/>
  <outline>
    <contour>
      <point x="-23" y="0" type="line"/>
      <point x="33" y="0" type="line"/>
      <point x="191" y="210" type="line" smooth="yes"/>
      <point x="261" y="303"/>
      <point x="327" y="337"/>
      <point x="434" y="337" type="curve" smooth="yes"/>
      <point x="566" y="337" type="line"/>
      <point x="513" y="0" type="line"/>
      <point x="559" y="0" type="line"/>
      <point x="612" y="337" type="line"/>
      <point x="744" y="337" type="line" smooth="yes"/>
      <point x="851" y="337"/>
      <point x="910" y="303"/>
      <point x="951" y="210" type="curve" smooth="yes"/>
      <point x="1043" y="0" type="line"/>
      <point x="1091" y="0" type="line"/>
      <point x="983" y="240" type="line" smooth="yes"/>
      <point x="942" y="330"/>
      <point x="888" y="370"/>
      <point x="792" y="376" type="curve"/>
      <point x="802" y="359" type="line"/>
      <point x="1157" y="705" type="line"/>
      <point x="1098" y="705" type="line"/>
      <point x="750" y="364" type="line"/>
      <point x="780" y="379" type="line"/>
      <point x="619" y="379" type="line"/>
      <point x="671" y="705" type="line"/>
      <point x="625" y="705" type="line"/>
      <point x="573" y="379" type="line"/>
      <point x="412" y="379" type="line"/>
      <point x="434" y="364" type="line"/>
      <point x="194" y="705" type="line"/>
      <point x="142" y="705" type="line"/>
      <point x="387" y="359" type="line"/>
      <point x="400" y="376" type="line"/>
      <point x="302" y="370"/>
      <point x="230" y="330"/>
      <point x="161" y="240" type="curve" smooth="yes"/>
    </contour>
  </outline>
</glyph>
<glyph name="Ze-cy" format="2">
  <advance width="799"/>
  <unicode hex="0417"/>
  <anchor x="359" y="0" name="bottom"/>
  <anchor x="471" y="705" name="top"/>
  <outline>
    <contour>
      <point x="355" y="-8" type="curve" smooth="yes"/>
      <point x="561" y="-8"/>
      <point x="685" y="65"/>
      <point x="703" y="181" type="curve" smooth="yes"/>
      <point x="720" y="286"/>
      <point x="663" y="346"/>
      <point x="543" y="364" type="curve"/>
      <point x="541" y="354" type="line"/>
      <point x="649" y="373"/>
      <point x="724" y="447"/>
      <point x="736" y="524" type="curve" smooth="yes"/>
      <point x="756" y="649"/>
      <point x="656" y="713"/>
      <point x="465" y="713" type="curve" smooth="yes"/>
      <point x="329" y="713"/>
      <point x="211" y="679"/>
      <point x="136" y="618" type="curve"/>
      <point x="160" y="581" type="line"/>
      <point x="240" y="641"/>
      <point x="335" y="669"/>
      <point x="461" y="669" type="curve" smooth="yes"/>
      <point x="622" y="669"/>
      <point x="703" y="623"/>
      <point x="688" y="529" type="curve" smooth="yes"/>
      <point x="674" y="439"/>
      <point x="583" y="378"/>
      <point x="451" y="378" type="curve" smooth="yes"/>
      <point x="234" y="378" type="line"/>
      <point x="227" y="335" type="line"/>
      <point x="446" y="335" type="line" smooth="yes"/>
      <point x="602" y="335"/>
      <point x="671" y="285"/>
      <point x="656" y="191" type="curve" smooth="yes"/>
      <point x="640" y="87"/>
      <point x="539" y="36"/>
      <point x="358" y="36" type="curve" smooth="yes"/>
      <point x="226" y="36"/>
      <point x="134" y="63"/>
      <point x="63" y="125" type="curve"/>
      <point x="38" y="86" type="line"/>
      <point x="101" y="25"/>
      <point x="215" y="-8"/>
    </contour>
  </outline>
</glyph>
<glyph name="Ii-cy" format="2">
  <advance width="906"/>
  <unicode hex="0418"/>
  <anchor x="708" y="0" name="bottomright"/>
  <anchor x="527" y="705" name="top"/>
  <outline>
    <contour>
      <point x="80" y="0" type="line"/>
      <point x="122" y="0" type="line"/>
      <point x="831" y="659" type="line"/>
      <point x="810" y="659" type="line"/>
      <point x="706" y="0" type="line"/>
      <point x="750" y="0" type="line"/>
      <point x="862" y="705" type="line"/>
      <point x="820" y="705" type="line"/>
      <point x="109" y="46" type="line"/>
      <point x="131" y="46" type="line"/>
      <point x="236" y="705" type="line"/>
      <point x="192" y="705" type="line"/>
    </contour>
  </outline>
</glyph>
<glyph name="Ka-cy" format="2">
  <advance width="751"/>
  <unicode hex="041A"/>
  <anchor x="645" y="0" name="bottomright"/>
  <anchor x="395" y="353" name="center"/>
  <anchor x="463" y="705" name="top"/>
  <anchor x="238" y="705" name="topleft"/>
  <outline>
    <contour>
      <point x="80" y="0" type="line"/>
      <point x="126" y="0" type="line"/>
      <point x="179" y="337" type="line"/>
      <point x="347" y="337" type="line" smooth="yes"/>
      <point x="454" y="337"/>
      <point x="513" y="303"/>
      <point x="554" y="210" type="curve" smooth="yes"/>
      <point x="646" y="0" type="line"/>
      <point x="695" y="0" type="line"/>
      <point x="587" y="240" type="line" smooth="yes"/>
      <point x="546" y="330"/>
      <point x="491" y="370"/>
      <point x="395" y="376" type="curve"/>
      <point x="406" y="359" type="line"/>
      <point x="761" y="705" type="line"/>
      <point x="701" y="705" type="line"/>
      <point x="353" y="364" type="line"/>
      <point x="383" y="379" type="line"/>
      <point x="186" y="379" type="line"/>
      <point x="238" y="705" type="line"/>
      <point x="192" y="705" type="line"/>
    </contour>
  </outline>
</glyph>
<glyph name="Pe-cy" format="2">
  <advance width="923"/>
  <unicode hex="041F"/>
  <anchor x="722" y="0" name="bottomright"/>
  <outline>
    <contour>
      <point x="80" y="0" type="line"/>
      <point x="126" y="0" type="line"/>
      <point x="231" y="663" type="line"/>
      <point x="826" y="663" type="line"/>
      <point x="721" y="0" type="line"/>
      <point x="767" y="0" type="line"/>
      <point x="879" y="705" type="line"/>
      <point x="192" y="705" type="line"/>
    </contour>
  </outline>
</glyph>
<glyph name="U-cy" format="2">
  <advance width="774"/>
  <unicode hex="0423"/>
  <anchor x="461" y="705" name="top"/>
  <outline>
    <contour>
      <point x="221" y="0" type="line"/>
      <point x="277" y="0" type="line"/>
      <point x="845" y="705" type="line"/>
      <point x="789" y="705" type="line"/>
      <point x="418" y="244" type="line"/>
      <point x="429" y="244" type="line"/>
      <point x="136" y="705" type="line"/>
      <point x="84" y="705" type="line"/>
      <point x="403" y="199" type="line"/>
      <point x="401" y="224" type="line"/>
    </contour>
  </outline>
</glyph>
<glyph name="Ef-cy" format="2">
  <advance width="998"/>
  <unicode hex="0424"/>
  <outline>
    <contour>
      <point x="435" y="-20" type="line"/>
      <point x="481" y="-20" type="line"/>
      <point x="495" y="71" type="line"/>
      <point x="476" y="57" type="line"/>
      <point x="520" y="57" type="line" smooth="yes"/>
      <point x="751" y="57"/>
      <point x="904" y="159"/>
      <point x="934" y="348" type="curve" smooth="yes"/>
      <point x="964" y="539"/>
      <point x="850" y="658"/>
      <point x="615" y="658" type="curve" smooth="yes"/>
      <point x="571" y="658" type="line"/>
      <point x="586" y="644" type="line"/>
      <point x="600" y="730" type="line"/>
      <point x="554" y="730" type="line"/>
      <point x="540" y="644" type="line"/>
      <point x="559" y="658" type="line"/>
      <point x="515" y="658" type="line" smooth="yes"/>
      <point x="280" y="658"/>
      <point x="132" y="559"/>
      <point x="101" y="368" type="curve" smooth="yes"/>
      <point x="72" y="179"/>
      <point x="189" y="57"/>
      <point x="420" y="57" type="curve" smooth="yes"/>
      <point x="464" y="57" type="line"/>
      <point x="449" y="71" type="line"/>
    </contour>
    <contour>
      <point x="451" y="85" type="line"/>
      <point x="471" y="99" type="line"/>
      <point x="414" y="99" type="line" smooth="yes"/>
      <point x="223" y="99"/>
      <point x="123" y="195"/>
      <point x="149" y="360" type="curve" smooth="yes"/>
      <point x="176" y="532"/>
      <point x="300" y="616"/>
      <point x="496" y="616" type="curve" smooth="yes"/>
      <point x="553" y="616" type="line"/>
      <point x="538" y="631" type="line"/>
    </contour>
    <contour>
      <point x="497" y="85" type="line"/>
      <point x="584" y="631" type="line"/>
      <point x="565" y="616" type="line"/>
      <point x="622" y="616" type="line" smooth="yes"/>
      <point x="818" y="616"/>
      <point x="913" y="522"/>
      <point x="887" y="360" type="curve" smooth="yes"/>
      <point x="859" y="185"/>
      <point x="731" y="99"/>
      <point x="540" y="99" type="curve" smooth="yes"/>
      <point x="483" y="99" type="line"/>
    </contour>
  </outline>
</glyph>
<glyph name="Che-cy" format="2">
  <advance width="811"/>
  <unicode hex="0427"/>
  <anchor x="609" y="0" name="bottomright"/>
  <anchor x="384" y="295" name="center"/>
  <anchor x="451" y="705" name="top"/>
  <outline>
    <contour>
      <point x="609" y="0" type="line"/>
      <point x="655" y="0" type="line"/>
      <point x="767" y="705" type="line"/>
      <point x="721" y="705" type="line"/>
      <point x="667" y="364" type="line"/>
      <point x="596" y="334"/>
      <point x="510" y="318"/>
      <point x="420" y="318" type="curve" smooth="yes"/>
      <point x="220" y="318"/>
      <point x="143" y="388"/>
      <point x="169" y="548" type="curve" smooth="yes"/>
      <point x="194" y="705" type="line"/>
      <point x="148" y="705" type="line"/>
      <point x="122" y="542" type="line" smooth="yes"/>
      <point x="93" y="361"/>
      <point x="196" y="274"/>
      <point x="404" y="274" type="curve" smooth="yes"/>
      <point x="501" y="274"/>
      <point x="596" y="291"/>
      <point x="659" y="318" type="curve"/>
    </contour>
  </outline>
</glyph>
<glyph name="Sha-cy" format="2">
  <advance width="1289"/>
  <unicode hex="0428"/>
  <outline>
    <contour>
      <point x="80" y="0" type="line"/>
      <point x="1133" y="0" type="line"/>
      <point x="1245" y="705" type="line"/>
      <point x="1198" y="705" type="line"/>
      <point x="1093" y="42" type="line"/>
      <point x="636" y="42" type="line"/>
      <point x="741" y="705" type="line"/>
      <point x="695" y="705" type="line"/>
      <point x="590" y="42" type="line"/>
      <point x="133" y="42" type="line"/>
      <point x="238" y="705" type="line"/>
      <point x="192" y="705" type="line"/>
    </contour>
  </outline>
</glyph>
<glyph name="Shcha-cy" format="2">
  <advance width="1319"/>
  <unicode hex="0429"/>
  <outline>
    <contour>
      <point x="1188" y="-151" type="line"/>
      <point x="1232" y="-151" type="line"/>
      <point x="1263" y="42" type="line"/>
      <point x="1140" y="42" type="line"/>
      <point x="1245" y="705" type="line"/>
      <point x="1198" y="705" type="line"/>
      <point x="1093" y="42" type="line"/>
      <point x="636" y="42" type="line"/>
      <point x="741" y="705" type="line"/>
      <point x="695" y="705" type="line"/>
      <point x="590" y="42" type="line"/>
      <point x="133" y="42" type="line"/>
      <point x="238" y="705" type="line"/>
      <point x="192" y="705" type="line"/>
      <point x="80" y="0" type="line"/>
      <point x="1212" y="0" type="line"/>
    </contour>
  </outline>
</glyph>
<glyph name="Hardsign-cy" format="2">
  <advance width="959"/>
  <unicode hex="042A"/>
  <outline>
    <contour>
      <point x="238" y="0" type="line"/>
      <point x="585" y="0" type="line" smooth="yes"/>
      <point x="767" y="0"/>
      <point x="865" y="54"/>
      <point x="886" y="182" type="curve" smooth="yes"/>
      <point x="908" y="319"/>
      <point x="827" y="380"/>
      <point x="635" y="380" type="curve" smooth="yes"/>
      <point x="344" y="380" type="line"/>
      <point x="396" y="705" type="line"/>
      <point x="74" y="705" type="line"/>
      <point x="67" y="663" type="line"/>
      <point x="343" y="663" type="line"/>
    </contour>
    <contour>
      <point x="291" y="42" type="line"/>
      <point x="338" y="338" type="line"/>
      <point x="639" y="338" type="line" smooth="yes"/>
      <point x="793" y="338"/>
      <point x="854" y="293"/>
      <point x="838" y="191" type="curve" smooth="yes"/>
      <point x="822" y="88"/>
      <point x="746" y="42"/>
      <point x="592" y="42" type="curve" smooth="yes"/>
    </contour>
  </outline>
</glyph>
<glyph name="Yeru-cy" format="2">
  <advance width="1002"/>
  <unicode hex="042B"/>
  <anchor x="575" y="705" name="top"/>
  <outline>
    <contour>
      <point x="80" y="0" type="line"/>
      <point x="389" y="0" type="line" smooth="yes"/>
      <point x="571" y="0"/>
      <point x="669" y="54"/>
      <point x="690" y="182" type="curve" smooth="yes"/>
      <point x="712" y="319"/>
      <point x="631" y="380"/>
      <point x="439" y="380" type="curve" smooth="yes"/>
      <point x="186" y="380" type="line"/>
      <point x="238" y="705" type="line"/>
      <point x="192" y="705" type="line"/>
    </contour>
    <contour>
      <point x="133" y="42" type="line"/>
      <point x="180" y="338" type="line"/>
      <point x="443" y="338" type="line" smooth="yes"/>
      <point x="597" y="338"/>
      <point x="658" y="293"/>
      <point x="642" y="191" type="curve" smooth="yes"/>
      <point x="626" y="88"/>
      <point x="550" y="42"/>
      <point x="396" y="42" type="curve" smooth="yes"/>
    </contour>
    <contour>
      <point x="800" y="0" type="line"/>
      <point x="846" y="0" type="line"/>
      <point x="958" y="705" type="line"/>
      <point x="912" y="705" type="line"/>
    </contour>
  </outline>
</glyph>
<glyph name="Ereversed-cy" format="2">
  <advance width="825"/>
  <unicode hex="042D"/>
  <anchor x="322" y="0" name="bottom"/>
  <anchor x="434" y="705" name="top"/>
  <outline>
    <contour>
      <point x="323" y="-8" type="curve" smooth="yes"/>
      <point x="560" y="-8"/>
      <point x="724" y="117"/>
      <point x="760" y="342" type="curve" smooth="yes"/>
      <point x="796" y="568"/>
      <point x="677" y="713"/>
      <point x="429" y="713" type="curve" smooth="yes"/>
      <point x="305" y="713"/>
      <point x="193" y="676"/>
      <point x="112" y="610" type="curve"/>
      <point x="138" y="572" type="line"/>
      <point x="225" y="638"/>
      <point x="317" y="669"/>
      <point x="424" y="669" type="curve" smooth="yes"/>
      <point x="637" y="669"/>
      <point x="743" y="554"/>
      <point x="713" y="356" type="curve"/>
      <point x="735" y="379" type="line"/>
      <point x="232" y="379" type="line"/>
      <point x="225" y="337" type="line"/>
      <point x="728" y="337" type="line"/>
      <point x="712" y="346" type="line"/>
      <point x="678" y="148"/>
      <point x="538" y="36"/>
      <point x="324" y="36" type="curve" smooth="yes"/>
      <point x="213" y="36"/>
      <point x="134" y="66"/>
      <point x="68" y="133" type="curve"/>
      <point x="40" y="95" type="line"/>
      <point x="100" y="28"/>
      <point x="199" y="-8"/>
    </contour>
  </outline>
</glyph>
<glyph name="Iu-cy" format="2">
  <advance width="1217"/>
  <unicode hex="042E"/>
  <outline>
    <contour>
      <point x="728" y="-8" type="curve" smooth="yes"/>
      <point x="954" y="-8"/>
      <point x="1117" y="120"/>
      <point x="1152" y="343" type="curve" smooth="yes"/>
      <point x="1187" y="566"/>
      <point x="1068" y="713"/>
      <point x="832" y="713" type="curve" smooth="yes"/>
      <point x="615" y="713"/>
      <point x="457" y="596"/>
      <point x="411" y="379" type="curve"/>
      <point x="186" y="379" type="line"/>
      <point x="238" y="705" type="line"/>
      <point x="192" y="705" type="line"/>
      <point x="80" y="0" type="line"/>
      <point x="126" y="0" type="line"/>
      <point x="179" y="337" type="line"/>
      <point x="403" y="337" type="line"/>
      <point x="379" y="127"/>
      <point x="497" y="-8"/>
    </contour>
    <contour>
      <point x="730" y="36" type="curve" smooth="yes"/>
      <point x="526" y="36"/>
      <point x="423" y="154"/>
      <point x="455" y="352" type="curve" smooth="yes"/>
      <point x="486" y="550"/>
      <point x="627" y="669"/>
      <point x="830" y="669" type="curve" smooth="yes"/>
      <point x="1034" y="669"/>
      <point x="1136" y="551"/>
      <point x="1105" y="353" type="curve" smooth="yes"/>
      <point x="1074" y="155"/>
      <point x="933" y="36"/>
    </contour>
  </outline>
</glyph>
<glyph name="Ia-cy" format="2">
  <advance width="814"/>
  <unicode hex="042F"/>
  <outline>
    <contour>
      <point x="15" y="0" type="line"/>
      <point x="73" y="0" type="line"/>
      <point x="262" y="226" type="line" smooth="yes"/>
      <point x="318" y="293"/>
      <point x="355" y="310"/>
      <point x="455" y="310" type="curve" smooth="yes"/>
      <point x="661" y="310" type="line"/>
      <point x="612" y="0" type="line"/>
      <point x="658" y="0" type="line"/>
      <point x="770" y="705" type="line"/>
      <point x="444" y="705" type="line" smooth="yes"/>
      <point x="266" y="705"/>
      <point x="161" y="643"/>
      <point x="142" y="523" type="curve" smooth="yes"/>
      <point x="120" y="384"/>
      <point x="200" y="313"/>
      <point x="384" y="313" type="curve"/>
      <point x="392" y="326" type="line"/>
      <point x="384" y="326" type="line" smooth="yes"/>
      <point x="320" y="326"/>
      <point x="268" y="300"/>
      <point x="218" y="241" type="curve" smooth="yes"/>
    </contour>
    <contour>
      <point x="391" y="352" type="line" smooth="yes"/>
      <point x="236" y="352"/>
      <point x="172" y="402"/>
      <point x="188" y="508" type="curve" smooth="yes"/>
      <point x="205" y="613"/>
      <point x="285" y="663"/>
      <point x="440" y="663" type="curve" smooth="yes"/>
      <point x="717" y="663" type="line"/>
      <point x="668" y="352" type="line"/>
    </contour>
  </outline>
</glyph>
<glyph name="be-cy" format="2">
  <advance width="668"/>
  <unicode hex="0431"/>
  <outline>
    <contour>
      <point x="300" y="-8" type="curve" smooth="yes"/>
      <point x="457" y="-8"/>
      <point x="577" y="85"/>
      <point x="601" y="232" type="curve" smooth="yes"/>
      <point x="625" y="388"/>
      <point x="537" y="492"/>
      <point x="372" y="492" type="curve" smooth="yes"/>
      <point x="262" y="492"/>
      <point x="166" y="441"/>
      <point x="121" y="355" type="curve"/>
      <point x="132" y="355" type="line"/>
      <point x="136" y="381" type="line" smooth="yes"/>
      <point x="157" y="510"/>
      <point x="238" y="586"/>
      <point x="387" y="620" type="curve" smooth="yes"/>
      <point x="633" y="676" type="line"/>
      <point x="625" y="717" type="line"/>
      <point x="392" y="664" type="line" smooth="yes"/>
      <point x="175" y="615"/>
      <point x="108" y="507"/>
      <point x="82" y="339" type="curve" smooth="yes"/>
      <point x="68" y="252" type="line" smooth="yes"/>
      <point x="43" y="95"/>
      <point x="133" y="-8"/>
    </contour>
    <contour>
      <point x="301" y="34" type="curve" smooth="yes"/>
      <point x="165" y="34"/>
      <point x="94" y="113"/>
      <point x="114" y="242" type="curve" smooth="yes"/>
      <point x="135" y="371"/>
      <point x="231" y="450"/>
      <point x="367" y="450" type="curve" smooth="yes"/>
      <point x="503" y="450"/>
      <point x="575" y="371"/>
      <point x="554" y="242" type="curve" smooth="yes"/>
      <point x="534" y="113"/>
      <point x="437" y="34"/>
    </contour>
  </outline>
</glyph>
<glyph name="ve-cy" format="2">
  <advance width="649"/>
  <unicode hex="0432"/>
  <outline>
    <contour>
      <point x="69" y="0" type="line"/>
      <point x="352" y="0" type="line" smooth="yes"/>
      <point x="480" y="0"/>
      <point x="555" y="47"/>
      <point x="567" y="129" type="curve" smooth="yes"/>
      <point x="579" y="202"/>
      <point x="528" y="252"/>
      <point x="430" y="252" type="curve"/>
      <point x="428" y="240" type="line"/>
      <point x="508" y="246"/>
      <point x="575" y="291"/>
      <point x="585" y="353" type="curve" smooth="yes"/>
      <point x="599" y="441"/>
      <point x="538" y="484"/>
      <point x="409" y="484" type="curve" smooth="yes"/>
      <point x="146" y="484" type="line"/>
    </contour>
    <contour>
      <point x="121" y="38" type="line"/>
      <point x="151" y="227" type="line"/>
      <point x="384" y="227" type="line" smooth="yes"/>
      <point x="480" y="227"/>
      <point x="530" y="194"/>
      <point x="520" y="133" type="curve" smooth="yes"/>
      <point x="510" y="72"/>
      <point x="460" y="38"/>
      <point x="354" y="38" type="curve" smooth="yes"/>
    </contour>
    <contour>
      <point x="157" y="265" type="line"/>
      <point x="186" y="446" type="line"/>
      <point x="409" y="446" type="line" smooth="yes"/>
      <point x="499" y="446"/>
      <point x="546" y="413"/>
      <point x="537" y="356" type="curve" smooth="yes"/>
      <point x="528" y="299"/>
      <point x="480" y="265"/>
      <point x="380" y="265" type="curve" smooth="yes"/>
    </contour>
  </outline>
</glyph>
<glyph name="ge-cy" format="2">
  <advance width="507"/>
  <unicode hex="0433"/>
  <anchor x="69" y="0" name="bottomright"/>
  <anchor x="162" y="243" name="center"/>
  <anchor x="324" y="484" name="top"/>
  <outline>
    <contour>
      <point x="69" y="0" type="line"/>
      <point x="115" y="0" type="line"/>
      <point x="185" y="444" type="line"/>
      <point x="529" y="444" type="line"/>
      <point x="536" y="484" type="line"/>
      <point x="146" y="484" type="line"/>
    </contour>
  </outline>
</glyph>
<glyph name="de-cy" format="2">
  <advance width="699"/>
  <unicode hex="0434"/>
  <outline>
    <contour>
      <point x="-29" y="-130" type="line"/>
      <point x="13" y="-130" type="line"/>
      <point x="34" y="0" type="line"/>
      <point x="580" y="0" type="line"/>
      <point x="559" y="-130" type="line"/>
      <point x="601" y="-130" type="line"/>
      <point x="628" y="39" type="line"/>
      <point x="535" y="39" type="line"/>
      <point x="606" y="484" type="line"/>
      <point x="222" y="484" type="line"/>
      <point x="198" y="337" type="line" smooth="yes"/>
      <point x="177" y="203"/>
      <point x="132" y="109"/>
      <point x="56" y="39" type="curve"/>
      <point x="-2" y="39" type="line"/>
    </contour>
    <contour>
      <point x="111" y="39" type="line"/>
      <point x="176" y="110"/>
      <point x="226" y="220"/>
      <point x="244" y="335" type="curve" smooth="yes"/>
      <point x="261" y="445" type="line"/>
      <point x="553" y="445" type="line"/>
      <point x="489" y="39" type="line"/>
    </contour>
  </outline>
</glyph>
<glyph name="zhe-cy" format="2">
  <advance width="928"/>
  <unicode hex="0436"/>
  <anchor x="830" y="0" name="bottomright"/>
  <anchor x="503" y="484" name="top"/>
  <outline>
    <contour>
      <point x="-35" y="0" type="line"/>
      <point x="28" y="0" type="line"/>
      <point x="182" y="167" type="line" smooth="yes"/>
      <point x="238" y="227"/>
      <point x="261" y="232"/>
      <point x="345" y="232" type="curve" smooth="yes"/>
      <point x="440" y="232" type="line"/>
      <point x="403" y="0" type="line"/>
      <point x="449" y="0" type="line"/>
      <point x="486" y="232" type="line"/>
      <point x="581" y="232" type="line" smooth="yes"/>
      <point x="665" y="232"/>
      <point x="690" y="227"/>
      <point x="726" y="167" type="curve" smooth="yes"/>
      <point x="828" y="0" type="line"/>
      <point x="883" y="0" type="line"/>
      <point x="775" y="174" type="line" smooth="yes"/>
      <point x="725" y="255"/>
      <point x="704" y="264"/>
      <point x="634" y="269" type="curve"/>
      <point x="656" y="255" type="line"/>
      <point x="929" y="484" type="line"/>
      <point x="864" y="484" type="line"/>
      <point x="611" y="271" type="line"/>
      <point x="492" y="271" type="line"/>
      <point x="526" y="484" type="line"/>
      <point x="480" y="484" type="line"/>
      <point x="446" y="271" type="line"/>
      <point x="323" y="271" type="line"/>
      <point x="138" y="484" type="line"/>
      <point x="81" y="484" type="line"/>
      <point x="280" y="255" type="line"/>
      <point x="304" y="269" type="line"/>
      <point x="232" y="264"/>
      <point x="204" y="254"/>
      <point x="129" y="174" type="curve" smooth="yes"/>
    </contour>
  </outline>
</glyph>
<glyph name="ze-cy" format="2">
  <advance width="586"/>
  <unicode hex="0437"/>
  <anchor x="248" y="0" name="bottom"/>
  <anchor x="325" y="484" name="top"/>
  <outline>
    <contour>
      <point x="247" y="-8" type="curve" smooth="yes"/>
      <point x="396" y="-8"/>
      <point x="491" y="43"/>
      <point x="504" y="124" type="curve" smooth="yes"/>
      <point x="516" y="200"/>
      <point x="474" y="240"/>
      <point x="387" y="251" type="curve"/>
      <point x="388" y="244" type="line"/>
      <point x="458" y="257"/>
      <point x="512" y="306"/>
      <point x="520" y="357" type="curve" smooth="yes"/>
      <point x="535" y="447"/>
      <point x="464" y="492"/>
      <point x="322" y="492" type="curve" smooth="yes"/>
      <point x="222" y="492"/>
      <point x="138" y="470"/>
      <point x="85" y="429" type="curve"/>
      <point x="106" y="396" type="line"/>
      <point x="158" y="432"/>
      <point x="231" y="450"/>
      <point x="318" y="450" type="curve" smooth="yes"/>
      <point x="429" y="450"/>
      <point x="483" y="420"/>
      <point x="473" y="363" type="curve" smooth="yes"/>
      <point x="464" y="305"/>
      <point x="401" y="266"/>
      <point x="315" y="266" type="curve" smooth="yes"/>
      <point x="158" y="266" type="line"/>
      <point x="152" y="227" type="line"/>
      <point x="314" y="227" type="line" smooth="yes"/>
      <point x="417" y="227"/>
      <point x="467" y="194"/>
      <point x="457" y="133" type="curve" smooth="yes"/>
      <point x="447" y="67"/>
      <point x="377" y="34"/>
      <point x="251" y="34" type="curve" smooth="yes"/>
      <point x="157" y="34"/>
      <point x="93" y="54"/>
      <point x="42" y="98" type="curve"/>
      <point x="16" y="60" type="line"/>
      <point x="62" y="16"/>
      <point x="146" y="-8"/>
    </contour>
  </outline>
</glyph>
<glyph name="ii-cy" format="2">
  <advance width="696"/>
  <unicode hex="0438"/>
  <anchor x="508" y="0" name="bottomright"/>
  <anchor x="387" y="484" name="top"/>
  <outline>
    <contour>
      <point x="69" y="0" type="line"/>
      <point x="112" y="0" type="line"/>
      <point x="594" y="438" type="line"/>
      <point x="578" y="438" type="line"/>
      <point x="509" y="0" type="line"/>
      <point x="551" y="0" type="line"/>
      <point x="628" y="484" type="line"/>
      <point x="586" y="484" type="line"/>
      <point x="103" y="45" type="line"/>
      <point x="119" y="45" type="line"/>
      <point x="189" y="484" type="line"/>
      <point x="146" y="484" type="line"/>
    </contour>
  </outline>
</glyph>
<glyph name="ka-cy" format="2">
  <advance width="608"/>
  <unicode hex="043A"/>
  <anchor x="513" y="0" name="bottomright"/>
  <anchor x="293" y="243" name="center"/>
  <anchor x="376" y="484" name="top"/>
  <outline>
    <contour>
      <point x="69" y="0" type="line"/>
      <point x="115" y="0" type="line"/>
      <point x="152" y="232" type="line"/>
      <point x="261" y="232" type="line" smooth="yes"/>
      <point x="345" y="232"/>
      <point x="370" y="227"/>
      <point x="406" y="167" type="curve" smooth="yes"/>
      <point x="508" y="0" type="line"/>
      <point x="563" y="0" type="line"/>
      <point x="455" y="174" type="line" smooth="yes"/>
      <point x="405" y="255"/>
      <point x="384" y="264"/>
      <point x="314" y="269" type="curve"/>
      <point x="336" y="255" type="line"/>
      <point x="609" y="484" type="line"/>
      <point x="544" y="484" type="line"/>
      <point x="291" y="271" type="line"/>
      <point x="158" y="271" type="line"/>
      <point x="192" y="484" type="line"/>
      <point x="146" y="484" type="line"/>
    </contour>
  </outline>
</glyph>
<glyph name="el-cy" format="2">
  <advance width="681"/>
  <unicode hex="043B"/>
  <anchor x="489" y="0" name="bottomright"/>
  <outline>
    <contour>
      <point x="16" y="-9" type="line"/>
      <point x="159" y="45"/>
      <point x="211" y="129"/>
      <point x="249" y="365" type="curve" smooth="yes"/>
      <point x="261" y="445" type="line"/>
      <point x="560" y="445" type="line"/>
      <point x="490" y="0" type="line"/>
      <point x="536" y="0" type="line"/>
      <point x="613" y="484" type="line"/>
      <point x="222" y="484" type="line"/>
      <point x="203" y="367" type="line" smooth="yes"/>
      <point x="168" y="148"/>
      <point x="129" y="82"/>
      <point x="0" y="30" type="curve"/>
    </contour>
  </outline>
</glyph>
<glyph name="em-cy" format="2">
  <advance width="782"/>
  <unicode hex="043C"/>
  <anchor x="594" y="0" name="bottomright"/>
  <outline>
    <contour>
      <point x="69" y="0" type="line"/>
      <point x="112" y="0" type="line"/>
      <point x="183" y="447" type="line"/>
      <point x="161" y="447" type="line"/>
      <point x="354" y="78" type="line"/>
      <point x="384" y="78" type="line"/>
      <point x="692" y="446" type="line"/>
      <point x="665" y="446" type="line"/>
      <point x="594" y="0" type="line"/>
      <point x="637" y="0" type="line"/>
      <point x="714" y="484" type="line"/>
      <point x="674" y="484" type="line"/>
      <point x="375" y="130" type="line"/>
      <point x="187" y="484" type="line"/>
      <point x="146" y="484" type="line"/>
    </contour>
  </outline>
</glyph>
<glyph name="en-cy" format="2">
  <advance width="699"/>
  <unicode hex="043D"/>
  <anchor x="508" y="0" name="bottomright"/>
  <outline>
    <contour>
      <point x="69" y="0" type="line"/>
      <point x="115" y="0" type="line"/>
      <point x="152" y="231" type="line"/>
      <point x="545" y="231" type="line"/>
      <point x="508" y="0" type="line"/>
      <point x="554" y="0" type="line"/>
      <point x="631" y="484" type="line"/>
      <point x="585" y="484" type="line"/>
      <point x="551" y="271" type="line"/>
      <point x="158" y="271" type="line"/>
      <point x="192" y="484" type="line"/>
      <point x="146" y="484" type="line"/>
    </contour>
  </outline>
</glyph>
<glyph name="pe-cy" format="2">
  <advance width="695"/>
  <unicode hex="043F"/>
  <anchor x="504" y="0" name="bottomright"/>
  <outline>
    <contour>
      <point x="69" y="0" type="line"/>
      <point x="115" y="0" type="line"/>
      <point x="185" y="445" type="line"/>
      <point x="574" y="445" type="line"/>
      <point x="504" y="0" type="line"/>
      <point x="550" y="0" type="line"/>
      <point x="627" y="484" type="line"/>
      <point x="146" y="484" type="line"/>
    </contour>
  </outline>
</glyph>
<glyph name="te-cy" format="2">
  <advance width="510"/>
  <unicode hex="0442"/>
  <anchor x="194" y="0" name="bottomright"/>
  <outline>
    <contour>
      <point x="194" y="0" type="line"/>
      <point x="240" y="0" type="line"/>
      <point x="310" y="444" type="line"/>
      <point x="543" y="444" type="line"/>
      <point x="550" y="484" type="line"/>
      <point x="38" y="484" type="line"/>
      <point x="31" y="444" type="line"/>
      <point x="264" y="444" type="line"/>
    </contour>
  </outline>
</glyph>
<glyph name="tse-cy" format="2">
  <advance width="707"/>
  <unicode hex="0446"/>
  <outline>
    <contour>
      <point x="567" y="-130" type="line"/>
      <point x="609" y="-130" type="line"/>
      <point x="636" y="39" type="line"/>
      <point x="543" y="39" type="line"/>
      <point x="614" y="484" type="line"/>
      <point x="568" y="484" type="line"/>
      <point x="497" y="39" type="line"/>
      <point x="121" y="39" type="line"/>
      <point x="192" y="484" type="line"/>
      <point x="146" y="484" type="line"/>
      <point x="69" y="0" type="line"/>
      <point x="588" y="0" type="line"/>
    </contour>
  </outline>
</glyph>
<glyph name="sha-cy" format="2">
  <advance width="948"/>
  <unicode hex="0448"/>
  <outline>
    <contour>
      <point x="69" y="0" type="line"/>
      <point x="803" y="0" type="line"/>
      <point x="880" y="484" type="line"/>
      <point x="834" y="484" type="line"/>
      <point x="763" y="39" type="line"/>
      <point x="465" y="39" type="line"/>
      <point x="536" y="484" type="line"/>
      <point x="490" y="484" type="line"/>
      <point x="419" y="39" type="line"/>
      <point x="121" y="39" type="line"/>
      <point x="192" y="484" type="line"/>
      <point x="146" y="484" type="line"/>
    </contour>
  </outline>
</glyph>
<glyph name="hardsign-cy" format="2">
  <advance width="737"/>
  <unicode hex="044A"/>
  <outline>
    <contour>
      <point x="163" y="0" type="line"/>
      <point x="424" y="0" type="line" smooth="yes"/>
      <point x="569" y="0"/>
      <point x="649" y="43"/>
      <point x="665" y="143" type="curve" smooth="yes"/>
      <point x="682" y="254"/>
      <point x="618" y="302"/>
      <point x="472" y="302" type="curve" smooth="yes"/>
      <point x="257" y="302" type="line"/>
      <point x="286" y="484" type="line"/>
      <point x="38" y="484" type="line"/>
      <point x="31" y="444" type="line"/>
      <point x="233" y="444" type="line"/>
    </contour>
    <contour>
      <point x="215" y="38" type="line"/>
      <point x="251" y="264" type="line"/>
      <point x="466" y="264" type="line" smooth="yes"/>
      <point x="583" y="264"/>
      <point x="630" y="230"/>
      <point x="618" y="152" type="curve" smooth="yes"/>
      <point x="606" y="73"/>
      <point x="546" y="38"/>
      <point x="430" y="38" type="curve" smooth="yes"/>
    </contour>
  </outline>
</glyph>
<glyph name="yeru-cy" format="2">
  <advance width="846"/>
  <unicode hex="044B"/>
  <anchor x="463" y="484" name="top"/>
  <outline>
    <contour>
      <point x="69" y="0" type="line"/>
      <point x="330" y="0" type="line" smooth="yes"/>
      <point x="475" y="0"/>
      <point x="555" y="43"/>
      <point x="571" y="143" type="curve" smooth="yes"/>
      <point x="588" y="254"/>
      <point x="524" y="302"/>
      <point x="378" y="302" type="curve" smooth="yes"/>
      <point x="163" y="302" type="line"/>
      <point x="192" y="484" type="line"/>
      <point x="146" y="484" type="line"/>
    </contour>
    <contour>
      <point x="121" y="38" type="line"/>
      <point x="157" y="264" type="line"/>
      <point x="372" y="264" type="line" smooth="yes"/>
      <point x="489" y="264"/>
      <point x="536" y="230"/>
      <point x="524" y="152" type="curve" smooth="yes"/>
      <point x="512" y="73"/>
      <point x="452" y="38"/>
      <point x="336" y="38" type="curve" smooth="yes"/>
    </contour>
    <contour>
      <point x="655" y="0" type="line"/>
      <point x="701" y="0" type="line"/>
      <point x="778" y="484" type="line"/>
      <point x="732" y="484" type="line"/>
    </contour>
  </outline>
</glyph>
<glyph name="softsign-cy" format="2">
  <advance width="643"/>
  <unicode hex="044C"/>
  <outline>
    <contour>
      <point x="69" y="0" type="line"/>
      <point x="330" y="0" type="line" smooth="yes"/>
      <point x="475" y="0"/>
      <point x="555" y="43"/>
      <point x="571" y="143" type="curve" smooth="yes"/>
      <point x="588" y="254"/>
      <point x="524" y="302"/>
      <point x="378" y="302" type="curve" smooth="yes"/>
      <point x="163" y="302" type="line"/>
      <point x="192" y="484" type="line"/>
      <point x="146" y="484" type="line"/>
    </contour>
    <contour>
      <point x="121" y="38" type="line"/>
      <point x="157" y="264" type="line"/>
      <point x="372" y="264" type="line" smooth="yes"/>
      <point x="489" y="264"/>
      <point x="536" y="230"/>
      <point x="524" y="152" type="curve" smooth="yes"/>
      <point x="512" y="73"/>
      <point x="452" y="38"/>
      <point x="336" y="38" type="curve" smooth="yes"/>
    </contour>
  </outline>
</glyph>
<glyph name="ereversed-cy" format="2">
  <advance width="615"/>
  <unicode hex="044D"/>
  <anchor x="330" y="484" name="top"/>
  <outline>
    <contour>
      <point x="244" y="-8" type="curve" smooth="yes"/>
      <point x="404" y="-8"/>
      <point x="524" y="85"/>
      <point x="547" y="232" type="curve" smooth="yes"/>
      <point x="572" y="389"/>
      <point x="483" y="492"/>
      <point x="313" y="492" type="curve" smooth="yes"/>
      <point x="229" y="492"/>
      <point x="148" y="466"/>
      <point x="93" y="421" type="curve"/>
      <point x="116" y="386" type="line"/>
      <point x="173" y="428"/>
      <point x="241" y="450"/>
      <point x="313" y="450" type="curve" smooth="yes"/>
      <point x="447" y="450"/>
      <point x="520" y="372"/>
      <point x="502" y="247" type="curve"/>
      <point x="516" y="268" type="line"/>
      <point x="177" y="268" type="line"/>
      <point x="171" y="229" type="line"/>
      <point x="510" y="229" type="line"/>
      <point x="501" y="237" type="line"/>
      <point x="479" y="111"/>
      <point x="382" y="34"/>
      <point x="247" y="34" type="curve" smooth="yes"/>
      <point x="173" y="34"/>
      <point x="112" y="56"/>
      <point x="71" y="99" type="curve"/>
      <point x="46" y="63" type="line"/>
      <point x="90" y="17"/>
      <point x="160" y="-8"/>
    </contour>
  </outline>
</glyph>
<glyph name="iu-cy" format="2">
  <advance width="894"/>
  <unicode hex="044E"/>
  <outline>
    <contour>
      <point x="526" y="-8" type="curve" smooth="yes"/>
      <point x="684" y="-8"/>
      <point x="803" y="86"/>
      <point x="826" y="232" type="curve" smooth="yes"/>
      <point x="851" y="388"/>
      <point x="763" y="492"/>
      <point x="595" y="492" type="curve" smooth="yes"/>
      <point x="448" y="492"/>
      <point x="334" y="415"/>
      <point x="298" y="271" type="curve"/>
      <point x="158" y="271" type="line"/>
      <point x="192" y="484" type="line"/>
      <point x="146" y="484" type="line"/>
      <point x="69" y="0" type="line"/>
      <point x="115" y="0" type="line"/>
      <point x="152" y="231" type="line"/>
      <point x="291" y="231" type="line"/>
      <point x="275" y="93"/>
      <point x="362" y="-8"/>
    </contour>
    <contour>
      <point x="527" y="34" type="curve" smooth="yes"/>
      <point x="390" y="34"/>
      <point x="320" y="114"/>
      <point x="340" y="242" type="curve" smooth="yes"/>
      <point x="361" y="370"/>
      <point x="456" y="450"/>
      <point x="593" y="450" type="curve" smooth="yes"/>
      <point x="730" y="450"/>
      <point x="801" y="370"/>
      <point x="780" y="242" type="curve" smooth="yes"/>
      <point x="760" y="114"/>
      <point x="664" y="34"/>
    </contour>
  </outline>
</glyph>
<glyph name="ia-cy" format="2">
  <advance width="639"/>
  <unicode hex="044F"/>
  <outline>
    <contour>
      <point x="20" y="0" type="line"/>
      <point x="80" y="0" type="line"/>
      <point x="184" y="118" type="line" smooth="yes"/>
      <point x="236" y="177"/>
      <point x="284" y="199"/>
      <point x="365" y="199" type="curve" smooth="yes"/>
      <point x="480" y="199" type="line"/>
      <point x="448" y="0" type="line"/>
      <point x="494" y="0" type="line"/>
      <point x="571" y="484" type="line"/>
      <point x="329" y="484" type="line" smooth="yes"/>
      <point x="196" y="484"/>
      <point x="117" y="441"/>
      <point x="103" y="350" type="curve" smooth="yes"/>
      <point x="87" y="252"/>
      <point x="151" y="201"/>
      <point x="283" y="201" type="curve"/>
      <point x="305" y="210" type="line"/>
      <point x="299" y="210" type="line" smooth="yes"/>
      <point x="229" y="210"/>
      <point x="185" y="187"/>
      <point x="150" y="148" type="curve" smooth="yes"/>
    </contour>
    <contour>
      <point x="292" y="237" type="line" smooth="yes"/>
      <point x="191" y="237"/>
      <point x="138" y="270"/>
      <point x="149" y="343" type="curve" smooth="yes"/>
      <point x="160" y="419"/>
      <point x="219" y="446"/>
      <point x="325" y="446" type="curve" smooth="yes"/>
      <point x="519" y="446" type="line"/>
      <point x="486" y="237" type="line"/>
    </contour>
  </outline>
</glyph>
<glyph name="dje-cy" format="2">
  <advance width="687"/>
  <unicode hex="0452"/>
  <outline>
    <contour>
      <point x="299" y="-185" type="line"/>
      <point x="464" y="-157"/>
      <point x="528" y="-99"/>
      <point x="551" y="42" type="curve" smooth="yes"/>
      <point x="589" y="282" type="line" smooth="yes"/>
      <point x="614" y="442"/>
      <point x="534" y="492"/>
      <point x="405" y="492" type="curve" smooth="yes"/>
      <point x="290" y="492"/>
      <point x="209" y="441"/>
      <point x="160" y="362" type="curve"/>
      <point x="172" y="362" type="line"/>
      <point x="204" y="560" type="line"/>
      <point x="448" y="560" type="line"/>
      <point x="454" y="599" type="line"/>
      <point x="210" y="599" type="line"/>
      <point x="227" y="705" type="line"/>
      <point x="181" y="705" type="line"/>
      <point x="164" y="599" type="line"/>
      <point x="41" y="599" type="line"/>
      <point x="35" y="560" type="line"/>
      <point x="158" y="560" type="line"/>
      <point x="69" y="0" type="line"/>
      <point x="115" y="0" type="line"/>
      <point x="156" y="256" type="line" smooth="yes"/>
      <point x="174" y="372"/>
      <point x="266" y="450"/>
      <point x="399" y="450" type="curve" smooth="yes"/>
      <point x="508" y="450"/>
      <point x="562" y="406"/>
      <point x="542" y="279" type="curve" smooth="yes"/>
      <point x="504" y="39" type="line" smooth="yes"/>
      <point x="485" y="-79"/>
      <point x="439" y="-121"/>
      <point x="296" y="-145" type="curve"/>
    </contour>
  </outline>
</glyph>
